<svg id="logo" xmlns="http://www.w3.org/2000/svg" viewBox="0 0 223.06 92.13">
  <defs>
    <style>
      .cls-1 {
        fill: none;
      }

      .cls-2 {
        fill: #005694;
      }
    </style>
  </defs>
  <title>RO_OCW_DUO_Logo_2_301U_pos op wit_x_nl</title>
  <g>
    <g>
      <rect class="cls-1" width="223.06" height="92.13"/>
      <rect class="cls-2" x="18.43" width="36.85" height="73.7"/>
      <path class="cls-3" d="M91,104.46h-.64v-1.77H91Zm2.89-7.83h-.64V94.85h.64ZM82,93.57s-.38,0-.38.07.15,0,.38.07c.51.08.71.34,1.07.34a.51.51,0,0,0,.53-.69c0-.08-.07-.06-.08,0-.05.21-.31.33-.58.33S82.55,93.57,82,93.57Zm-3.53,1.77c.05.08.66.86-.27,1.16,0,0-.06.06,0,.08a.78.78,0,0,0,1-.24,1,1,0,0,1-.18,1.23,1.49,1.49,0,0,0,.9.49,1.16,1.16,0,0,0,.56-.59,1,1,0,0,1,0,.67c1.4.13,1.89-1,3-.79,0,0,0,0,0,0A2.24,2.24,0,0,0,81.8,95.1c-1.33-.26-1-.81-1-.81a1.48,1.48,0,0,1,.89.22.34.34,0,0,0,0-.35.91.91,0,0,0,.08-.29,1.4,1.4,0,0,1-.8-.14c-.09-.37.17-.9,1.11-.33a.72.72,0,0,0,.21-.53.27.27,0,0,0,.12-.19c0-.16-.75-.58-1-.63,0-.23-.33-.56-1.22-.44-.41,0-.72-.06-.57-.3,0,0-.06,0-.09,0s-.23.37.13.55a.78.78,0,0,1,.43.67c0,.09-.09.1-.12,0a1.12,1.12,0,0,0-1.67-.47.72.72,0,0,0,.64.61.32.32,0,0,0,.3-.29c0-.08,0-.07.06,0a.49.49,0,0,1-.8.44,1.45,1.45,0,0,0-.28,1.47c.1.44-.12.88-.52.67,0,0,0,0,0,0A.51.51,0,0,0,78.49,95.34Zm3-2.75a.43.43,0,0,1-.77-.25C81.25,92.31,81.47,92.36,81.49,92.59Zm16.25,1.09c-.27,0-.53-.12-.58-.33,0,0-.06-.07-.08,0a.51.51,0,0,0,.53.69c.36,0,.56-.26,1.08-.34.22,0,.37,0,.37-.07s-.33-.07-.37-.07C98.15,93.57,98.08,93.68,97.74,93.68ZM103,95s0,0,0,0c-.4.21-.62-.23-.52-.67a1.45,1.45,0,0,0-.28-1.47.49.49,0,0,1-.8-.44c0-.06.06-.07.06,0a.32.32,0,0,0,.3.29.74.74,0,0,0,.65-.61,1.13,1.13,0,0,0-1.68.47c0,.09-.13.08-.12,0a.81.81,0,0,1,.43-.67c.37-.18.23-.45.14-.55s-.12,0-.09,0c.14.24-.16.35-.58.3-.88-.12-1.18.21-1.22.44-.2,0-1,.47-1,.63a.27.27,0,0,0,.12.19.7.7,0,0,0,.22.53c.93-.57,1.19,0,1.1.33a1.4,1.4,0,0,1-.8.14.91.91,0,0,0,.08.29.34.34,0,0,0,0,.35,1.48,1.48,0,0,1,.89-.22s.35.55-1,.81a2.23,2.23,0,0,0-1.75,2.21s0,0,0,0c1.08-.2,1.57.92,3,.79a1,1,0,0,1,0-.67,1.16,1.16,0,0,0,.56.59,1.45,1.45,0,0,0,.9-.49,1,1,0,0,1-.18-1.23.78.78,0,0,0,1,.24c.07,0,0-.06,0-.08-.93-.3-.32-1.08-.27-1.16A.51.51,0,0,0,103,95Zm-3-2.64a.43.43,0,0,1-.77.25C99.23,92.36,99.45,92.31,100,92.34ZM90.1,84.47a.48.48,0,0,0,.1.28c.08.12.07.19,0,.22s-.11.06-.22,0a.55.55,0,0,0-.28-.09c-.21,0-.31.13-.31.25s.1.24.31.24a.55.55,0,0,0,.28-.09c.11-.08.18-.07.22,0a2.87,2.87,0,0,1-.07.77.58.58,0,0,0-.49.49c0,.4.43.63.68.77.25-.14.68-.37.68-.77a.58.58,0,0,0-.49-.49,3.4,3.4,0,0,1-.07-.77s.11,0,.23,0a.48.48,0,0,0,.27.09c.21,0,.31-.13.31-.24s-.1-.25-.31-.25a.48.48,0,0,0-.27.09c-.12.09-.19.07-.23,0s0-.1,0-.22a.42.42,0,0,0,.1-.28.25.25,0,1,0-.5,0Zm.25,3a.49.49,0,1,0,.49.49A.49.49,0,0,0,90.35,87.46Zm0,4.72a10.37,10.37,0,0,1,3.07.38c0-1,0-1.55.58-1.46-.31-.84,1-1.17,1-2.25,0-.72-.51-.8-.66-.8-.44,0-.37.29-.75.29-.05,0-.1,0-.1,0s.11.34.28.34.24-.23.41-.23.18.06.18.3a2.26,2.26,0,0,1-.66,1.37.38.38,0,0,0-.32-.19.46.46,0,0,0-.4.5.58.58,0,0,0,0,.26.75.75,0,0,1-.3.1.38.38,0,0,1-.41-.42c0-.79,1.06-1.48,1.06-2.48a.93.93,0,0,0-1-1c-.71,0-.58.65-1.19.65,0,0,0,0,0,0s.1.4.42.4.44-.59.74-.59c.12,0,.28.06.28.47a3.62,3.62,0,0,1-.37,1.29.45.45,0,0,0-.31-.14.52.52,0,0,0-.46.57.71.71,0,0,0,.21.5c-.16.2-.31.36-.53.36-.43,0-.62-.24-.62-.51s.53-.39.53-.83a.43.43,0,0,0-.39-.47.57.57,0,0,0-.33.13A.54.54,0,0,0,90,88.7a.42.42,0,0,0-.38.47c0,.44.52.55.52.83s-.19.51-.62.51c-.21,0-.37-.16-.53-.36a.71.71,0,0,0,.21-.5.52.52,0,0,0-.46-.57.45.45,0,0,0-.31.14,3.62,3.62,0,0,1-.37-1.29c0-.41.17-.47.28-.47.3,0,.4.59.74.59s.43-.36.43-.4,0,0-.06,0c-.61,0-.48-.65-1.19-.65a.93.93,0,0,0-1,1c0,1,1.06,1.69,1.06,2.48a.37.37,0,0,1-.41.42.75.75,0,0,1-.3-.1.58.58,0,0,0,0-.26.46.46,0,0,0-.39-.5.39.39,0,0,0-.33.19,2.26,2.26,0,0,1-.66-1.37c0-.24.11-.3.18-.3s.18.23.41.23.28-.21.28-.34-.05,0-.1,0c-.37,0-.3-.29-.75-.29-.15,0-.65.08-.65.8,0,1.08,1.34,1.41,1,2.25.57-.09.57.47.58,1.46A10.37,10.37,0,0,1,90.35,92.18Zm-3.6,1.47c-.54.12-.92.23-1.09.28,0-.24.1-.46.31-.5,0,0,0-.05,0-.06-.48-.32-.74.29-.74.31-.17,0-.43,0-.43.26,0,.69-1.56,1.07-1.92,1.12a1.88,1.88,0,0,1,.9,1,4,4,0,0,1,1.12-.87c.13,0,.17.15.18.25s0,0,0,0c.25-.36.13-.44.11-.55a.3.3,0,0,1,.36-.36v4.55l-.18,0c-.08,0-.75-.55-1.51-1.08s-1.17-.21-2,.26a2.73,2.73,0,0,1-2.29.06c-1,.7-1.32,2.72-1.32,2.72a2.12,2.12,0,0,1-.82.18c-.75,0-.89-.46-.89-.73,0-1.15,1.45-1.65,1.45-2.79a1.38,1.38,0,0,0-1.52-1.4H75.24a.74.74,0,0,1-.72-.52c0-.06-.08,0-.06,0s-.06.24-.06.53a.69.69,0,0,0,.78.74,1.2,1.2,0,0,0,.51-.11s.08,0,0,0a.93.93,0,0,0-.14.86s0,0,.05,0a1.25,1.25,0,0,1,1.2-.95.7.7,0,0,1,.75.8c0,.92-1.63,1.6-1.63,2.88s1.37,1.57,2.16,1.37c0,1.29-1.53,1.73-1.58.81,0-.05,0-.06-.06,0-.18.46-.11.86.47,1,0,0,0,0,0,0-.57.37-.26,1.79-.23,2.21a.48.48,0,0,1-.61.52s0,0,0,0a.64.64,0,0,0,1,0c.4.12.15.46-.11.64,0,0,0,.05,0,.06s.67,0,.78-.44a.66.66,0,0,0,.76.17c.12-.07.7-.27.75.37,0,0,0,0,0,0a.53.53,0,0,0-.29-.93.45.45,0,0,1,.69.08s0,0,0,0c0-.7-.53-.76-.89-.46,0-.07-.14-.46.41-.45,0,0,0,0,0,0a.52.52,0,0,0-.86,0c-.19.23-.67.14-.71.13.15-2.42,2.28-1.56,2.57-2.73,0-.07,0,0,0,0,.08.29.8.33.93-.24,0,0,0-.06,0,0-.61.62-2-1.31-.11-2.87a2.74,2.74,0,0,1,3.62-.15.23.23,0,0,1-.16.28s0,0,0,.05a.43.43,0,0,0,.48-.11c.34.24,0,.55-.1.63s0,0,0,.06a.57.57,0,0,0,.6-.46l0,0v1.38c0,2,2.26,2.23,4.74,3.89,2.48-1.66,4.74-1.94,4.74-3.89v-1.38l0,0a.57.57,0,0,0,.6.46s0,0,0-.06-.44-.39-.09-.63a.42.42,0,0,0,.47.11s0-.05,0-.05a.23.23,0,0,1-.16-.28,2.74,2.74,0,0,1,3.62.15c1.9,1.56.51,3.49-.11,2.87,0,0,0,0,0,0,.13.57.85.53.93.24,0,0,0-.05,0,0,.29,1.17,2.43.31,2.57,2.73,0,0-.52.1-.71-.13a.52.52,0,0,0-.86,0s0,0,0,0c.55,0,.43.38.41.45-.36-.3-.93-.24-.89.46,0,0,0,0,0,0a.45.45,0,0,1,.69-.08.53.53,0,0,0-.29.93s0,0,0,0c0-.64.63-.44.75-.37A.66.66,0,0,0,103,107c.11.49.73.44.79.44s0,0,0-.06c-.26-.18-.51-.52-.11-.64a.65.65,0,0,0,1,0s0-.06,0,0a.48.48,0,0,1-.61-.52c0-.42.34-1.84-.23-2.21,0,0-.06,0,0,0,.58-.13.66-.53.47-1,0-.06-.06-.05-.06,0-.05.92-1.53.48-1.58-.81.8.2,2.16-.08,2.16-1.37s-1.63-2-1.63-2.88a.7.7,0,0,1,.75-.8,1.25,1.25,0,0,1,1.2.95s0,0,0,0a.9.9,0,0,0-.14-.86s0-.07.05,0a1.2,1.2,0,0,0,.51.11.69.69,0,0,0,.78-.74c0-.29-.1-.44-.06-.53s0-.08-.06,0a.74.74,0,0,1-.72.52h-1.25a1.38,1.38,0,0,0-1.52,1.4c0,1.14,1.45,1.64,1.45,2.79,0,.27-.14.73-.88.73a2.13,2.13,0,0,1-.83-.18s-.33-2-1.32-2.72a2.73,2.73,0,0,1-2.29-.06c-.87-.47-1.28-.79-2-.26s-1.43,1.09-1.51,1.08l-.18,0V94.59a.3.3,0,0,1,.36.36c0,.11-.14.19.11.55,0,0,0,0,0,0s0-.25.18-.25a4,4,0,0,1,1.12.87,1.88,1.88,0,0,1,.9-1c-.36,0-1.92-.43-1.92-1.12,0-.22-.26-.28-.43-.26,0,0-.26-.63-.73-.31,0,0,0,0,0,.06.21,0,.3.26.31.5a17.1,17.1,0,0,0-4.69-.68,16.62,16.62,0,0,0-3,.27V95.1h-.64V93.65h0m-4.24,16.18a.4.4,0,0,1-.28-.41v-1a7.36,7.36,0,0,0-2.59-.39c-1.27,0-1.67.29-1.69.39l-.34,1.87s.52-.47,2.37-.35c2.22.14,4.53,1.45,4.53.05v-.82C82.76,109.19,82.51,109.74,82.51,109.83Zm13.68-.64V110c0,1.4,2.31.09,4.53-.05,1.85-.12,2.37.35,2.37.35l-.34-1.87c0-.1-.42-.39-1.69-.39a7.22,7.22,0,0,0-2.58.39v1a.41.41,0,0,1-.29.41C98.19,109.74,97.94,109.19,96.19,109.19Zm-5.84-.85c3.58,0,7.22.19,7.7.73,0,0,0,0,0,0v-1.9c0-.56-3.75-.88-7.75-.88s-7.75.32-7.75.88V109s0,.07.06,0C83.13,108.53,86.77,108.34,90.35,108.34Zm-3.19-9-.37-.09,0,0-.42-.18h.38s0,0,0,0l-.32-.31.41.15s0,0,0,0l-.28-.4.41.27s0,0,0,0l-.2-.48.38.35s0,0,0,0l-.11-.48.28.4s0,0,0,0,0-.44,0-.44l.18.4s0,0,0,0l.14-.34,0,.45h-.06l-.08.55c.54-.13,1.22-1,1.73-1s.84.72,2,.35a3.37,3.37,0,0,1,.5,1.31c.44.41,1,.27,1-.16,0-.59-.64-.71-.64-1.32a.67.67,0,0,1,.72-.67c.27,0,.68.12.92.12a.36.36,0,0,0,.36-.28c0-.07.1,0,.1,0s0,.14,0,.27c0,.39-.57.44-.64.39s-.05,0,0,0,.07.3,0,.45,0,0,0,0A.86.86,0,0,0,93,98a.31.31,0,0,0-.31.31c0,.35.7.67.7,1.39s-.75.94-1.5.75c0,.71,1.09,1.14,1.12.63,0,0,0,0,0,0a.27.27,0,0,1-.12.46c.19.09.22.46.28.69s.43.15.45.14,0,0,0,0a.37.37,0,0,1-.49.21c-.19.14,0,.25.21.3a0,0,0,0,1,0,0c-.13,0-.39.13-.52-.1a.36.36,0,0,1-.38.23c-.13,0-.22.14-.19.33,0,0,0,0,0,0a.29.29,0,0,1,0-.54A.24.24,0,0,0,92,103s0,0,0,0c-.14-.38.17-.49.39-.39,0-.06-.13-.24-.43-.18,0,0,0,0,0,0a.28.28,0,0,1,.46-.12c.14.09.38,0,.4,0-.48-1-1.4-.15-1.61-.9,0,0,0,0,0,0s-.45.17-.52-.15c0,0,0,0,0,0s.19.12.36-.13a.89.89,0,0,0,.12-.51A1.64,1.64,0,0,0,89.58,99a2.88,2.88,0,0,0-1.63.55l.42.1a.65.65,0,0,1-.83.57l.07-.49a.61.61,0,0,0-.32.21s0,0,0,0a.39.39,0,0,1,.22-.45s0,0,0,0a.39.39,0,0,0-.35.2h0A.32.32,0,0,1,87.16,99.39Zm1.25,3.3c-.16.19-.3,0-.52,0a.22.22,0,0,0-.23.23s0,0,0,0a.29.29,0,0,1,.17-.5.25.25,0,0,0-.38,0s0,0,0,0c0-.38.3-.41.5-.24,0-.15-.06-.25-.22-.25s0,0,0,0a.26.26,0,0,1,.2-.1c.21,0,.24.27.38.27s.5-.28.53-.31a2.4,2.4,0,0,1-.17-.88s0,0,0,0a.25.25,0,0,1-.36-.26s0,0,0,0,.3,0,.39-.12.62-.88,1.32-.88a1,1,0,0,1,.52.2c-.24.29,0,.57.17.54s0,0,0,0c-.93.35-1.34.49-1.34,1.27,0,.4.14.63.37.57,0,0,0,0,0,0a.34.34,0,0,1-.26.14c-.2,0-.23-.11-.33-.11s-.46.2-.46.37,0,.15.17.24h0C88.75,102.92,88.47,103,88.41,102.69Zm2.44-7.55c-.29,0-.47,0-.47.14S90.71,95.41,90.85,95.14Zm-1.07.71a1.1,1.1,0,0,1,.45,0s0,.06,0,.06c-.43,0-.45.25-.72.25a.34.34,0,0,1-.3-.45s0,0,0,0S89.45,95.94,89.78,95.85Zm-5.54,9.47c.28.36.55,0,.92,0,.18,0,.4.06.45.43t0,0a.53.53,0,0,0-.32-.91.48.48,0,0,1,.7.07s0,0,0,0c0-.7-.52-.74-.9-.44-.07-.27.13-.45.4-.45,0,0,0,0,0,0-.47-.51-.82.12-.9.23s-.86-.22-1.13-.5a2.17,2.17,0,0,0,.6-1.19s0-.08,0-.1,0,0,0,0a.36.36,0,0,0,.21,0c.14,0,.39,0,.39-.52,0,0,0,0,0,0a.25.25,0,0,1-.21.12c-.47,0-1.47-1.59-2.64-1.59a2,2,0,0,0-1.19.54.38.38,0,0,1,.16.38.42.42,0,0,1-.35.35s0,0,0,0a11.39,11.39,0,0,1,1.92.85c.29.25.23.72.07,1.37s-.51.55-.64.53,0,0,0,0a.62.62,0,0,0,.49.26c.31,0,.43-.19.59-.19s.83.38.83.67a.53.53,0,0,1-.3.42,0,0,0,0,0,0,0C83.61,105.75,84.14,105.79,84.24,105.32Zm13,.41s0,0,0,0a.53.53,0,0,1-.3-.42c0-.29.56-.67.83-.67s.28.19.59.19a.65.65,0,0,0,.5-.26s0,0,0,0-.47.1-.64-.53-.22-1.12.07-1.37a11.77,11.77,0,0,1,1.92-.85s0,0,0,0a.42.42,0,0,1-.35-.35A.38.38,0,0,1,100,101a2,2,0,0,0-1.18-.54c-1.18,0-2.18,1.59-2.65,1.59a.25.25,0,0,1-.21-.12s0,0,0,0c0,.48.25.52.39.52a.42.42,0,0,0,.22,0s0,0,0,0v.1a2.19,2.19,0,0,0,.59,1.19c-.27.28-.94.74-1.13.5s-.43-.74-.89-.23c0,0,0,0,0,0,.27,0,.47.18.4.45-.38-.3-.9-.26-.9.44,0,0,0,0,0,0a.48.48,0,0,1,.7-.07.53.53,0,0,0-.32.91s0,0,0,0c0-.37.26-.43.44-.43.37,0,.64.34.92,0C96.57,105.79,97.09,105.75,97.22,105.73Zm-9.51-9.19c0,.06-.16,0-.21,0s0,0,0,0,.15.26.33.26a.29.29,0,0,0,.23-.1s.69.23,1,.32a1.23,1.23,0,0,0-.23.62c-.27-.17-1.38-.76-1.38-.76l-.34.47c-.06.08-.33-.12-.27-.2l.26-.36c-.09-.09-.3,0-.35,0s0,0,0,0a.37.37,0,0,1,.49-.19c0-.2-.3-.13-.38-.11s0,0,0,0a.48.48,0,0,1,.59-.13l.12-.16-.24-.25.15-.2.16.22,1.28-1.74a1.27,1.27,0,0,1,.38-.14,1.28,1.28,0,0,1,0,.4l-1.25,1.77.26.08-.15.21-.31-.15Zm4.47-.28c0,.16.1.39.31.33,0,0,0,0,0,0,0,.17-.35.34-.5.13a.47.47,0,0,0,.18.67,0,0,0,0,1,0,0,.35.35,0,0,1-.54-.13.47.47,0,0,0-.06.66,1.41,1.41,0,0,1-1.2.11,2.21,2.21,0,0,0-1.19-.38c.07-.69.42-.87,1-1s.57-.31.5-.49a1.06,1.06,0,0,0-.49.11c-.06-.09,0-.19,0-.19a.34.34,0,0,1-.05-.16c.35,0,.42-.08.42-.08.06-.37-.32-.41-.6-.21a.3.3,0,0,1-.11-.27.17.17,0,0,1-.07-.11c0-.09.42-.33.53-.35s.18-.29.62-.25a1.41,1.41,0,0,0-.08-.67s0,0,0,0,.31.46.42.47.5-.26.52-.25a4.28,4.28,0,0,1,.1.57c.07.09.45,0,.62.08s0,0,0,0a1.52,1.52,0,0,0-.59.31A1.65,1.65,0,0,1,92.18,96.26Z" transform="translate(-53.5 -47.5)"/>
    </g>
    <g>
      <path d="M123.41,92.44a3.69,3.69,0,0,1-.44,1,3.86,3.86,0,0,1-.65.8,4.23,4.23,0,0,1-.86.59,4.12,4.12,0,0,1-1,.37,4.85,4.85,0,0,1-1.09.13h-.61l-.52,0a3.59,3.59,0,0,1-.47,0l-.5-.06V95a1,1,0,0,0,.48-.29.76.76,0,0,0,.18-.58V88.47l-.72-.24V88c.18,0,.37-.06.55-.09l.54,0,.59,0c.2,0,.42,0,.65,0a5.67,5.67,0,0,1,1.65.23,3.38,3.38,0,0,1,1.26.67,2.87,2.87,0,0,1,.82,1.07,3.45,3.45,0,0,1,.29,1.47A4.51,4.51,0,0,1,123.41,92.44Zm-1.19-2.26a2.86,2.86,0,0,0-.62-.93,2.46,2.46,0,0,0-.93-.57,3.35,3.35,0,0,0-1.15-.2,4.12,4.12,0,0,0-.6,0v6.07l.29,0a1.27,1.27,0,0,0,.28,0,3.21,3.21,0,0,0,1.15-.21,2.76,2.76,0,0,0,.93-.62,2.92,2.92,0,0,0,.64-1,3.8,3.8,0,0,0,.23-1.36A3.35,3.35,0,0,0,122.22,90.18Z" transform="translate(-53.5 -47.5)"/>
      <path d="M126.44,95.2a2.44,2.44,0,0,1-.31.06l-.33,0h-.4l-.43,0a1.5,1.5,0,0,1-.44-.08V95a.77.77,0,0,0,.23-.1,1.49,1.49,0,0,0,.2-.15.47.47,0,0,0,.14-.17.45.45,0,0,0,0-.2V90.49l-.73-.31v-.24a5.43,5.43,0,0,1,.76-.16,3.78,3.78,0,0,1,.61-.06h.36l0,.63v4.37l.64.17v.22C126.63,95.14,126.54,95.18,126.44,95.2Zm-.22-7a.8.8,0,0,1-.13.22.62.62,0,0,1-.21.15.54.54,0,0,1-.25.06.74.74,0,0,1-.25,0,.77.77,0,0,1-.19-.14,1.07,1.07,0,0,1-.13-.21.75.75,0,0,1,0-.26.69.69,0,0,1,0-.25.71.71,0,0,1,.13-.22.51.51,0,0,1,.21-.15.6.6,0,0,1,.27-.06.46.46,0,0,1,.23,0,.59.59,0,0,1,.2.12.45.45,0,0,1,.12.2.51.51,0,0,1,0,.25A.68.68,0,0,1,126.22,88.24Z" transform="translate(-53.5 -47.5)"/>
      <path d="M131.88,92.53h-3.39a2.83,2.83,0,0,0,.13.86A2,2,0,0,0,129,94a1.62,1.62,0,0,0,.54.4,1.67,1.67,0,0,0,.67.14,2.15,2.15,0,0,0,.43,0,1.84,1.84,0,0,0,.42-.1,2.1,2.1,0,0,0,.42-.15c.12-.07.25-.14.35-.21a.33.33,0,0,1,0,.13,1,1,0,0,1,0,.17.59.59,0,0,1-.14.38,1.16,1.16,0,0,1-.39.32,2.36,2.36,0,0,1-.62.22,3.6,3.6,0,0,1-.83.08,2.19,2.19,0,0,1-.92-.18,2.26,2.26,0,0,1-.76-.53,2.6,2.6,0,0,1-.52-.83,3.36,3.36,0,0,1-.18-1.09,4,4,0,0,1,.21-1.34,2.81,2.81,0,0,1,.55-1,2.15,2.15,0,0,1,.76-.59,2,2,0,0,1,.88-.21,2.24,2.24,0,0,1,.84.15,1.86,1.86,0,0,1,.63.43,2.05,2.05,0,0,1,.39.68,2.77,2.77,0,0,1,.13.89v.35C131.89,92.25,131.89,92.39,131.88,92.53Zm-1-1.33a1.67,1.67,0,0,0-.24-.52.92.92,0,0,0-.37-.31,1,1,0,0,0-.46-.11.94.94,0,0,0-.47.14,1.18,1.18,0,0,0-.41.36,1.83,1.83,0,0,0-.3.53,1.73,1.73,0,0,0-.12.64H131A2.6,2.6,0,0,0,130.88,91.2Z" transform="translate(-53.5 -47.5)"/>
      <path d="M137,95.3l-.38,0a1.11,1.11,0,0,1-.36-.08V95a.56.56,0,0,0,.31-.27,1,1,0,0,0,.1-.48v-2.2a3,3,0,0,0-.08-.72,1.35,1.35,0,0,0-.24-.48.84.84,0,0,0-.36-.27,1.23,1.23,0,0,0-.47-.09,2.14,2.14,0,0,0-.67.11,1.94,1.94,0,0,0-.52.25v3.87l.65.17v.22l-.29.09-.31.06-.34,0h-.4l-.43,0a1.49,1.49,0,0,1-.43-.08V95a.62.62,0,0,0,.22-.1,1,1,0,0,0,.2-.15.61.61,0,0,0,.14-.17.35.35,0,0,0,0-.2V90.49l-.75-.31v-.25a4.7,4.7,0,0,1,.76-.16,5.28,5.28,0,0,1,.62,0h.28v.63a2.2,2.2,0,0,1,.75-.48,2.75,2.75,0,0,1,1-.17,1.76,1.76,0,0,1,.66.12,1.35,1.35,0,0,1,.5.34,1.6,1.6,0,0,1,.34.55,2.74,2.74,0,0,1,.11.79v3.22l.6.17v.22A3.45,3.45,0,0,1,137,95.3Z" transform="translate(-53.5 -47.5)"/>
      <path d="M142.41,94.33a1.82,1.82,0,0,1-.44.52,2,2,0,0,1-.68.38,2.39,2.39,0,0,1-.88.14,2,2,0,0,1-1.1-.24.77.77,0,0,1-.36-.7,2.42,2.42,0,0,1,0-.25.83.83,0,0,1,.08-.22,2.85,2.85,0,0,0,.77.54,2,2,0,0,0,.85.18,1.23,1.23,0,0,0,.74-.2.7.7,0,0,0,.19-.79.84.84,0,0,0-.16-.24,1.66,1.66,0,0,0-.31-.23,4.15,4.15,0,0,0-.47-.23l-.58-.24a1.83,1.83,0,0,1-.77-.58,1.41,1.41,0,0,1-.26-.85,1.37,1.37,0,0,1,.14-.64,1.68,1.68,0,0,1,.41-.54,1.94,1.94,0,0,1,.63-.37,2.35,2.35,0,0,1,.82-.14,2.55,2.55,0,0,1,.59.06,1.11,1.11,0,0,1,.4.14.61.61,0,0,1,.23.22.73.73,0,0,1,.07.3,1.77,1.77,0,0,1,0,.24,2,2,0,0,0-.05.24,2.31,2.31,0,0,0-.63-.31,2.1,2.1,0,0,0-.68-.13,1.65,1.65,0,0,0-.48.06,1,1,0,0,0-.34.15.9.9,0,0,0-.21.23.86.86,0,0,0,0,.27,1.14,1.14,0,0,0,0,.28.7.7,0,0,0,.15.23.89.89,0,0,0,.28.21,3,3,0,0,0,.43.19l.63.24a4.12,4.12,0,0,1,.52.27,1.58,1.58,0,0,1,.36.31,2.05,2.05,0,0,1,.2.39,2.24,2.24,0,0,1,.05.46A1.49,1.49,0,0,1,142.41,94.33Z" transform="translate(-53.5 -47.5)"/>
      <path d="M145.23,95.35a1.35,1.35,0,0,1-1-.38,1.84,1.84,0,0,1-.33-1.22c0-.28,0-.56,0-.85s0-.58,0-.84l0-1.53h-.64v-.38l1.25-1.23.38,0,0,1h1.52l-.08.62h-1.47l0,1.45c0,.24,0,.47,0,.7v.64a2.49,2.49,0,0,0,0,.59,1,1,0,0,0,.15.39.45.45,0,0,0,.22.21.53.53,0,0,0,.28.07,1.16,1.16,0,0,0,.47-.08,1.57,1.57,0,0,0,.38-.22l.12,0C146.42,95,146,95.35,145.23,95.35Z" transform="translate(-53.5 -47.5)"/>
      <path d="M155.41,88.29a.85.85,0,0,0-.2.17.53.53,0,0,0-.11.24.9.9,0,0,0,0,.31v3.45a4.06,4.06,0,0,1-.19,1.28,2.7,2.7,0,0,1-.56.9,2.4,2.4,0,0,1-.84.55,3.15,3.15,0,0,1-1,.17,2.67,2.67,0,0,1-1.91-.6,2.15,2.15,0,0,1-.65-1.67V88.44l-.73-.19V88a4.69,4.69,0,0,1,.65-.14,4.89,4.89,0,0,1,.66,0c.19,0,.38,0,.54,0a3.84,3.84,0,0,1,.55.08v.23a1.69,1.69,0,0,0-.32.11.91.91,0,0,0-.21.18,1,1,0,0,0-.11.25,1.31,1.31,0,0,0,0,.37V92.9a2.2,2.2,0,0,0,.12.71,1.39,1.39,0,0,0,.34.55,1.4,1.4,0,0,0,.53.35,2,2,0,0,0,.7.11,1.85,1.85,0,0,0,.69-.11,1.36,1.36,0,0,0,.54-.38,1.62,1.62,0,0,0,.35-.62,3.12,3.12,0,0,0,.13-.91V88.44l-.74-.19V88a4.08,4.08,0,0,1,.63-.15,3.1,3.1,0,0,1,.6,0,2.71,2.71,0,0,1,.51,0l.47.09v.22A1.61,1.61,0,0,0,155.41,88.29Z" transform="translate(-53.5 -47.5)"/>
      <path d="M158.51,95.2a2.84,2.84,0,0,1-.31.06l-.33,0h-.41l-.42,0a1.5,1.5,0,0,1-.44-.08V95a.77.77,0,0,0,.23-.1,1,1,0,0,0,.19-.15.39.39,0,0,0,.14-.17.35.35,0,0,0,.05-.2V90.49l-.74-.31v-.24a6.1,6.1,0,0,1,.76-.16,3.88,3.88,0,0,1,.61-.06h.37l-.06.63v4.37l.65.17v.22Zm-.22-7a.64.64,0,0,1-.14.22.5.5,0,0,1-.2.15.58.58,0,0,1-.26.06.69.69,0,0,1-.24,0,.52.52,0,0,1-.19-.14.74.74,0,0,1-.13-.21.58.58,0,0,1,0-.26.53.53,0,0,1,0-.25.56.56,0,0,1,.13-.22.43.43,0,0,1,.2-.15.61.61,0,0,1,.28-.06.46.46,0,0,1,.23,0,.47.47,0,0,1,.19.12.46.46,0,0,1,.13.2.51.51,0,0,1,.05.25A.68.68,0,0,1,158.29,88.24Z" transform="translate(-53.5 -47.5)"/>
      <path d="M161.48,95.35a1.35,1.35,0,0,1-1-.38,1.84,1.84,0,0,1-.33-1.22c0-.28,0-.56,0-.85s0-.58,0-.84l0-1.53h-.64v-.38l1.25-1.23.38,0,0,1h1.52l-.08.62h-1.47l0,1.45c0,.24,0,.47,0,.7v.64a2.49,2.49,0,0,0,0,.59,1,1,0,0,0,.15.39.47.47,0,0,0,.21.21.57.57,0,0,0,.29.07,1.22,1.22,0,0,0,.47-.08,1.57,1.57,0,0,0,.38-.22l.12,0C162.67,95,162.26,95.35,161.48,95.35Z" transform="translate(-53.5 -47.5)"/>
      <path d="M167.64,90.26l-2,5.08-.4,0-1.94-5-.47-.33v-.28H165V90l-.65.28,1.25,3.64h0l1.28-3.61-.67-.31v-.28H168V90Z" transform="translate(-53.5 -47.5)"/>
      <path d="M173.36,93.58a3.23,3.23,0,0,1-.6,1,2.7,2.7,0,0,1-.86.61,2.61,2.61,0,0,1-2,0,2.17,2.17,0,0,1-.81-.52,2.59,2.59,0,0,1-.54-.83,3,3,0,0,1-.19-1.12,3.9,3.9,0,0,1,.21-1.28,3.3,3.3,0,0,1,.6-1,3,3,0,0,1,.86-.62,2.45,2.45,0,0,1,1-.22,2.5,2.5,0,0,1,1,.2,2.06,2.06,0,0,1,.79.54,2.37,2.37,0,0,1,.53.83,2.75,2.75,0,0,1,.2,1.09A3.33,3.33,0,0,1,173.36,93.58Zm-1-2.08a2,2,0,0,0-.33-.66,1.66,1.66,0,0,0-.49-.4,1.25,1.25,0,0,0-1.17,0,1.31,1.31,0,0,0-.5.44,2,2,0,0,0-.36.72,3.35,3.35,0,0,0-.14,1,3,3,0,0,0,.13.91,2.1,2.1,0,0,0,.33.67,1.58,1.58,0,0,0,.5.4,1.44,1.44,0,0,0,.58.13,1.37,1.37,0,0,0,.58-.14,1.48,1.48,0,0,0,.51-.44,2.2,2.2,0,0,0,.35-.72,3.51,3.51,0,0,0,.14-1A3,3,0,0,0,172.41,91.5Z" transform="translate(-53.5 -47.5)"/>
      <path d="M178.84,92.53h-3.39a2.84,2.84,0,0,0,.12.86,2.2,2.2,0,0,0,.37.64,1.62,1.62,0,0,0,.54.4,1.67,1.67,0,0,0,.67.14,2.15,2.15,0,0,0,.43,0,2,2,0,0,0,.42-.1,2.1,2.1,0,0,0,.42-.15l.35-.21a.68.68,0,0,1,0,.13,1,1,0,0,1,0,.17.59.59,0,0,1-.14.38,1.16,1.16,0,0,1-.39.32,2.36,2.36,0,0,1-.62.22,3.6,3.6,0,0,1-.83.08,2.19,2.19,0,0,1-.92-.18,2.26,2.26,0,0,1-.76-.53,2.6,2.6,0,0,1-.52-.83,3.36,3.36,0,0,1-.18-1.09,4,4,0,0,1,.21-1.34,2.81,2.81,0,0,1,.55-1,2.15,2.15,0,0,1,.76-.59,2,2,0,0,1,.88-.21,2.24,2.24,0,0,1,.84.15,1.82,1.82,0,0,1,.62.43,1.91,1.91,0,0,1,.4.68,2.77,2.77,0,0,1,.13.89v.35C178.85,92.25,178.85,92.39,178.84,92.53Zm-1-1.33a1.67,1.67,0,0,0-.24-.52.92.92,0,0,0-.37-.31,1,1,0,0,0-.46-.11.94.94,0,0,0-.47.14,1.18,1.18,0,0,0-.41.36,1.83,1.83,0,0,0-.3.53,1.73,1.73,0,0,0-.12.64h2.46A2.6,2.6,0,0,0,177.84,91.2Z" transform="translate(-53.5 -47.5)"/>
      <path d="M183.18,90.51a1.73,1.73,0,0,1-.14.34,1.08,1.08,0,0,0-.35-.19.92.92,0,0,0-.36-.07,1.48,1.48,0,0,0-1,.47v3.66l.8.17v.22a2.63,2.63,0,0,1-.3.09,2.44,2.44,0,0,1-.31.06l-.37,0h-.45l-.48,0a1.5,1.5,0,0,1-.44-.08V95a.62.62,0,0,0,.22-.1.74.74,0,0,0,.19-.15.5.5,0,0,0,.15-.17.35.35,0,0,0,.05-.2V90.49l-.75-.31v-.25a4.7,4.7,0,0,1,.76-.16,5.28,5.28,0,0,1,.62,0h.28v.81h0l.32-.36a1.55,1.55,0,0,1,.49-.38,1.14,1.14,0,0,1,.52-.12c.41,0,.6.16.6.49A1.56,1.56,0,0,1,183.18,90.51Z" transform="translate(-53.5 -47.5)"/>
      <path d="M185.74,95.2a2.84,2.84,0,0,1-.31.06l-.33,0h-.41l-.42,0a1.5,1.5,0,0,1-.44-.08V95a.77.77,0,0,0,.23-.1,1.49,1.49,0,0,0,.2-.15.45.45,0,0,0,.13-.17.35.35,0,0,0,.05-.2V90.49l-.74-.31v-.24a6.1,6.1,0,0,1,.76-.16,4,4,0,0,1,.61-.06h.37l-.06.63v4.37l.65.17v.22Zm-.22-7a.64.64,0,0,1-.14.22.5.5,0,0,1-.2.15.55.55,0,0,1-.26.06.69.69,0,0,1-.24,0,.52.52,0,0,1-.19-.14.74.74,0,0,1-.13-.21.75.75,0,0,1-.05-.26.7.7,0,0,1,.05-.25.56.56,0,0,1,.13-.22.43.43,0,0,1,.2-.15.64.64,0,0,1,.28-.06.46.46,0,0,1,.23,0,.59.59,0,0,1,.2.12.56.56,0,0,1,.12.2.51.51,0,0,1,0,.25A.68.68,0,0,1,185.52,88.24Z" transform="translate(-53.5 -47.5)"/>
      <path d="M191.09,95.3l-.38,0a1.11,1.11,0,0,1-.36-.08V95a.56.56,0,0,0,.31-.27,1,1,0,0,0,.1-.48v-2.2a3,3,0,0,0-.08-.72,1.35,1.35,0,0,0-.24-.48.78.78,0,0,0-.36-.27,1.23,1.23,0,0,0-.47-.09,2.14,2.14,0,0,0-.67.11,1.73,1.73,0,0,0-.51.25v3.87l.64.17v.22l-.29.09-.31.06-.34,0h-.4l-.43,0a1.49,1.49,0,0,1-.43-.08V95a.62.62,0,0,0,.22-.1,1,1,0,0,0,.2-.15.86.86,0,0,0,.15-.17.45.45,0,0,0,0-.2V90.49l-.75-.31v-.25a4.7,4.7,0,0,1,.76-.16,5.28,5.28,0,0,1,.62,0h.28v.63a2.2,2.2,0,0,1,.75-.48,2.75,2.75,0,0,1,1-.17,1.73,1.73,0,0,1,.66.12,1.35,1.35,0,0,1,.5.34,1.6,1.6,0,0,1,.34.55,2.74,2.74,0,0,1,.11.79v3.22l.6.17v.22A3.45,3.45,0,0,1,191.09,95.3Z" transform="translate(-53.5 -47.5)"/>
      <path d="M198.1,90.47a5.21,5.21,0,0,0-.59-.09c-.21,0-.41,0-.64,0h0a1.87,1.87,0,0,1,.47.55,2.44,2.44,0,0,1,.14.34,2.47,2.47,0,0,1,0,.36,2.28,2.28,0,0,1-.19.91,2.19,2.19,0,0,1-.51.71,2.3,2.3,0,0,1-.75.46,2.48,2.48,0,0,1-1.26.13,1.69,1.69,0,0,1-.34-.1.28.28,0,0,0-.12.1.6.6,0,0,0-.13.14.53.53,0,0,0-.08.15.41.41,0,0,0,0,.16.43.43,0,0,0,.19.39,1,1,0,0,0,.54.14h1.61a1.66,1.66,0,0,1,1.12.31,1.21,1.21,0,0,1,.39,1,1.52,1.52,0,0,1-.22.79,2,2,0,0,1-.59.63,3.15,3.15,0,0,1-.88.44,4,4,0,0,1-1.12.16,3.82,3.82,0,0,1-1-.11,2,2,0,0,1-.69-.28,1.32,1.32,0,0,1-.42-.43,1.07,1.07,0,0,1-.13-.53,1.11,1.11,0,0,1,.08-.44,1.29,1.29,0,0,1,.23-.36,1.58,1.58,0,0,1,.34-.29,2.17,2.17,0,0,1,.44-.19h0a1.06,1.06,0,0,1-.5-.34.87.87,0,0,1-.18-.55.75.75,0,0,1,.07-.33.83.83,0,0,1,.17-.3,1.48,1.48,0,0,1,.25-.25,1.3,1.3,0,0,1,.31-.16h0a1.68,1.68,0,0,1-.38-.23,1.38,1.38,0,0,1-.33-.35,2.06,2.06,0,0,1-.23-.47,1.63,1.63,0,0,1-.09-.55,2.25,2.25,0,0,1,.67-1.62,2.29,2.29,0,0,1,.73-.49,2.43,2.43,0,0,1,.89-.17,1.67,1.67,0,0,1,.37,0,2,2,0,0,1,.35.09,1.85,1.85,0,0,1,.31.11.83.83,0,0,1,.21.14l.2-.14.25-.11a1.29,1.29,0,0,1,.28-.08,1,1,0,0,1,.28,0,1.2,1.2,0,0,1,.28,0l.22,0Zm-1.2,5.34a.93.93,0,0,0-.63-.18h-1.85a.83.83,0,0,0-.23.15A1,1,0,0,0,194,96a.93.93,0,0,0-.12.27.71.71,0,0,0,0,.29.63.63,0,0,0,.09.33.69.69,0,0,0,.28.28,1.3,1.3,0,0,0,.46.19,2.46,2.46,0,0,0,.64.07,2.91,2.91,0,0,0,.75-.09,3.49,3.49,0,0,0,.58-.24,1.23,1.23,0,0,0,.36-.36.76.76,0,0,0,.13-.4A.65.65,0,0,0,196.9,95.81Zm-.48-4.8a1.43,1.43,0,0,0-.26-.45,1.19,1.19,0,0,0-.36-.26,1.11,1.11,0,0,0-.44-.08,1,1,0,0,0-.47.11,1.18,1.18,0,0,0-.38.33,2,2,0,0,0-.27.5,2.87,2.87,0,0,0-.09.68,2.27,2.27,0,0,0,.09.63,1.08,1.08,0,0,0,.25.45,1.1,1.1,0,0,0,.35.27,1.27,1.27,0,0,0,.42.09,1.58,1.58,0,0,0,.49-.09,1,1,0,0,0,.39-.3,1.35,1.35,0,0,0,.27-.52,2.28,2.28,0,0,0,.1-.72A2.06,2.06,0,0,0,196.42,91Z" transform="translate(-53.5 -47.5)"/>
      <path d="M207.11,93a4,4,0,0,1-.74,1.31,3.37,3.37,0,0,1-1.11.82,3.17,3.17,0,0,1-1.32.29,2.66,2.66,0,0,1-1.19-.26,2.77,2.77,0,0,1-1-.72,3.31,3.31,0,0,1-.66-1.15,4.55,4.55,0,0,1-.24-1.53,5.09,5.09,0,0,1,.12-1.13,5.39,5.39,0,0,1,.37-1,3.55,3.55,0,0,1,.57-.79,4,4,0,0,1,.72-.59,3.13,3.13,0,0,1,1.69-.51,3,3,0,0,1,1.19.25,2.57,2.57,0,0,1,1,.69,3.21,3.21,0,0,1,.66,1.09,4.1,4.1,0,0,1,.24,1.44A4.94,4.94,0,0,1,207.11,93Zm-1-2.88a2.87,2.87,0,0,0-.45-.91,1.73,1.73,0,0,0-1.42-.71,1.72,1.72,0,0,0-.82.21,2.08,2.08,0,0,0-.7.6,3.06,3.06,0,0,0-.51,1A4.94,4.94,0,0,0,202,91.6a4.78,4.78,0,0,0,.17,1.33,3,3,0,0,0,.46,1,1.81,1.81,0,0,0,.64.57,1.52,1.52,0,0,0,.76.2,1.71,1.71,0,0,0,.82-.2,1.94,1.94,0,0,0,.71-.58,3.25,3.25,0,0,0,.51-1,4.83,4.83,0,0,0,.18-1.45A4.29,4.29,0,0,0,206.1,90.1Z" transform="translate(-53.5 -47.5)"/>
      <path d="M212.6,95.3l-.38,0a1.17,1.17,0,0,1-.37-.08V95a.56.56,0,0,0,.31-.27,1,1,0,0,0,.11-.48v-2.2a2.94,2.94,0,0,0-.09-.72,1.09,1.09,0,0,0-.24-.48.81.81,0,0,0-.35-.27,1.23,1.23,0,0,0-.47-.09,2.09,2.09,0,0,0-.67.11,1.94,1.94,0,0,0-.52.25v3.87l.64.17v.22l-.28.09-.31.06-.35,0h-.39l-.44,0a1.36,1.36,0,0,1-.42-.08V95a.62.62,0,0,0,.22-.1,1,1,0,0,0,.19-.15.63.63,0,0,0,.15-.17.46.46,0,0,0,.05-.2V90.49l-.75-.31v-.25a4.49,4.49,0,0,1,.76-.16,5.28,5.28,0,0,1,.62,0h.28v.63a2.06,2.06,0,0,1,.74-.48,2.77,2.77,0,0,1,1-.17,1.67,1.67,0,0,1,.65.12,1.39,1.39,0,0,1,.51.34,1.58,1.58,0,0,1,.33.55,2.73,2.73,0,0,1,.12.79v3.22l.6.17v.22A3.49,3.49,0,0,1,212.6,95.3Z" transform="translate(-53.5 -47.5)"/>
      <path d="M219.15,95.13a4.09,4.09,0,0,1-.43.25,1.62,1.62,0,0,1-.32-.32,1.94,1.94,0,0,1-.24-.37,1.43,1.43,0,0,1-.32.27,2.22,2.22,0,0,1-.37.21,2.67,2.67,0,0,1-.4.13,1.33,1.33,0,0,1-.38,0,2,2,0,0,1-.81-.17,2.07,2.07,0,0,1-.67-.5,2.43,2.43,0,0,1-.45-.79,3.39,3.39,0,0,1-.16-1,3.9,3.9,0,0,1,.22-1.37,3,3,0,0,1,.59-1,2.56,2.56,0,0,1,.88-.62,2.67,2.67,0,0,1,1.06-.21c.14,0,.27,0,.42,0a1.58,1.58,0,0,1,.37.06v-2l-.78-.31v-.25a4.51,4.51,0,0,1,.78-.16,6.09,6.09,0,0,1,.65,0h.36l-.06.64v6.6a1.8,1.8,0,0,0,.17.34,1.14,1.14,0,0,0,.26.32A2.63,2.63,0,0,1,219.15,95.13Zm-1-4.7a2.84,2.84,0,0,0-.38-.1,3.44,3.44,0,0,0-.46,0,1.57,1.57,0,0,0-.68.15,1.51,1.51,0,0,0-.55.44,2.16,2.16,0,0,0-.35.73,4.07,4.07,0,0,0-.13,1,2.65,2.65,0,0,0,.11.83,2,2,0,0,0,.32.61,1.17,1.17,0,0,0,.43.37,1,1,0,0,0,.52.12l.33,0,.33-.08a2.36,2.36,0,0,0,.28-.12.76.76,0,0,0,.23-.15Z" transform="translate(-53.5 -47.5)"/>
      <path d="M224.79,92.53H221.4a2.84,2.84,0,0,0,.12.86,2,2,0,0,0,.37.64,1.52,1.52,0,0,0,.54.4,1.67,1.67,0,0,0,.67.14,3.23,3.23,0,0,0,.85-.14,1.82,1.82,0,0,0,.41-.15,3.82,3.82,0,0,0,.36-.21.86.86,0,0,1,0,.13.5.5,0,0,1,0,.17.59.59,0,0,1-.14.38,1.16,1.16,0,0,1-.39.32,2.5,2.5,0,0,1-.62.22,3.65,3.65,0,0,1-.83.08,2.13,2.13,0,0,1-.92-.18,2.26,2.26,0,0,1-.76-.53,2.6,2.6,0,0,1-.52-.83,3.12,3.12,0,0,1-.18-1.09,4,4,0,0,1,.2-1.34,3.18,3.18,0,0,1,.55-1,2.24,2.24,0,0,1,.76-.59,2,2,0,0,1,.89-.21,2.24,2.24,0,0,1,.84.15,1.82,1.82,0,0,1,.62.43,1.89,1.89,0,0,1,.39.68,2.77,2.77,0,0,1,.14.89v.35C224.8,92.25,224.8,92.39,224.79,92.53Zm-1-1.33a1.67,1.67,0,0,0-.24-.52,1,1,0,0,0-.37-.31,1,1,0,0,0-.46-.11.94.94,0,0,0-.47.14,1.3,1.3,0,0,0-.42.36,2.09,2.09,0,0,0-.3.53,1.72,1.72,0,0,0-.11.64h2.46A2.6,2.6,0,0,0,223.79,91.2Z" transform="translate(-53.5 -47.5)"/>
      <path d="M229.12,90.51a1.71,1.71,0,0,1-.13.34,1.19,1.19,0,0,0-.35-.19,1,1,0,0,0-.37-.07,1.46,1.46,0,0,0-1,.47v3.66l.79.17v.22a3.14,3.14,0,0,1-.61.15l-.36,0h-.45l-.49,0a1.37,1.37,0,0,1-.43-.08V95a.62.62,0,0,0,.22-.1,1,1,0,0,0,.19-.15.63.63,0,0,0,.15-.17.46.46,0,0,0,0-.2V90.49l-.75-.31v-.25a4.49,4.49,0,0,1,.76-.16,5.28,5.28,0,0,1,.62,0h.28v.81h0l.32-.36a1.64,1.64,0,0,1,.48-.38,1.18,1.18,0,0,1,.53-.12c.4,0,.6.16.6.49A1.18,1.18,0,0,1,229.12,90.51Z" transform="translate(-53.5 -47.5)"/>
      <path d="M237,90.25l-1.94,5.09-.48,0-1.27-4.23h0L232,95.34l-.52,0-1.71-5-.5-.35v-.28h2.22V90l-.65.28,1,3.69h0L233,90.3l-.63-.3v-.28h2V90l-.33.25L235,94h0l1.18-3.65-.66-.31v-.28h1.78V90Z" transform="translate(-53.5 -47.5)"/>
      <path d="M239.7,95.2a2.44,2.44,0,0,1-.31.06l-.33,0h-.4l-.43,0a1.5,1.5,0,0,1-.44-.08V95a.77.77,0,0,0,.23-.1,1.49,1.49,0,0,0,.2-.15.47.47,0,0,0,.14-.17.45.45,0,0,0,0-.2V90.49l-.73-.31v-.24a5.43,5.43,0,0,1,.76-.16,3.78,3.78,0,0,1,.61-.06h.36l-.05.63v4.37l.64.17v.22Zm-.22-7a.8.8,0,0,1-.13.22.62.62,0,0,1-.21.15.54.54,0,0,1-.25.06.74.74,0,0,1-.25,0,.77.77,0,0,1-.19-.14,1.07,1.07,0,0,1-.13-.21.75.75,0,0,1,0-.26.69.69,0,0,1,0-.25.56.56,0,0,1,.13-.22.51.51,0,0,1,.21-.15.6.6,0,0,1,.27-.06.46.46,0,0,1,.23,0,.59.59,0,0,1,.2.12.56.56,0,0,1,.12.2.51.51,0,0,1,.05.25A.68.68,0,0,1,239.48,88.24Z" transform="translate(-53.5 -47.5)"/>
      <path d="M242.38,90.37v5.16a5.6,5.6,0,0,1-.11,1.19,2.9,2.9,0,0,1-.27.76,1.09,1.09,0,0,1-.42.41,1.11,1.11,0,0,1-.5.12,1.06,1.06,0,0,1-.37-.07.78.78,0,0,1-.29-.21v-.18a.79.79,0,0,0,.38-.11,1.12,1.12,0,0,0,.32-.33,1.86,1.86,0,0,0,.22-.55,2.88,2.88,0,0,0,.09-.76V90.49l-.73-.31v-.24a5.43,5.43,0,0,1,.76-.16,3.77,3.77,0,0,1,.6-.06h.38Zm.12-2.13a.78.78,0,0,1-.12.22.74.74,0,0,1-.21.15.55.55,0,0,1-.26.06.6.6,0,0,1-.24,0,.52.52,0,0,1-.19-.14.57.57,0,0,1-.13-.21.75.75,0,0,1,0-.26,1,1,0,0,1,0-.25,1,1,0,0,1,.14-.22.45.45,0,0,1,.21-.15.6.6,0,0,1,.27-.06.44.44,0,0,1,.22,0,.51.51,0,0,1,.2.12.56.56,0,0,1,.12.2.51.51,0,0,1,.05.25A.68.68,0,0,1,242.5,88.24Z" transform="translate(-53.5 -47.5)"/>
      <path d="M247.08,94.33a1.55,1.55,0,0,1-.44.52,1.8,1.8,0,0,1-.68.38,2.37,2.37,0,0,1-.87.14,2,2,0,0,1-1.1-.24.75.75,0,0,1-.36-.7,2.29,2.29,0,0,1,0-.25,1.43,1.43,0,0,1,.08-.22,3.19,3.19,0,0,0,.77.54,2,2,0,0,0,.85.18,1.19,1.19,0,0,0,.74-.2.64.64,0,0,0,.24-.51.82.82,0,0,0,0-.28,1.67,1.67,0,0,0-.16-.24,2.21,2.21,0,0,0-.32-.23,3,3,0,0,0-.47-.23l-.57-.24a1.71,1.71,0,0,1-.77-.58,1.35,1.35,0,0,1-.27-.85,1.5,1.5,0,0,1,.14-.64,1.58,1.58,0,0,1,.42-.54,1.84,1.84,0,0,1,.63-.37,2.33,2.33,0,0,1,.81-.14,2.49,2.49,0,0,1,.59.06,1,1,0,0,1,.4.14.49.49,0,0,1,.23.22.6.6,0,0,1,.07.3,1.77,1.77,0,0,1,0,.24c0,.08,0,.16,0,.24a2.53,2.53,0,0,0-.64-.31,2.1,2.1,0,0,0-.68-.13,1.75,1.75,0,0,0-.48.06.92.92,0,0,0-.33.15.9.9,0,0,0-.21.23.88.88,0,0,0-.06.27.79.79,0,0,0,0,.28.57.57,0,0,0,.15.23,1,1,0,0,0,.27.21,3.85,3.85,0,0,0,.44.19l.62.24a4.32,4.32,0,0,1,.53.27,1.83,1.83,0,0,1,.36.31,1.56,1.56,0,0,1,.19.39,1.7,1.7,0,0,1,.06.46A1.51,1.51,0,0,1,247.08,94.33Z" transform="translate(-53.5 -47.5)"/>
      <path d="M118.21,108.26a3.79,3.79,0,0,1-.49,0,3,3,0,0,1-.42,0l-.38-.08V108a.78.78,0,0,0,.26-.17.59.59,0,0,0,.15-.27l1.44-6.15-.63-.14V101l.27,0,.31,0a1.73,1.73,0,0,1,.32,0h.67l1,5.48h0l1.9-5.48h.53l.3,0,.29,0,.27.05v.27l-.54.14.27,6.38.63.17v.23a3.78,3.78,0,0,1-.47.13,2.35,2.35,0,0,1-.47,0l-.59,0a2.72,2.72,0,0,1-.43-.09V108a.49.49,0,0,0,.26-.21.59.59,0,0,0,.1-.39l-.07-5.09h0l-2.09,6-.35,0-1.13-6h0l-1.1,5.42.65.18v.23A2.38,2.38,0,0,1,118.21,108.26Z" transform="translate(-53.5 -47.5)"/>
      <path d="M125.32,108.17a.56.56,0,0,1-.14-.4c0-.08,0-.18,0-.31s0-.25,0-.39a2.65,2.65,0,0,1,.06-.42,3.63,3.63,0,0,1,0-.39l.37-2.34.06-.68-.69-.22v-.22a3.56,3.56,0,0,1,.56-.15,3.73,3.73,0,0,1,.59,0h.27a.66.66,0,0,1,.25.06l-.52,3.38c0,.08,0,.18,0,.3l0,.33a3,3,0,0,1,0,.32v.28a.72.72,0,0,0,.1.43.8.8,0,0,0,.36.23v.19a1.94,1.94,0,0,1-.39.12,2.33,2.33,0,0,1-.48,0A.56.56,0,0,1,125.32,108.17Zm1.69-7.11a.68.68,0,0,1-.14.23.6.6,0,0,1-.2.14.57.57,0,0,1-.25.06.47.47,0,0,1-.38-.15.52.52,0,0,1-.14-.4,1,1,0,0,1,0-.28.87.87,0,0,1,.15-.21,1.06,1.06,0,0,1,.2-.17.7.7,0,0,1,.25,0,.49.49,0,0,1,.38.16.57.57,0,0,1,.15.39A.71.71,0,0,1,127,101.06Z" transform="translate(-53.5 -47.5)"/>
      <path d="M131.84,104c0,.12,0,.25-.05.37s0,.26-.06.39,0,.26-.06.38l-.2,1.25c0,.06,0,.13,0,.23l0,.25a2.29,2.29,0,0,0,0,.25,1.86,1.86,0,0,0,0,.22.56.56,0,0,0,.13.42.82.82,0,0,0,.41.18v.19a2,2,0,0,1-.43.17,2.46,2.46,0,0,1-.49,0,.57.57,0,0,1-.42-.13.52.52,0,0,1-.15-.4c0-.06,0-.16,0-.26s0-.21,0-.31,0-.23,0-.33,0-.22,0-.32l.22-1.32c0-.09,0-.18,0-.29a2.91,2.91,0,0,0,0-.31c0-.1,0-.2,0-.3a2.35,2.35,0,0,0,0-.26,1.45,1.45,0,0,0,0-.32.91.91,0,0,0-.12-.22.48.48,0,0,0-.16-.12.54.54,0,0,0-.19,0,.83.83,0,0,0-.52.22,2.12,2.12,0,0,0-.51.61,3.47,3.47,0,0,0-.4.91,4.12,4.12,0,0,0-.18,1.14l-.07,1.94h-1l.57-5-.7-.22v-.22a4.12,4.12,0,0,1,.55-.15,3.65,3.65,0,0,1,.59,0l.23,0a.71.71,0,0,1,.24.06l-.36,1.76h0a3.85,3.85,0,0,1,.43-.78,3.8,3.8,0,0,1,.51-.59,2.13,2.13,0,0,1,.55-.37,1.47,1.47,0,0,1,.58-.12,1,1,0,0,1,.35.06.88.88,0,0,1,.29.2,1.21,1.21,0,0,1,.2.33,1.59,1.59,0,0,1,.07.46C131.85,103.74,131.85,103.84,131.84,104Z" transform="translate(-53.5 -47.5)"/>
      <path d="M133.14,108.17a.56.56,0,0,1-.14-.4c0-.08,0-.18,0-.31a3,3,0,0,1,.05-.39,2.65,2.65,0,0,1,.06-.42,3.63,3.63,0,0,1,0-.39l.37-2.34.06-.68-.69-.22v-.22a3.29,3.29,0,0,1,.56-.15,3.65,3.65,0,0,1,.59,0h.27a.65.65,0,0,1,.24.06l-.51,3.38c0,.08,0,.18,0,.3l0,.33a3,3,0,0,1,0,.32v.28a.72.72,0,0,0,.1.43.77.77,0,0,0,.35.23v.19a1.61,1.61,0,0,1-.39.12,2.17,2.17,0,0,1-.47,0A.56.56,0,0,1,133.14,108.17Zm1.69-7.11a.88.88,0,0,1-.14.23.77.77,0,0,1-.21.14.53.53,0,0,1-.24.06.47.47,0,0,1-.38-.15.52.52,0,0,1-.15-.4,1,1,0,0,1,0-.28.87.87,0,0,1,.15-.21,1.45,1.45,0,0,1,.19-.17.8.8,0,0,1,.26,0,.51.51,0,0,1,.38.16.57.57,0,0,1,.15.39A.94.94,0,0,1,134.83,101.06Z" transform="translate(-53.5 -47.5)"/>
      <path d="M138.48,103.52a1.13,1.13,0,0,1-.15.27,1.94,1.94,0,0,0-.6-.41,1.61,1.61,0,0,0-.65-.15.85.85,0,0,0-.59.18.61.61,0,0,0-.2.46.85.85,0,0,0,0,.23,1.07,1.07,0,0,0,.1.22l.22.27.36.33.44.39.35.35a2,2,0,0,1,.22.32,1.37,1.37,0,0,1,.13.31,2,2,0,0,1,0,.36,1.22,1.22,0,0,1-.16.64,1.56,1.56,0,0,1-.45.55,2.21,2.21,0,0,1-.68.37,2.47,2.47,0,0,1-.84.14,1.61,1.61,0,0,1-.79-.16.59.59,0,0,1-.25-.5.67.67,0,0,1,.05-.26.71.71,0,0,1,.13-.22,1.62,1.62,0,0,0,.52.36,1.5,1.5,0,0,0,.6.12,1.58,1.58,0,0,0,.38,0,1.37,1.37,0,0,0,.32-.16.72.72,0,0,0,.21-.25.84.84,0,0,0,.08-.33,1.09,1.09,0,0,0,0-.26.85.85,0,0,0-.11-.26,1.74,1.74,0,0,0-.22-.27,3.83,3.83,0,0,0-.35-.35l-.41-.37c-.13-.12-.23-.23-.32-.33a1.13,1.13,0,0,1-.21-.31,1.51,1.51,0,0,1-.12-.31,1.9,1.9,0,0,1,0-.35,1.25,1.25,0,0,1,.14-.56,1.6,1.6,0,0,1,.35-.48,2.18,2.18,0,0,1,.57-.35,2.15,2.15,0,0,1,.73-.13,1.93,1.93,0,0,1,.94.18.5.5,0,0,1,.32.44A1,1,0,0,1,138.48,103.52Z" transform="translate(-53.5 -47.5)"/>
      <path d="M141.67,103.23a1.33,1.33,0,0,1-.77.17h-.32l-.2,1.2c0,.14,0,.3-.08.47s0,.36-.07.54,0,.37,0,.53a2.33,2.33,0,0,0,0,.43,1.75,1.75,0,0,0,.07.49.82.82,0,0,0,.19.33.66.66,0,0,0,.27.21,1.09,1.09,0,0,0,.36.06.9.9,0,0,0,.24,0l.23-.06v.21a.54.54,0,0,1-.13.19,1.07,1.07,0,0,1-.55.31,1.13,1.13,0,0,1-.38,0,1,1,0,0,1-.87-.37,1.66,1.66,0,0,1-.29-1c0-.17,0-.38,0-.61s.05-.47.08-.72.07-.5.11-.75.09-.49.14-.71l.15-.74h-.34l-.31,0v-.15a4.38,4.38,0,0,1,.69-.75,4.74,4.74,0,0,1,.86-.63h.18l-.2.94H141l.44,0,.44-.06A.63.63,0,0,1,141.67,103.23Z" transform="translate(-53.5 -47.5)"/>
      <path d="M145.34,107.19a.29.29,0,0,1,0,.17.73.73,0,0,1-.13.39,1.12,1.12,0,0,1-.36.32,2,2,0,0,1-.53.22,2.27,2.27,0,0,1-.65.08,1.81,1.81,0,0,1-.67-.11,1.38,1.38,0,0,1-.52-.37,1.88,1.88,0,0,1-.33-.63,2.9,2.9,0,0,1-.12-.89,5.61,5.61,0,0,1,.22-1.68,4.32,4.32,0,0,1,.57-1.2,2.55,2.55,0,0,1,.78-.7,1.81,1.81,0,0,1,.85-.23,1.24,1.24,0,0,1,.91.3,1.18,1.18,0,0,1,.32.89,1.77,1.77,0,0,1-.24.91,2.4,2.4,0,0,1-.62.69,2.94,2.94,0,0,1-.89.43,3.11,3.11,0,0,1-1,.15,4.24,4.24,0,0,0,.07.87,1.5,1.5,0,0,0,.2.53.73.73,0,0,0,.32.26,1.18,1.18,0,0,0,.45.07,1.06,1.06,0,0,0,.33,0,1.34,1.34,0,0,0,.36-.11,3.37,3.37,0,0,0,.32-.19,1.25,1.25,0,0,0,.23-.23A.52.52,0,0,1,145.34,107.19Zm-.69-3.81a.46.46,0,0,0-.39-.17.65.65,0,0,0-.42.16,1.84,1.84,0,0,0-.39.43,2.92,2.92,0,0,0-.31.71,3.06,3.06,0,0,0-.11.89,2.34,2.34,0,0,0,.71-.1,1.65,1.65,0,0,0,.56-.29,1.2,1.2,0,0,0,.37-.46,1.32,1.32,0,0,0,.13-.6A.85.85,0,0,0,144.65,103.38Z" transform="translate(-53.5 -47.5)"/>
      <path d="M146.22,102.8a4.44,4.44,0,0,1,.54-.15,3.69,3.69,0,0,1,.58,0l.24,0a.61.61,0,0,1,.24.06l-.34,1.67h0l.61-1a2.15,2.15,0,0,1,.46-.54.83.83,0,0,1,.5-.18.35.35,0,0,1,.29.11.49.49,0,0,1,.09.32,1.5,1.5,0,0,1,0,.29,1.32,1.32,0,0,1-.09.3l-.17,0H149a1.12,1.12,0,0,0-.54.16,1.38,1.38,0,0,0-.47.51,3.1,3.1,0,0,0-.36.89,7.89,7.89,0,0,0-.18,1.36l-.09,1.68h-1l.56-5-.7-.22Z" transform="translate(-53.5 -47.5)"/>
      <path d="M149.92,108.17a.55.55,0,0,1-.13-.4c0-.08,0-.18,0-.31s0-.25,0-.39,0-.29.06-.42a2.06,2.06,0,0,1,0-.39l.36-2.34.06-.68-.69-.22v-.22a3.68,3.68,0,0,1,.57-.15,3.6,3.6,0,0,1,.58,0h.28a.65.65,0,0,1,.24.06l-.52,3.38q0,.12,0,.3c0,.11,0,.22,0,.33a3,3,0,0,1,0,.32v.28a.58.58,0,0,0,.46.66v.19a1.76,1.76,0,0,1-.39.12,2.29,2.29,0,0,1-.47,0A.59.59,0,0,1,149.92,108.17Zm1.7-7.11a1.28,1.28,0,0,1-.14.23.77.77,0,0,1-.21.14.53.53,0,0,1-.24.06.46.46,0,0,1-.38-.15.49.49,0,0,1-.15-.4,1,1,0,0,1,0-.28,1.27,1.27,0,0,1,.15-.21,1.06,1.06,0,0,1,.2-.17.7.7,0,0,1,.25,0,.49.49,0,0,1,.38.16.53.53,0,0,1,.15.39A.92.92,0,0,1,151.62,101.06Z" transform="translate(-53.5 -47.5)"/>
      <path d="M155.41,107.19a.23.23,0,0,1,.05.17.73.73,0,0,1-.13.39,1.12,1.12,0,0,1-.36.32,2,2,0,0,1-.53.22,2.27,2.27,0,0,1-.65.08,1.81,1.81,0,0,1-.67-.11,1.38,1.38,0,0,1-.52-.37,2.08,2.08,0,0,1-.33-.63,2.9,2.9,0,0,1-.12-.89,5.61,5.61,0,0,1,.22-1.68,4.32,4.32,0,0,1,.57-1.2,2.55,2.55,0,0,1,.78-.7,1.81,1.81,0,0,1,.85-.23,1.24,1.24,0,0,1,.91.3,1.18,1.18,0,0,1,.32.89,1.77,1.77,0,0,1-.24.91,2.4,2.4,0,0,1-.62.69,2.94,2.94,0,0,1-.89.43,3.07,3.07,0,0,1-1,.15,5.09,5.09,0,0,0,.07.87,1.5,1.5,0,0,0,.2.53.73.73,0,0,0,.32.26,1.22,1.22,0,0,0,.45.07,1.06,1.06,0,0,0,.33,0,1.24,1.24,0,0,0,.36-.11,3.37,3.37,0,0,0,.32-.19,1.25,1.25,0,0,0,.23-.23A.52.52,0,0,1,155.41,107.19Zm-.69-3.81a.46.46,0,0,0-.39-.17.65.65,0,0,0-.42.16,1.84,1.84,0,0,0-.39.43,2.92,2.92,0,0,0-.31.71,3.06,3.06,0,0,0-.11.89,2.34,2.34,0,0,0,.71-.1,1.8,1.8,0,0,0,.57-.29,1.18,1.18,0,0,0,.36-.46,1.2,1.2,0,0,0,.13-.6A.85.85,0,0,0,154.72,103.38Z" transform="translate(-53.5 -47.5)"/>
      <path d="M159.6,107.38a5.58,5.58,0,0,0,.57-.86,7.28,7.28,0,0,0,.46-1,6.14,6.14,0,0,0,.3-1,3.94,3.94,0,0,0,.11-.94.56.56,0,0,0-.11-.38.73.73,0,0,0-.31-.26v-.18a1.53,1.53,0,0,1,.32-.13,1.61,1.61,0,0,1,.39,0,.61.61,0,0,1,.45.16.65.65,0,0,1,.17.53,3,3,0,0,1-.08.68c-.07.26-.15.54-.25.82a7.2,7.2,0,0,1-.37.88,8,8,0,0,1-.46.87,8.42,8.42,0,0,1-.52.8,4.35,4.35,0,0,1-.55.63,2.63,2.63,0,0,1-.31.24,1.53,1.53,0,0,1-.3.19h-.23l-.47-5.18-.49-.2v-.24a3.05,3.05,0,0,1,.48-.14,3.44,3.44,0,0,1,.46,0,1.49,1.49,0,0,1,.47.07l.25,4.7Z" transform="translate(-53.5 -47.5)"/>
      <path d="M166,105.31c0,.2,0,.4-.08.6s0,.4-.06.59,0,.33,0,.46,0,.33,0,.45a1.18,1.18,0,0,0,.1.27.33.33,0,0,0,.17.14.89.89,0,0,0,.26.07v.24a3.51,3.51,0,0,1-.49.13,4.73,4.73,0,0,1-.53,0l-.25,0a.86.86,0,0,1-.23-.06l.26-1.71h0a5.52,5.52,0,0,1-.38.77,3.66,3.66,0,0,1-.46.59,1.9,1.9,0,0,1-.47.36,1.09,1.09,0,0,1-.49.13.66.66,0,0,1-.37-.13,1.12,1.12,0,0,1-.35-.39,2.69,2.69,0,0,1-.23-.63,3.79,3.79,0,0,1-.08-.87,4.88,4.88,0,0,1,.23-1.59,3.81,3.81,0,0,1,.64-1.18,2.72,2.72,0,0,1,.92-.72,2.59,2.59,0,0,1,1.13-.25h.3l.33,0,.34.06a2.64,2.64,0,0,1,.3.07l-.39,2C166.11,104.94,166.08,105.12,166,105.31Zm-.78-2.06H165a1.24,1.24,0,0,0-.67.19,1.52,1.52,0,0,0-.55.55,3.89,3.89,0,0,0-.38.91,5.39,5.39,0,0,0-.14,1.28,3.67,3.67,0,0,0,.06.64,2.48,2.48,0,0,0,.13.43.86.86,0,0,0,.19.25.37.37,0,0,0,.21.08.69.69,0,0,0,.39-.15,1.33,1.33,0,0,0,.4-.44,3,3,0,0,0,.36-.72,5.39,5.39,0,0,0,.28-1l.31-1.91A1.62,1.62,0,0,0,165.26,103.25Z" transform="translate(-53.5 -47.5)"/>
      <path d="M171.52,104c0,.12,0,.25-.05.37s-.05.26-.06.39,0,.26,0,.38l-.21,1.25c0,.06,0,.13,0,.23a1.87,1.87,0,0,0,0,.25,2.29,2.29,0,0,0,0,.25,1.86,1.86,0,0,0,0,.22.56.56,0,0,0,.13.42.82.82,0,0,0,.41.18v.19a2,2,0,0,1-.43.17,2.46,2.46,0,0,1-.49,0,.57.57,0,0,1-.42-.13.52.52,0,0,1-.15-.4c0-.06,0-.16,0-.26a2.91,2.91,0,0,0,0-.31,2.88,2.88,0,0,1,.05-.33c0-.12,0-.22,0-.32l.22-1.32a1.77,1.77,0,0,1,.05-.29l0-.31c0-.1,0-.2,0-.3a1.18,1.18,0,0,0,0-.26,1.39,1.39,0,0,0,0-.32.9.9,0,0,0-.11-.22.66.66,0,0,0-.17-.12.54.54,0,0,0-.19,0,.85.85,0,0,0-.52.22,2,2,0,0,0-.5.61,3.48,3.48,0,0,0-.41.91,4.12,4.12,0,0,0-.18,1.14l-.07,1.94h-1l.58-5-.71-.22v-.22a3.87,3.87,0,0,1,.56-.15,3.52,3.52,0,0,1,.58,0l.23,0a.82.82,0,0,1,.25.06l-.37,1.76h0a3.87,3.87,0,0,1,.44-.78,3.3,3.3,0,0,1,.5-.59,2.13,2.13,0,0,1,.55-.37,1.47,1.47,0,0,1,.58-.12,1,1,0,0,1,.36.06,1,1,0,0,1,.28.2,1.21,1.21,0,0,1,.2.33,1.31,1.31,0,0,1,.07.46C171.53,103.74,171.53,103.84,171.52,104Z" transform="translate(-53.5 -47.5)"/>
      <path d="M179.77,104.91a5.75,5.75,0,0,1-.38,1.29,3.95,3.95,0,0,1-1.27,1.68,3.09,3.09,0,0,1-.81.41,2.63,2.63,0,0,1-.83.14,2,2,0,0,1-.8-.17,2,2,0,0,1-.66-.51,2.79,2.79,0,0,1-.45-.84,4,4,0,0,1-.16-1.17,7.21,7.21,0,0,1,.28-2.12,4.69,4.69,0,0,1,.72-1.56,3.17,3.17,0,0,1,1-1,2.46,2.46,0,0,1,1.22-.33,2.24,2.24,0,0,1,.91.17,1.75,1.75,0,0,1,.71.49,2.33,2.33,0,0,1,.46.8,3.69,3.69,0,0,1,.16,1.1A7.71,7.71,0,0,1,179.77,104.91Zm-1-2.3a1.71,1.71,0,0,0-.3-.65,1.33,1.33,0,0,0-.44-.39,1.28,1.28,0,0,0-.56-.12,1.37,1.37,0,0,0-.78.26,2.52,2.52,0,0,0-.67.79,4.89,4.89,0,0,0-.48,1.28,7.66,7.66,0,0,0-.18,1.75,4.13,4.13,0,0,0,.11,1,2.24,2.24,0,0,0,.28.68,1.26,1.26,0,0,0,.42.41,1,1,0,0,0,.49.14,1.27,1.27,0,0,0,.5-.1,1.63,1.63,0,0,0,.49-.33,2.18,2.18,0,0,0,.47-.55,3.88,3.88,0,0,0,.4-.79,6.76,6.76,0,0,0,.25-1.07,8,8,0,0,0,.1-1.36A3.63,3.63,0,0,0,178.82,102.61Z" transform="translate(-53.5 -47.5)"/>
      <path d="M184.88,104c0,.12,0,.25,0,.37s0,.26-.05.39,0,.26-.06.38l-.21,1.25c0,.06,0,.13,0,.23s0,.16,0,.25a2.29,2.29,0,0,0,0,.25,1.86,1.86,0,0,0,0,.22.56.56,0,0,0,.14.42.78.78,0,0,0,.4.18v.19a2,2,0,0,1-.43.17,2.38,2.38,0,0,1-.49,0,.56.56,0,0,1-.41-.13.49.49,0,0,1-.15-.4c0-.06,0-.16,0-.26s0-.21,0-.31,0-.23,0-.33,0-.22,0-.32l.22-1.32c0-.09,0-.18,0-.29l0-.31c0-.1,0-.2,0-.3a2.35,2.35,0,0,0,0-.26,1,1,0,0,0,0-.32.9.9,0,0,0-.11-.22.83.83,0,0,0-.16-.12.64.64,0,0,0-.2,0,.85.85,0,0,0-.52.22,2.1,2.1,0,0,0-.5.61,3.47,3.47,0,0,0-.4.91,3.78,3.78,0,0,0-.19,1.14l-.07,1.94h-1l.58-5-.7-.22v-.22a3.75,3.75,0,0,1,.55-.15,3.57,3.57,0,0,1,.59,0l.23,0a.71.71,0,0,1,.24.06l-.37,1.76h0a4.42,4.42,0,0,1,.44-.78,3.3,3.3,0,0,1,.5-.59,2.17,2.17,0,0,1,.56-.37,1.42,1.42,0,0,1,.57-.12.82.82,0,0,1,.65.26,1,1,0,0,1,.19.33,1.31,1.31,0,0,1,.07.46C184.89,103.74,184.89,103.84,184.88,104Z" transform="translate(-53.5 -47.5)"/>
      <path d="M189.58,105.06c0,.13,0,.25-.05.39s0,.28-.05.43,0,.28-.06.42,0,.27,0,.38,0,.21,0,.28a2.81,2.81,0,0,0,0,.45,1.21,1.21,0,0,0,.09.27.37.37,0,0,0,.17.14,1,1,0,0,0,.26.07v.24a4.26,4.26,0,0,1-.51.13,2.82,2.82,0,0,1-.52,0l-.26,0a.79.79,0,0,1-.22-.06l.29-1.73h0a5.68,5.68,0,0,1-.37.74,3.52,3.52,0,0,1-.45.59,2.21,2.21,0,0,1-.49.4,1.08,1.08,0,0,1-.5.14.7.7,0,0,1-.38-.13.9.9,0,0,1-.33-.38,1.73,1.73,0,0,1-.24-.63,3.81,3.81,0,0,1-.1-.88,5,5,0,0,1,.23-1.56,3.88,3.88,0,0,1,.62-1.18,2.85,2.85,0,0,1,.93-.74,2.43,2.43,0,0,1,1.09-.26h.44l.33-2.07-.76-.22v-.22a2.7,2.7,0,0,1,.56-.14,4.41,4.41,0,0,1,.66,0h.28a1.83,1.83,0,0,1,.25.06l-.84,4.76A2.32,2.32,0,0,1,189.58,105.06Zm-.79-1.81h-.29a1.49,1.49,0,0,0-.68.17,1.57,1.57,0,0,0-.56.53,3.08,3.08,0,0,0-.39.91,5.75,5.75,0,0,0-.14,1.32,2.92,2.92,0,0,0,.05.63,1.47,1.47,0,0,0,.12.43.8.8,0,0,0,.19.26.5.5,0,0,0,.21.08.8.8,0,0,0,.4-.14,1.75,1.75,0,0,0,.4-.44,3.53,3.53,0,0,0,.38-.73,7.4,7.4,0,0,0,.25-1.05l.32-1.91Z" transform="translate(-53.5 -47.5)"/>
      <path d="M194,107.19a.23.23,0,0,1,0,.17.73.73,0,0,1-.13.39,1.12,1.12,0,0,1-.36.32,2,2,0,0,1-.53.22,2.27,2.27,0,0,1-.65.08,1.81,1.81,0,0,1-.67-.11,1.38,1.38,0,0,1-.52-.37,2.08,2.08,0,0,1-.33-.63,2.93,2.93,0,0,1-.11-.89,6,6,0,0,1,.21-1.68,4.32,4.32,0,0,1,.57-1.2,2.55,2.55,0,0,1,.78-.7,1.81,1.81,0,0,1,.85-.23,1.24,1.24,0,0,1,.91.3,1.18,1.18,0,0,1,.32.89,1.77,1.77,0,0,1-.24.91,2.4,2.4,0,0,1-.62.69,2.83,2.83,0,0,1-.89.43,3.07,3.07,0,0,1-1,.15,5.09,5.09,0,0,0,.07.87,1.73,1.73,0,0,0,.2.53.73.73,0,0,0,.32.26,1.25,1.25,0,0,0,.45.07,1,1,0,0,0,.33,0,1.24,1.24,0,0,0,.36-.11,3.37,3.37,0,0,0,.32-.19,1.25,1.25,0,0,0,.23-.23A.52.52,0,0,1,194,107.19Zm-.69-3.81a.46.46,0,0,0-.39-.17.63.63,0,0,0-.41.16,1.67,1.67,0,0,0-.4.43,2.92,2.92,0,0,0-.31.71,3.06,3.06,0,0,0-.11.89,2.34,2.34,0,0,0,.71-.1A1.7,1.7,0,0,0,193,105a1.18,1.18,0,0,0,.36-.46,1.2,1.2,0,0,0,.13-.6A.85.85,0,0,0,193.33,103.38Z" transform="translate(-53.5 -47.5)"/>
      <path d="M194.91,102.8a3.63,3.63,0,0,1,.54-.15,3.56,3.56,0,0,1,.57,0l.24,0a.53.53,0,0,1,.24.06l-.34,1.67h0l.61-1a2.15,2.15,0,0,1,.46-.54.86.86,0,0,1,.51-.18.36.36,0,0,1,.29.11.55.55,0,0,1,.09.32,1,1,0,0,1,0,.29,1,1,0,0,1-.09.3.51.51,0,0,0-.17,0h-.19a1.15,1.15,0,0,0-.54.16,1.38,1.38,0,0,0-.47.51,3.42,3.42,0,0,0-.36.89,7.89,7.89,0,0,0-.18,1.36L196,108.2h-1l.57-5-.7-.22Z" transform="translate(-53.5 -47.5)"/>
      <path d="M198.17,102.78a3.47,3.47,0,0,1,.48-.13,2.19,2.19,0,0,1,.46,0,1.58,1.58,0,0,1,.47.07l.17,4.63h0a3.46,3.46,0,0,0,.34-.49c.12-.2.23-.42.35-.66s.22-.5.32-.79.18-.56.25-.86a6.83,6.83,0,0,0,.18-.9,6.62,6.62,0,0,0,.06-.88,1.49,1.49,0,0,1,.56-.12.64.64,0,0,1,.42.11.47.47,0,0,1,.16.38l.22,4.18h0a7.66,7.66,0,0,0,.56-.84,8.79,8.79,0,0,0,.43-.94,6.76,6.76,0,0,0,.29-.94,3.62,3.62,0,0,0,.1-.84.93.93,0,0,0-.09-.44,1.07,1.07,0,0,0-.34-.33v-.19a2.38,2.38,0,0,1,.32-.12,1.51,1.51,0,0,1,.39,0,.6.6,0,0,1,.44.17.75.75,0,0,1,.17.53,3.65,3.65,0,0,1-.09.77,4.75,4.75,0,0,1-.26.84,6,6,0,0,1-.38.87,7.63,7.63,0,0,1-.48.84,9.29,9.29,0,0,1-.56.79,6.33,6.33,0,0,1-.6.65c-.1.09-.17.16-.24.21l-.2.13h-.19l-.16-5.6h0a7.26,7.26,0,0,1-.08,1,7.07,7.07,0,0,1-.2,1c-.1.34-.2.67-.31,1s-.27.61-.41.89-.3.51-.46.74a3.07,3.07,0,0,1-.48.57,2,2,0,0,1-.25.2l-.23.17h-.23l-.41-5.18-.5-.2Z" transform="translate(-53.5 -47.5)"/>
      <path d="M205.64,108.17a.56.56,0,0,1-.14-.4,1.9,1.9,0,0,1,0-.31c0-.12,0-.25,0-.39s0-.29.06-.42a2.06,2.06,0,0,1,0-.39l.36-2.34.06-.68-.69-.22v-.22a3.87,3.87,0,0,1,.56-.15,3.73,3.73,0,0,1,.59,0h.28a.65.65,0,0,1,.24.06l-.52,3.38q0,.12,0,.3c0,.11,0,.22,0,.33a3,3,0,0,1,0,.32v.28a.72.72,0,0,0,.1.43.8.8,0,0,0,.36.23v.19a1.76,1.76,0,0,1-.39.12,2.29,2.29,0,0,1-.47,0A.57.57,0,0,1,205.64,108.17Zm1.69-7.11a.86.86,0,0,1-.13.23.77.77,0,0,1-.21.14.53.53,0,0,1-.24.06.46.46,0,0,1-.38-.15.49.49,0,0,1-.15-.4,1,1,0,0,1,0-.28,1.27,1.27,0,0,1,.15-.21,1.06,1.06,0,0,1,.2-.17.7.7,0,0,1,.25,0,.49.49,0,0,1,.38.16.57.57,0,0,1,.15.39A.71.71,0,0,1,207.33,101.06Z" transform="translate(-53.5 -47.5)"/>
      <path d="M208.57,109.88a2.07,2.07,0,0,1-.36.68,1.35,1.35,0,0,1-.47.37,1.22,1.22,0,0,1-.54.11,1.19,1.19,0,0,1-.45-.08,1,1,0,0,1-.34-.23v-.21a1.64,1.64,0,0,0,.54-.08,1.32,1.32,0,0,0,.45-.27,1.74,1.74,0,0,0,.33-.5,2.44,2.44,0,0,0,.18-.73l.64-5,0-.69-.7-.22v-.22a3.56,3.56,0,0,1,.56-.15,3.69,3.69,0,0,1,.58,0,1.68,1.68,0,0,1,.52.07l-.74,6.21A4.53,4.53,0,0,1,208.57,109.88Zm1.23-8.82a.88.88,0,0,1-.14.23.64.64,0,0,1-.21.14.53.53,0,0,1-.24.06.46.46,0,0,1-.38-.15.52.52,0,0,1-.15-.4,1,1,0,0,1,0-.28.45.45,0,0,1,.15-.21.87.87,0,0,1,.21-.17.64.64,0,0,1,.24,0,.52.52,0,0,1,.21,0,.83.83,0,0,1,.16.12.34.34,0,0,1,.11.17.42.42,0,0,1,.05.22A.94.94,0,0,1,209.8,101.06Z" transform="translate(-53.5 -47.5)"/>
      <path d="M213.46,103.52a1.13,1.13,0,0,1-.15.27,2.06,2.06,0,0,0-.6-.41,1.62,1.62,0,0,0-.66-.15.82.82,0,0,0-.58.18.61.61,0,0,0-.2.46.59.59,0,0,0,0,.23.72.72,0,0,0,.1.22l.22.27.35.33.44.39.36.35a2,2,0,0,1,.22.32,1.32,1.32,0,0,1,.12.31,1.37,1.37,0,0,1,0,.36,1.32,1.32,0,0,1-.16.64,1.82,1.82,0,0,1-.45.55,2.45,2.45,0,0,1-1.52.51,1.58,1.58,0,0,1-.79-.16.6.6,0,0,1-.26-.5.66.66,0,0,1,.06-.26.56.56,0,0,1,.13-.22,1.7,1.7,0,0,0,.51.36,1.57,1.57,0,0,0,.6.12,1.46,1.46,0,0,0,.38,0,1.2,1.2,0,0,0,.32-.16.56.56,0,0,0,.21-.25.7.7,0,0,0,.08-.33,1.09,1.09,0,0,0,0-.26.88.88,0,0,0-.12-.26,1,1,0,0,0-.22-.27,3.6,3.6,0,0,0-.34-.35l-.42-.37-.32-.33a1.08,1.08,0,0,1-.2-.31,1.1,1.1,0,0,1-.12-.31,1.9,1.9,0,0,1,0-.35,1.24,1.24,0,0,1,.13-.56,1.63,1.63,0,0,1,.36-.48,2.12,2.12,0,0,1,.56-.35,2.21,2.21,0,0,1,.74-.13,1.89,1.89,0,0,1,.93.18.49.49,0,0,1,.32.44A1.32,1.32,0,0,1,213.46,103.52Z" transform="translate(-53.5 -47.5)"/>
      <path d="M215.5,108.33a2.75,2.75,0,0,1-.37.62,2.19,2.19,0,0,1-.47.49,1.43,1.43,0,0,1-.48.26l-.32-.07a3.36,3.36,0,0,0,.34-.41,3.68,3.68,0,0,0,.28-.45,1.49,1.49,0,0,0,.17-.44,1.22,1.22,0,0,0,.07-.41l-.43-.48a1.9,1.9,0,0,1,.36-.34.69.69,0,0,1,.4-.14.54.54,0,0,1,.22,0,.72.72,0,0,1,.2.14.52.52,0,0,1,.12.22.7.7,0,0,1,0,.3A1.79,1.79,0,0,1,215.5,108.33Z" transform="translate(-53.5 -47.5)"/>
      <path d="M223,102.44l-.06-.28a.93.93,0,0,0-.31-.61,1,1,0,0,0-.64-.17,1.47,1.47,0,0,0-.77.24,2.32,2.32,0,0,0-.73.76,4.44,4.44,0,0,0-.53,1.29,7.5,7.5,0,0,0-.2,1.84,4.14,4.14,0,0,0,.1,1,2.43,2.43,0,0,0,.3.69,1.44,1.44,0,0,0,.45.41,1.08,1.08,0,0,0,.53.14,1.74,1.74,0,0,0,.47,0,2,2,0,0,0,.37-.13,1.88,1.88,0,0,0,.3-.27,1.68,1.68,0,0,0,.23-.4l.11-.29h.32l-.18,1.4a4.5,4.5,0,0,1-.83.28,4.91,4.91,0,0,1-1,.09,2.66,2.66,0,0,1-.9-.16,1.54,1.54,0,0,1-.67-.49,2.11,2.11,0,0,1-.45-.84,4.06,4.06,0,0,1-.16-1.22,7.72,7.72,0,0,1,.13-1.51,5.38,5.38,0,0,1,.37-1.23,4.27,4.27,0,0,1,.57-1,3.35,3.35,0,0,1,.7-.66,3,3,0,0,1,.79-.41,2.56,2.56,0,0,1,.82-.13h.4l.35,0,.32.07.31.09-.22,1.48Z" transform="translate(-53.5 -47.5)"/>
      <path d="M224.47,103.22a.86.86,0,0,0-.39-.21v-.19a2,2,0,0,1,.41-.15,1.88,1.88,0,0,1,.49-.06.57.57,0,0,1,.43.14.51.51,0,0,1,.14.39c0,.1,0,.22,0,.35s0,.28-.06.44-.05.32-.08.5,0,.33-.08.49l-.26,1.28a1.18,1.18,0,0,1,0,.2,6.28,6.28,0,0,0,0,.47,1.21,1.21,0,0,0,0,.19.51.51,0,0,0,.11.37.39.39,0,0,0,.29.13.77.77,0,0,0,.46-.19,1.81,1.81,0,0,0,.51-.52,3.54,3.54,0,0,0,.42-.85,3.89,3.89,0,0,0,.25-1.16l.12-2a2.45,2.45,0,0,1,.5-.16,2.55,2.55,0,0,1,.54-.06l-.32,1.8c0,.19-.07.4-.11.63s-.07.44-.09.65,0,.45-.07.66,0,.4,0,.58,0,.34,0,.46a1.21,1.21,0,0,0,.09.27.4.4,0,0,0,.16.14.81.81,0,0,0,.26.07v.24a4.77,4.77,0,0,1-.51.13,4.39,4.39,0,0,1-.53,0,1.13,1.13,0,0,1-.47-.08l.31-1.57h0a5.12,5.12,0,0,1-.4.59,3.7,3.7,0,0,1-.49.55,2.78,2.78,0,0,1-.53.39,1,1,0,0,1-.51.15,1.1,1.1,0,0,1-.36-.07,1.18,1.18,0,0,1-.28-.22,1.16,1.16,0,0,1-.18-.33,1.23,1.23,0,0,1-.07-.44,1.7,1.7,0,0,1,0-.22c0-.07,0-.15,0-.22a1.43,1.43,0,0,1,0-.22c0-.08,0-.15,0-.21l.26-1.35a2.35,2.35,0,0,0,.06-.34c0-.11,0-.24.06-.36s0-.26,0-.38,0-.22,0-.31A.63.63,0,0,0,224.47,103.22Z" transform="translate(-53.5 -47.5)"/>
      <path d="M229.25,108.17a.54.54,0,0,1-.15-.41c0-.08,0-.18,0-.31s0-.26,0-.4,0-.28,0-.41,0-.28.05-.38l.8-5.71-.72-.22v-.22a2.78,2.78,0,0,1,.55-.14,3.62,3.62,0,0,1,.6,0h.29a1.4,1.4,0,0,1,.24.06l-.86,6a2.54,2.54,0,0,0,0,.29l0,.35c0,.1,0,.22,0,.33a1.52,1.52,0,0,0,0,.29.6.6,0,0,0,.14.43.88.88,0,0,0,.38.23v.19a2.16,2.16,0,0,1-.88.16A.58.58,0,0,1,229.25,108.17Z" transform="translate(-53.5 -47.5)"/>
      <path d="M234.07,103.23a1.33,1.33,0,0,1-.77.17H233l-.2,1.2c0,.14-.05.3-.08.47s0,.36-.07.54,0,.37-.06.53a3.47,3.47,0,0,0,0,.43,1.45,1.45,0,0,0,.07.49.94.94,0,0,0,.18.33.69.69,0,0,0,.28.21,1.09,1.09,0,0,0,.36.06.9.9,0,0,0,.24,0l.23-.06v.21a.54.54,0,0,1-.13.19,1.12,1.12,0,0,1-.24.19,1.25,1.25,0,0,1-.31.12,1.17,1.17,0,0,1-.38,0A1,1,0,0,1,232,108a1.66,1.66,0,0,1-.29-1c0-.17,0-.38,0-.61s.05-.47.08-.72.07-.5.11-.75.09-.49.13-.71l.15-.74h-.33l-.31,0v-.15a3.7,3.7,0,0,1,.69-.75,4.42,4.42,0,0,1,.86-.63h.18l-.2.94h.33l.45,0,.44-.06A.63.63,0,0,1,234.07,103.23Z" transform="translate(-53.5 -47.5)"/>
      <path d="M235.07,103.22a.81.81,0,0,0-.39-.21v-.19a2.26,2.26,0,0,1,.41-.15,1.9,1.9,0,0,1,.5-.06.56.56,0,0,1,.42.14.51.51,0,0,1,.14.39c0,.1,0,.22,0,.35s0,.28-.06.44,0,.32-.08.5-.05.33-.08.49l-.25,1.28c0,.07,0,.14,0,.2a1.94,1.94,0,0,0,0,.24,2.08,2.08,0,0,0,0,.23,1.21,1.21,0,0,0,0,.19.51.51,0,0,0,.12.37.38.38,0,0,0,.29.13.77.77,0,0,0,.45-.19,1.81,1.81,0,0,0,.51-.52,4,4,0,0,0,.43-.85,3.9,3.9,0,0,0,.24-1.16l.12-2a2.45,2.45,0,0,1,.5-.16,2.55,2.55,0,0,1,.54-.06l-.32,1.8c0,.19-.07.4-.1.63s-.07.44-.1.65,0,.45-.07.66,0,.4,0,.58,0,.34,0,.46a1.18,1.18,0,0,0,.1.27.31.31,0,0,0,.16.14.82.82,0,0,0,.25.07v.24a4.23,4.23,0,0,1-.51.13,4.39,4.39,0,0,1-.53,0,1.13,1.13,0,0,1-.47-.08l.31-1.57h0a4.1,4.1,0,0,1-.4.59,4.3,4.3,0,0,1-.48.55,3.59,3.59,0,0,1-.53.39,1.06,1.06,0,0,1-.52.15,1.1,1.1,0,0,1-.36-.07,1.13,1.13,0,0,1-.27-.22,1.19,1.19,0,0,1-.19-.33,1.5,1.5,0,0,1-.07-.44.86.86,0,0,1,0-.22l0-.22a.79.79,0,0,1,.05-.22q0-.12,0-.21l.26-1.35a2.35,2.35,0,0,0,.06-.34,2.08,2.08,0,0,0,.06-.36c0-.14,0-.26,0-.38s0-.22,0-.31A.63.63,0,0,0,235.07,103.22Z" transform="translate(-53.5 -47.5)"/>
      <path d="M240.09,103.22a.76.76,0,0,0-.39-.21v-.19a2.35,2.35,0,0,1,.42-.15,1.88,1.88,0,0,1,.49-.06.59.59,0,0,1,.43.14.51.51,0,0,1,.14.39c0,.1,0,.22,0,.35s0,.28-.05.44,0,.32-.09.5a4.17,4.17,0,0,1-.08.49l-.25,1.28a.65.65,0,0,1-.05.2,65.57,65.57,0,0,1,0,.47,1.21,1.21,0,0,0,0,.19.51.51,0,0,0,.11.37.39.39,0,0,0,.29.13.77.77,0,0,0,.46-.19,1.94,1.94,0,0,0,.51-.52,3.54,3.54,0,0,0,.42-.85,3.61,3.61,0,0,0,.24-1.16l.13-2a2.45,2.45,0,0,1,.5-.16,2.48,2.48,0,0,1,.54-.06l-.33,1.8c0,.19-.07.4-.1.63s-.07.44-.09.65,0,.45-.07.66,0,.4,0,.58,0,.34,0,.46a1.21,1.21,0,0,0,.09.27.35.35,0,0,0,.16.14.81.81,0,0,0,.26.07v.24c-.18.06-.34.09-.51.13a4.55,4.55,0,0,1-.53,0,1.13,1.13,0,0,1-.47-.08l.31-1.57h0a5.12,5.12,0,0,1-.4.59,4.36,4.36,0,0,1-.49.55,2.78,2.78,0,0,1-.53.39,1,1,0,0,1-.52.15,1,1,0,0,1-.35-.07,1,1,0,0,1-.28-.22,1,1,0,0,1-.18-.33,1.23,1.23,0,0,1-.07-.44,1.7,1.7,0,0,1,0-.22l0-.22c0-.08,0-.15,0-.22l0-.21.27-1.35c0-.09,0-.21.06-.34s0-.24,0-.36,0-.26.05-.38,0-.22,0-.31A.58.58,0,0,0,240.09,103.22Z" transform="translate(-53.5 -47.5)"/>
      <path d="M244.56,102.8a3.63,3.63,0,0,1,.54-.15,3.56,3.56,0,0,1,.57,0l.24,0a.61.61,0,0,1,.25.06l-.35,1.67h0l.61-1a2.15,2.15,0,0,1,.46-.54.86.86,0,0,1,.51-.18.36.36,0,0,1,.29.11.55.55,0,0,1,.09.32,1,1,0,0,1,0,.29,1,1,0,0,1-.09.3.51.51,0,0,0-.17,0h-.19a1.15,1.15,0,0,0-.54.16,1.38,1.38,0,0,0-.47.51,3.42,3.42,0,0,0-.36.89,9,9,0,0,0-.18,1.36l-.09,1.68h-1l.57-5-.7-.22Z" transform="translate(-53.5 -47.5)"/>
      <path d="M252.94,107.19a.29.29,0,0,1,.05.17.73.73,0,0,1-.13.39,1.12,1.12,0,0,1-.36.32,2,2,0,0,1-.53.22,2.27,2.27,0,0,1-.65.08,1.81,1.81,0,0,1-.67-.11,1.38,1.38,0,0,1-.52-.37,2.08,2.08,0,0,1-.33-.63,2.9,2.9,0,0,1-.12-.89,5.61,5.61,0,0,1,.22-1.68,4.32,4.32,0,0,1,.57-1.2,2.55,2.55,0,0,1,.78-.7,1.81,1.81,0,0,1,.85-.23,1.24,1.24,0,0,1,.91.3,1.18,1.18,0,0,1,.32.89,1.77,1.77,0,0,1-.24.91,2.4,2.4,0,0,1-.62.69,2.94,2.94,0,0,1-.89.43,3.11,3.11,0,0,1-1,.15,4.24,4.24,0,0,0,.07.87,1.5,1.5,0,0,0,.2.53.73.73,0,0,0,.32.26,1.18,1.18,0,0,0,.45.07,1.06,1.06,0,0,0,.33,0,1.24,1.24,0,0,0,.36-.11,3.37,3.37,0,0,0,.32-.19,1.25,1.25,0,0,0,.23-.23A.52.52,0,0,1,252.94,107.19Zm-.69-3.81a.46.46,0,0,0-.39-.17.65.65,0,0,0-.42.16,1.84,1.84,0,0,0-.39.43,2.92,2.92,0,0,0-.31.71,3.06,3.06,0,0,0-.11.89,2.34,2.34,0,0,0,.71-.1,1.8,1.8,0,0,0,.57-.29,1.18,1.18,0,0,0,.36-.46,1.2,1.2,0,0,0,.13-.6A.85.85,0,0,0,252.25,103.38Z" transform="translate(-53.5 -47.5)"/>
      <path d="M258.06,104c0,.12,0,.25-.05.37s0,.26-.05.39,0,.26-.06.38l-.21,1.25c0,.06,0,.13,0,.23s0,.16,0,.25a2.29,2.29,0,0,0,0,.25,1.86,1.86,0,0,0,0,.22.52.52,0,0,0,.14.42.78.78,0,0,0,.4.18v.19a2,2,0,0,1-.43.17,2.46,2.46,0,0,1-.49,0,.59.59,0,0,1-.42-.13.52.52,0,0,1-.14-.4c0-.06,0-.16,0-.26s0-.21,0-.31,0-.23.05-.33,0-.22,0-.32l.22-1.32a1.77,1.77,0,0,1,.05-.29l0-.31c0-.1,0-.2,0-.3a2.35,2.35,0,0,0,0-.26,1,1,0,0,0,0-.32.9.9,0,0,0-.11-.22.83.83,0,0,0-.16-.12.64.64,0,0,0-.2,0,.85.85,0,0,0-.52.22,2.1,2.1,0,0,0-.5.61,3.84,3.84,0,0,0-.41.91,4.12,4.12,0,0,0-.18,1.14l-.07,1.94h-1l.58-5-.7-.22v-.22a3.44,3.44,0,0,1,.55-.15,3.57,3.57,0,0,1,.59,0l.23,0a.71.71,0,0,1,.24.06l-.37,1.76h0a4.42,4.42,0,0,1,.44-.78,3.3,3.3,0,0,1,.5-.59,2.17,2.17,0,0,1,.56-.37,1.42,1.42,0,0,1,.57-.12,1,1,0,0,1,.36.06,1.15,1.15,0,0,1,.29.2,1,1,0,0,1,.19.33,1.31,1.31,0,0,1,.07.46C258.07,103.74,258.07,103.84,258.06,104Z" transform="translate(-53.5 -47.5)"/>
      <path d="M122,121.31l-.53-6.47h0l-2,6.44-.77,0-.91-6.9-.59-.19V114a3.71,3.71,0,0,1,.49-.14,2.77,2.77,0,0,1,.49,0,3.48,3.48,0,0,1,.47,0,1.81,1.81,0,0,1,.44.09v.19a.4.4,0,0,0-.22.14.29.29,0,0,0-.07.2l.54,5.34h0l1.86-5.91,1.06,0,.46,6.16h0l1.78-5.6-.61-.18V114a3.3,3.3,0,0,1,1.1-.18,2.07,2.07,0,0,1,.35,0,1.92,1.92,0,0,1,.32.09v.19a.66.66,0,0,0-.25.13.51.51,0,0,0-.15.21l-2.44,6.82Z" transform="translate(-53.5 -47.5)"/>
      <path d="M128.34,120.19a.23.23,0,0,1,0,.17.73.73,0,0,1-.13.39,1.08,1.08,0,0,1-.35.32,2.11,2.11,0,0,1-.53.22,2.39,2.39,0,0,1-.66.08,1.81,1.81,0,0,1-.67-.11,1.42,1.42,0,0,1-.51-.37,1.89,1.89,0,0,1-.34-.63,2.88,2.88,0,0,1-.11-.89,5.61,5.61,0,0,1,.22-1.68,4.31,4.31,0,0,1,.56-1.2,2.55,2.55,0,0,1,.78-.7,1.84,1.84,0,0,1,.85-.23,1.21,1.21,0,0,1,.91.3,1.18,1.18,0,0,1,.32.89,1.77,1.77,0,0,1-.24.91,2.4,2.4,0,0,1-.62.69,2.89,2.89,0,0,1-.88.43,3.15,3.15,0,0,1-1,.15,5.22,5.22,0,0,0,.06.87,1.63,1.63,0,0,0,.2.53.79.79,0,0,0,.32.26,1.25,1.25,0,0,0,.45.07,1,1,0,0,0,.33,0,1.15,1.15,0,0,0,.36-.11,2.46,2.46,0,0,0,.32-.19,1,1,0,0,0,.23-.23A.31.31,0,0,1,128.34,120.19Zm-.69-3.81a.46.46,0,0,0-.39-.17.65.65,0,0,0-.41.16,1.41,1.41,0,0,0-.39.44,2.38,2.38,0,0,0-.31.7,3,3,0,0,0-.12.89,2.3,2.3,0,0,0,.71-.1,1.7,1.7,0,0,0,.57-.29,1.3,1.3,0,0,0,.37-.46,1.32,1.32,0,0,0,.12-.6A.8.8,0,0,0,127.65,116.38Z" transform="translate(-53.5 -47.5)"/>
      <path d="M131.83,116.23a1.35,1.35,0,0,1-.77.17h-.33l-.19,1.2c0,.14,0,.3-.08.47s-.05.36-.07.54,0,.37-.06.53a3.47,3.47,0,0,0,0,.43,1.45,1.45,0,0,0,.07.49.81.81,0,0,0,.18.33.63.63,0,0,0,.28.21,1,1,0,0,0,.35.06.94.94,0,0,0,.25,0l.23-.06v.21a.72.72,0,0,1-.13.19,1.12,1.12,0,0,1-.24.19,1.25,1.25,0,0,1-.31.12,1.17,1.17,0,0,1-.38,0,1.07,1.07,0,0,1-.88-.37,1.73,1.73,0,0,1-.28-1c0-.17,0-.38,0-.61s.05-.47.08-.72.07-.5.1-.75.1-.49.14-.71l.15-.74h-.33l-.31,0v-.15a3.7,3.7,0,0,1,.69-.75,4.42,4.42,0,0,1,.86-.63H131l-.19.94h.33l.45,0,.44-.06A.63.63,0,0,1,131.83,116.23Z" transform="translate(-53.5 -47.5)"/>
      <path d="M135.5,120.19a.29.29,0,0,1,0,.17.71.71,0,0,1-.12.39,1.24,1.24,0,0,1-.36.32,2,2,0,0,1-.53.22,2.39,2.39,0,0,1-.66.08,1.73,1.73,0,0,1-.66-.11,1.38,1.38,0,0,1-.52-.37,2.09,2.09,0,0,1-.34-.63,2.88,2.88,0,0,1-.11-.89,5.61,5.61,0,0,1,.22-1.68,4.31,4.31,0,0,1,.56-1.2,2.67,2.67,0,0,1,.78-.7,1.85,1.85,0,0,1,.86-.23,1.2,1.2,0,0,1,.9.3,1.18,1.18,0,0,1,.33.89,1.77,1.77,0,0,1-.24.91,2.44,2.44,0,0,1-.63.69,2.89,2.89,0,0,1-.88.43,3.11,3.11,0,0,1-1,.15,4.24,4.24,0,0,0,.07.87,1.43,1.43,0,0,0,.19.53.79.79,0,0,0,.32.26,1.25,1.25,0,0,0,.45.07,1.08,1.08,0,0,0,.34,0,1.18,1.18,0,0,0,.35-.11l.33-.19a1.25,1.25,0,0,0,.23-.23Zm-.69-3.81a.48.48,0,0,0-.4-.17.65.65,0,0,0-.41.16,1.41,1.41,0,0,0-.39.44,2.38,2.38,0,0,0-.31.7,3,3,0,0,0-.12.89,2.37,2.37,0,0,0,.72-.1,1.65,1.65,0,0,0,.56-.29,1.2,1.2,0,0,0,.37-.46,1.32,1.32,0,0,0,.13-.6A.85.85,0,0,0,134.81,116.38Z" transform="translate(-53.5 -47.5)"/>
      <path d="M140.61,117c0,.12,0,.25,0,.37s0,.26-.06.39,0,.26-.06.38l-.2,1.25a1.17,1.17,0,0,0,0,.23l0,.25a2.29,2.29,0,0,0,0,.25.94.94,0,0,0,0,.22.52.52,0,0,0,.14.41.72.72,0,0,0,.4.19v.19a1.76,1.76,0,0,1-.42.17,2.49,2.49,0,0,1-.5,0,.56.56,0,0,1-.41-.13.52.52,0,0,1-.15-.4c0-.07,0-.16,0-.26s0-.21,0-.31,0-.23,0-.34,0-.21,0-.31l.22-1.32c0-.09,0-.18,0-.29s0-.2,0-.31,0-.2,0-.3a2.35,2.35,0,0,0,0-.26,1.45,1.45,0,0,0,0-.32.75.75,0,0,0-.12-.22.48.48,0,0,0-.16-.12.58.58,0,0,0-.19,0,.83.83,0,0,0-.52.22,2,2,0,0,0-.51.61,3.47,3.47,0,0,0-.4.91,3.78,3.78,0,0,0-.18,1.14l-.07,1.94h-1l.57-5-.7-.22v-.22a4.12,4.12,0,0,1,.55-.15,3.65,3.65,0,0,1,.59,0l.23,0a.71.71,0,0,1,.24.06l-.37,1.76h0a3.85,3.85,0,0,1,.43-.78,3.34,3.34,0,0,1,.51-.59,2.13,2.13,0,0,1,.55-.37,1.47,1.47,0,0,1,.58-.12,1,1,0,0,1,.35.06.88.88,0,0,1,.29.2,1.21,1.21,0,0,1,.2.33,1.59,1.59,0,0,1,.07.46A1.67,1.67,0,0,1,140.61,117Z" transform="translate(-53.5 -47.5)"/>
      <path d="M144.66,116.52a.87.87,0,0,1-.15.27,1.94,1.94,0,0,0-.6-.41,1.61,1.61,0,0,0-.65-.15.85.85,0,0,0-.59.18.6.6,0,0,0-.19.46.85.85,0,0,0,0,.23,1.07,1.07,0,0,0,.1.22l.22.27c.11.09.22.2.36.33l.44.39c.13.13.25.24.35.35a2,2,0,0,1,.22.32,1.37,1.37,0,0,1,.13.31,2,2,0,0,1,0,.36,1.22,1.22,0,0,1-.16.64,1.56,1.56,0,0,1-.45.55,2.21,2.21,0,0,1-.68.37,2.47,2.47,0,0,1-.84.14,1.61,1.61,0,0,1-.79-.16.59.59,0,0,1-.25-.5.67.67,0,0,1,.05-.26.71.71,0,0,1,.13-.22,1.62,1.62,0,0,0,.52.36,1.5,1.5,0,0,0,.6.12,1.58,1.58,0,0,0,.38,0,1.37,1.37,0,0,0,.32-.16.72.72,0,0,0,.21-.25.84.84,0,0,0,.08-.33,1.09,1.09,0,0,0,0-.26.85.85,0,0,0-.11-.26,1.74,1.74,0,0,0-.22-.27,3.83,3.83,0,0,0-.35-.35l-.41-.37c-.13-.12-.23-.23-.32-.33a1.13,1.13,0,0,1-.21-.31,1.32,1.32,0,0,1-.12-.31,1.9,1.9,0,0,1,0-.35,1.25,1.25,0,0,1,.14-.56,1.79,1.79,0,0,1,.35-.48,2.18,2.18,0,0,1,.57-.35,2.15,2.15,0,0,1,.73-.13,1.93,1.93,0,0,1,.94.18.49.49,0,0,1,.32.44A1,1,0,0,1,144.66,116.52Z" transform="translate(-53.5 -47.5)"/>
      <path d="M148.35,116.92a1.39,1.39,0,0,0-.43-.49.94.94,0,0,0-.56-.18.69.69,0,0,0-.42.18,1.3,1.3,0,0,0-.4.52,4,4,0,0,0-.32.91,6.12,6.12,0,0,0-.12,1.3,2.34,2.34,0,0,0,.08.69,1.5,1.5,0,0,0,.18.48,1.15,1.15,0,0,0,.27.27.58.58,0,0,0,.31.08.75.75,0,0,0,.32-.06,2,2,0,0,0,.31-.13c.09-.07.2-.14.29-.22s.17-.19.25-.28a.21.21,0,0,1,.07.13.52.52,0,0,1,0,.18.87.87,0,0,1-.1.42,1,1,0,0,1-.29.34,1.09,1.09,0,0,1-.48.24,2.32,2.32,0,0,1-.68.1,1.33,1.33,0,0,1-.57-.13,1.06,1.06,0,0,1-.46-.38,1.86,1.86,0,0,1-.3-.65,3,3,0,0,1-.12-.9,5.83,5.83,0,0,1,.21-1.66,3.86,3.86,0,0,1,.54-1.19,2.41,2.41,0,0,1,.77-.7,1.93,1.93,0,0,1,.89-.23,1.41,1.41,0,0,1,.76.16.46.46,0,0,1,.24.39A1.34,1.34,0,0,1,148.35,116.92Z" transform="translate(-53.5 -47.5)"/>
      <path d="M151.83,121.17a.49.49,0,0,1-.15-.4,2.54,2.54,0,0,1,0-.26c0-.1,0-.22,0-.33s0-.23.05-.35a2.69,2.69,0,0,1,.05-.32l.2-1.28c0-.08,0-.18.05-.29l0-.32c0-.11,0-.21,0-.31a2.09,2.09,0,0,0,0-.24.77.77,0,0,0-.15-.54.52.52,0,0,0-.37-.15.79.79,0,0,0-.46.18,1.72,1.72,0,0,0-.47.52,3.13,3.13,0,0,0-.39.82,3.65,3.65,0,0,0-.21,1.1l-.14,2.2h-1l.48-3.74.38-3.91-.71-.22v-.22a2.64,2.64,0,0,1,.57-.14,4.12,4.12,0,0,1,.6,0h.29a2.1,2.1,0,0,1,.24.06l-.61,4.21h0a3.1,3.1,0,0,1,.39-.67,2.59,2.59,0,0,1,.47-.51,1.82,1.82,0,0,1,.52-.33,1.54,1.54,0,0,1,.55-.11.85.85,0,0,1,.67.28,1.18,1.18,0,0,1,.24.77c0,.1,0,.21,0,.33a2.39,2.39,0,0,1-.05.36c0,.13,0,.26-.05.38s0,.27-.06.38l-.21,1.21,0,.23a2.66,2.66,0,0,0,0,.28,2.46,2.46,0,0,0,0,.26,1.77,1.77,0,0,0,0,.22.56.56,0,0,0,.13.41.75.75,0,0,0,.41.19v.19a2,2,0,0,1-.43.17,2.38,2.38,0,0,1-.49,0A.56.56,0,0,1,151.83,121.17Z" transform="translate(-53.5 -47.5)"/>
      <path d="M157.74,118.31c0,.2-.06.4-.08.6s0,.4-.06.59,0,.33,0,.46,0,.33,0,.45a1.21,1.21,0,0,0,.09.27.38.38,0,0,0,.17.14.88.88,0,0,0,.27.07v.24a3.31,3.31,0,0,1-.5.13,4.55,4.55,0,0,1-.53,0l-.25,0a.86.86,0,0,1-.23-.06l.27-1.71h0a4.6,4.6,0,0,1-.38.77,3.55,3.55,0,0,1-.46.59,1.9,1.9,0,0,1-.47.36,1.08,1.08,0,0,1-.48.13.67.67,0,0,1-.38-.13,1.23,1.23,0,0,1-.35-.39,2.69,2.69,0,0,1-.23-.63,4.45,4.45,0,0,1-.08-.87,4.88,4.88,0,0,1,.23-1.59,3.83,3.83,0,0,1,.65-1.18,2.63,2.63,0,0,1,2.05-1h.3l.33,0,.33.06a2.21,2.21,0,0,1,.3.07l-.39,2C157.81,117.94,157.77,118.12,157.74,118.31Zm-.79-2.06h-.29a1.21,1.21,0,0,0-.67.19,1.45,1.45,0,0,0-.55.55,3.51,3.51,0,0,0-.38.91,4.92,4.92,0,0,0-.14,1.28,2.9,2.9,0,0,0,.06.64,2.56,2.56,0,0,0,.12.43.88.88,0,0,0,.2.25.37.37,0,0,0,.2.08.71.71,0,0,0,.4-.15,1.59,1.59,0,0,0,.4-.44,3.44,3.44,0,0,0,.36-.72,6.27,6.27,0,0,0,.27-1l.31-1.91A1.62,1.62,0,0,0,157,116.25Z" transform="translate(-53.5 -47.5)"/>
      <path d="M159.6,115.65a3.64,3.64,0,0,1,.57,0l.23,0a.86.86,0,0,1,.23.05l-.3,1.77h0a3.9,3.9,0,0,1,.35-.77,3.21,3.21,0,0,1,.44-.6,2.06,2.06,0,0,1,.48-.39.94.94,0,0,1,.46-.14.78.78,0,0,1,.41.12,1,1,0,0,1,.33.35,2,2,0,0,1,.23.6,3.43,3.43,0,0,1,.09.84,5.69,5.69,0,0,1-.23,1.68,4.06,4.06,0,0,1-.58,1.2,2.8,2.8,0,0,1-.81.71,1.89,1.89,0,0,1-.89.24,1.59,1.59,0,0,1-.4,0,1.51,1.51,0,0,1-.37-.15l-.16,1.64a2.85,2.85,0,0,0,0,.4.67.67,0,0,0,.07.28.39.39,0,0,0,.14.17l.2.1v.19a1.67,1.67,0,0,1-.43.1,2.19,2.19,0,0,1-.46,0h-.3a1.7,1.7,0,0,1-.28-.06l.21-1,.9-6.75L159,116v-.22A3,3,0,0,1,159.6,115.65Zm2.61,1.48a1.59,1.59,0,0,0-.13-.46.47.47,0,0,0-.18-.24.35.35,0,0,0-.22-.09.65.65,0,0,0-.39.18,1.87,1.87,0,0,0-.43.48,4.76,4.76,0,0,0-.38.81,5.86,5.86,0,0,0-.25,1.09l-.26,1.75a2,2,0,0,0,.33,0,1.77,1.77,0,0,0,.32,0,1.06,1.06,0,0,0,.6-.19,1.55,1.55,0,0,0,.52-.53,3.37,3.37,0,0,0,.38-.91,5.07,5.07,0,0,0,.14-1.25A4.63,4.63,0,0,0,162.21,117.13Z" transform="translate(-53.5 -47.5)"/>
    </g>
  </g>
</svg>
