<?xml version="1.0" encoding="utf-8"?>
<!-- Generator: Adobe Illustrator 19.1.0, SVG Export Plug-In . SVG Version: 6.00 Build 0)  -->
<svg version="1.1" id="Laag_1" xmlns="http://www.w3.org/2000/svg" xmlns:xlink="http://www.w3.org/1999/xlink" x="0px" y="0px"
	 width="24px" height="24px" viewBox="-467 273 24 15" style="enable-background:new -467 273 24 15;" xml:space="preserve">
<g>
	<path transform="translate(0, 4.5)" d="M-443.7999878,280.5h-22.4000244 M-459.5,287.1990051L-466.1990051,280.5 M-459.5,273.8009949L-466.1990051,280.5"/>
	<path transform="translate(0, 4.5)" d="M-459.5,287.9990234c-0.2045898,0-0.409668-0.078125-0.565918-0.234375l-6.6757812-6.6757812
		C-466.9008789,280.9423828-467,280.7329102-467,280.5s0.0991211-0.4423828,0.2583008-0.5888672l6.6757812-6.6762695
		c0.3125-0.3115234,0.8193359-0.3115234,1.1318359,0c0.3120117,0.3125,0.3120117,0.8193359,0,1.1318359l-5.3339844,5.3334961
		h20.4682617C-443.3583984,279.7001953-443,280.0581055-443,280.5s-0.3583984,0.7998047-0.7998047,0.7998047h-20.4682617
		l5.3339844,5.3339844c0.3120117,0.3125,0.3120117,0.8183594,0,1.1308594
		C-459.090332,287.9208984-459.2954102,287.9990234-459.5,287.9990234z"/>
</g>
</svg>
