<?xml version="1.0" encoding="utf-8"?>
<!-- Generator: Adobe Illustrator 19.1.0, SVG Export Plug-In . SVG Version: 6.00 Build 0)  -->
<svg version="1.1" id="Laag_1" xmlns="http://www.w3.org/2000/svg" xmlns:xlink="http://www.w3.org/1999/xlink" x="0px" y="0px"
	 width="24px" height="24px" viewBox="-467 273 24 15" style="enable-background:new -467 273 24 15;" xml:space="preserve">
<g>
	<path transform="translate(0, 4.5)" d="M-466.2000122,280.5h22.4000244 M-450.5,273.7999878L-443.8009949,280.5 M-450.5,287.1990051L-443.8009949,280.5"/>
	<path transform="translate(0, 4.5)" d="M-450.5,287.9990234c-0.2050781,0-0.4091797-0.078125-0.5654297-0.234375c-0.3125-0.3125-0.3125-0.8183594,0-1.1308594
		l5.3330078-5.3339844h-20.4677734C-466.6420898,281.2998047-467,280.9418945-467,280.5s0.3579102-0.7998047,0.7998047-0.7998047
		h20.4677734l-5.3330078-5.3349609c-0.3125-0.3120117-0.3125-0.8188477,0-1.1313477
		c0.3125-0.3115234,0.8183594-0.3120117,1.1308594,0.0004883l6.6767578,6.6767578
		C-443.0996094,280.0576172-443,280.2670898-443,280.5s-0.0996094,0.4428711-0.2587891,0.5888672l-6.6757812,6.6757812
		C-450.0908203,287.9208984-450.2949219,287.9990234-450.5,287.9990234z"/>
</g>
</svg>
