<?xml version="1.0" encoding="utf-8"?>
<!-- Generator: Adobe Illustrator 17.1.0, SVG Export Plug-In . SVG Version: 6.00 Build 0)  -->
<svg version="1.2" baseProfile="tiny" xmlns="http://www.w3.org/2000/svg" xmlns:xlink="http://www.w3.org/1999/xlink" x="0px"
	 y="0px" width="24px" height="24px" viewBox="0 0 24 24" xml:space="preserve">

<g id="Production">
	<g>
		<path d="M5,21c0,0.5527,0.4473,1,1,1h12c0.5527,0,1-0.4473,1-1V8H5V21z M15,10h2v9l-2,1V10z M11,10h2v9l-2,1V10z M7,10h2v9l-2,1
			V10z"/>
		<path d="M19,4h-3V3c0-0.5527-0.4473-1-1-1H9C8.4473,2,8,2.4473,8,3v1H5C4.4473,4,4,4.4473,4,5v2h1h14h1V5
			C20,4.4473,19.5527,4,19,4z"/>
	</g>
</g>
</svg>
