<?xml version="1.0" encoding="utf-8"?>
<!-- Generator: Adobe Illustrator 18.1.0, SVG Export Plug-In . SVG Version: 6.00 Build 0)  -->
<svg version="1.2" baseProfile="tiny" xmlns="http://www.w3.org/2000/svg" xmlns:xlink="http://www.w3.org/1999/xlink" x="0px"
	 y="0px" width="64px" height="64px" viewBox="0 0 64 64" xml:space="preserve">
<g id="_x36_4px_Boxes">
	<rect fill="none" width="64" height="64"/>
</g>
<g id="Production">
	<path d="M51.787,11.6931C51.787,7.2971,41.79,4,31.91,4C22.03,4,12.033,7.2971,12.033,11.6931c0,1.5358,0.0038,4.2706,0.759,6.3694
		c2.6031,7.2338,9.062,16.0039,12.2604,19.8733c1.9606,1.8998,7.7381,1.0214,7.8992,1.0196
		c0.0037,0.0842,0.0089,0.2182-0.1858,0.3549c-0.22,0.1545-2.6504,1.2417-6.7182,1.6252l0.8931,17.1663
		C26.9407,59.1501,29.1656,60,31.91,60c2.7444,0,4.9693-0.8499,4.9693-1.8983L37.8731,39
		c2.6383-3.058,10.2792-12.946,13.1549-20.9375C51.7833,15.9636,51.787,13.2288,51.787,11.6931z M32,18.12
		c-8.4597,0-15.5-2.1593-15.5-5.046c0-2.8869,7.0403-5.2271,15.5-5.2271s15.5,2.3402,15.5,5.2271
		C47.5,15.9607,40.4597,18.12,32,18.12z"/>
</g>
</svg>
