<?xml version="1.0" encoding="UTF-8"?>
<svg width="24px" height="24px" viewBox="0 0 24 24" version="1.1" xmlns="http://www.w3.org/2000/svg" xmlns:xlink="http://www.w3.org/1999/xlink">
    <g id="icon-mail" stroke="none" stroke-width="1" fill="none" fill-rule="evenodd">
        <path d="M22.12,5 L1.88,5 C1.39402,5 1,5.39507353 1,5.88235294 L1,19.1176471 C1,19.6049265 1.39402,20 1.88,20 L22.12,20 C22.60598,20 23,19.6049265 23,19.1176471 L23,5.88235294 C23,5.39507353 22.60598,5 22.12,5 Z M20.378436,7.20588235 L12,12.7654118 L3.621564,7.20588235 L20.378436,7.20588235 Z M3.2,9.04227941 L11.51446,14.5594118 C11.66142,14.657 11.830688,14.7058824 12,14.7058824 C12.169312,14.7058824 12.33858,14.657 12.48554,14.5594118 L20.8,9.04227941 L20.8,17.7654853 L15.5926,13.9665588 C15.5926,13.9665588 15.486472,14.0341912 15.581864,14.1509706 C15.677256,14.26775 18.578484,17.7941176 18.578484,17.7941176 L5.474316,17.7941176 C5.474316,17.7941176 8.37132,14.2746324 8.466272,14.1578529 C8.561224,14.0410735 8.460684,13.9665588 8.460684,13.9665588 L3.213992,17.7941176 L3.2,17.7941176 L3.2,9.04227941 Z" id="Shape" fill="#000000" fill-rule="nonzero"></path>
    </g>
</svg>