<?xml version="1.0" encoding="utf-8"?>
<!-- Generator: Adobe Illustrator 17.1.0, SVG Export Plug-In . SVG Version: 6.00 Build 0)  -->
<svg version="1.2" baseProfile="tiny" xmlns="http://www.w3.org/2000/svg" xmlns:xlink="http://www.w3.org/1999/xlink" x="0px"
	 y="0px" width="64px" height="64px" viewBox="0 0 64 64" xml:space="preserve">

<g id="Production">
	<g>
		<path d="M58.583,50.4746l-24.207-41C33.8369,8.5605,32.8545,8,31.793,8c-0.0039,0-0.0078,0-0.0117,0
			c-1.0654,0.0039-2.0479,0.5732-2.583,1.4941l-23.793,41c-0.5381,0.9277-0.54,2.0732-0.0049,3.0029S6.9268,55,8,55h48
			c1.0771,0,2.0713-0.5771,2.6055-1.5127S59.1309,51.4023,58.583,50.4746z M13.21,49l18.6055-32.0615L50.7451,49H13.21z"/>
		<path d="M31.9847,41.0156c-1.5173,0-2.3057,1.092-2.3057,2.4877c0,1.5777,0.8497,2.4265,2.3364,2.4265
			c1.5164,0,2.3057-1.0614,2.3057-2.4265C34.321,41.895,33.4714,41.0156,31.9847,41.0156z"/>
		<polygon points="30.1333,40 33.8345,39.9043 33.8345,35.0225 34.1851,25.291 30.1333,25.6426 		"/>
	</g>
</g>
</svg>
