<?xml version="1.0" encoding="utf-8"?>
<!-- Generator: Adobe Illustrator 17.1.0, SVG Export Plug-In . SVG Version: 6.00 Build 0)  -->
<svg version="1.2" baseProfile="tiny" xmlns="http://www.w3.org/2000/svg" xmlns:xlink="http://www.w3.org/1999/xlink" x="0px"
	 y="0px" width="24px" height="24px" viewBox="0 0 24 24" xml:space="preserve">

<g id="Production">
	<path d="M19.3424,9h-7.9276l2.3757-3.5696c0.3394-0.511,0.2554-1.192-0.1992-1.6048c-0.2612-0.2381-0.6001-0.3462-0.9324-0.3226
		c-0.2455,0.0175-0.4873,0.107-0.6916,0.2692l-8.4961,6.7564C3.1748,10.7646,3.002,11.1221,3.002,11.5
		c0,0.3779,0.1729,0.7354,0.4692,0.9714l8.4961,6.7564c0.229,0.1817,0.5053,0.2721,0.7807,0.2721
		c0.3028,0,0.6055-0.1089,0.8433-0.3255c0.4546-0.4128,0.5386-1.0938,0.1992-1.6048L11.4149,14h7.9276
		C20.6197,14,21,12.5949,21,11.3504C21,10.1036,20.6197,9,19.3424,9z"/>
</g>
</svg>
