<svg xmlns="http://www.w3.org/2000/svg" width="32" height="32" viewBox="0 0 32 30" enable-background="new 0 0 32 30"><path transform="translate(0, 1)" d="M30.8 3.5h-2.3v-2.3c0-.7-.5-1.2-1.2-1.2h-18.1c-2.8 0-5.7 1.1-5.7 4v4.9c-2 .5-3.5 1.6-3.5 3.8v14.4c0 1.6 1.3 2.9 2.9 2.9h12.8c.6 0 1.2-.5 1.2-1.2v-15c0-.6-.5-1.2-1.2-1.2h-5.2v6.9l-2.3-1.7-2.3 1.7v-6.9h-2.5c-.3 0-.5-.3-.4-.6.4-1 2.2-1.1 2.8-1.1h13.4v16.7h3.5c.6 0 1.2-.5 1.2-1.2v-21.2c0-.6-.5-1.2-1.2-1.2h-15.9c-.3 0-.5-.2-.4-.6.4-1 2.2-1.1 2.8-1.1h16.9v21.9h1.2c.6 0 1.2-.5 1.2-1.2v-17.8h1.7v16.7h.6c.6 0 1.2-.5 1.2-1.2v-16.1c0-.6-.5-1.1-1.2-1.1z" stroke-width="0"/></svg>
