<?xml version="1.0" encoding="utf-8"?>
<!-- Generator: Adobe Illustrator 17.1.0, SVG Export Plug-In . SVG Version: 6.00 Build 0)  -->
<svg version="1.2" baseProfile="tiny" xmlns="http://www.w3.org/2000/svg" xmlns:xlink="http://www.w3.org/1999/xlink" x="0px"
	 y="0px" width="24px" height="24px" viewBox="0 0 24 24" xml:space="preserve">

<g id="Production">
	<g>
		<path d="M17,20H5V9h4c0.5523,0,1-0.4477,1-1V4h4.9785l2-2H9.4142C9.149,2,8.8946,2.1054,8.7071,2.2929L3.2929,7.7071
			C3.1054,7.8946,3,8.149,3,8.4142V21c0,0.5523,0.4477,1,1,1h14c0.5523,0,1-0.4477,1-1v-8.9745l-2,1.9996V20z"/>
		<path d="M21.9383,5.2797L19.7227,3.064c-0.3905-0.3905-1.0237-0.3905-1.4142,0l-8.5058,8.5058
			c-0.0898,0.0898-0.1575,0.1993-0.1977,0.3198l-0.5914,3.7718c-0.0669,0.2008,0.1241,0.3919,0.325,0.325l3.7771-0.5924
			c0.1194-0.0398,0.2279-0.1068,0.3169-0.1958l8.5057-8.5043C22.3289,6.3034,22.3289,5.6702,21.9383,5.2797z"/>
	</g>
</g>
</svg>
