<?xml version="1.0" encoding="utf-8"?>
<!-- Generator: Adobe Illustrator 19.1.0, SVG Export Plug-In . SVG Version: 6.00 Build 0)  -->
<svg version="1.1" id="Laag_1" xmlns="http://www.w3.org/2000/svg" xmlns:xlink="http://www.w3.org/1999/xlink" x="0px" y="0px"
	 width="64px" height="64px" viewBox="-447 249 64 64" style="enable-background:new -447 249 64 64;" xml:space="preserve">
<style type="text/css">
	.st0{fill:#2B2B2B;}
</style>
<path id="XMLID_2894_" class="st0" d="M-391.9622803,280.8115845c0,12.7025452-10.2974548,23-23,23s-23-10.2974548-23-23
	s10.2974548-23,23-23S-391.9622803,268.1090393-391.9622803,280.8115845z M-411.6078491,292.45401
	c0-1.9893494-1.1123352-3.0788269-3.0602722-3.0788269c-1.6843262,0-2.6837769,0.9694824-2.9499512,2.3163452
	c-0.4181824,2.1159668,1.5932312,4.098175,3.7134094,3.7019043
	C-412.3911743,295.1105957-411.6078491,293.9238586-411.6078491,292.45401z M-411.5622864,267.0314026
	c0.0054626-0.1360779-0.103363-0.2493591-0.2395325-0.2493591h-5.2140198c-0.1324158,0-0.2397461,0.1073303-0.2397461,0.2397156
	v18.6372375c0,0.1324158,0.1073303,0.2397461,0.2397461,0.2397461h4.7346802c0.1323853,0,0.2397156-0.1073303,0.2397156-0.2397461
	v-6.7109985L-411.5622864,267.0314026z"/>
</svg>
