<?xml version="1.0" encoding="utf-8"?>
<!-- Generator: Adobe Illustrator 17.1.0, SVG Export Plug-In . SVG Version: 6.00 Build 0)  -->
<svg version="1.2" baseProfile="tiny" xmlns="http://www.w3.org/2000/svg" xmlns:xlink="http://www.w3.org/1999/xlink" x="0px"
	 y="0px" width="64px" height="64px" viewBox="0 0 64 64" xml:space="preserve">

<g id="Icon">
	<path d="M58,15H29v-2c0-1.1046-0.8954-2-2-2H12c-1.1046,0-2,0.8954-2,2c0,2.21,0,2.6829,0,4.688
		c7.1292,0.4647,40.0935,2.619,40.5876,2.7501c0.277,0.0735,0.3754,0.2139,0.4045,0.3359c0.0001,0.0393,0.0214,0.2316-0.0109,0.226
		H4.5264c-1.2901,0-2.2427,1.2033-1.9467,2.4589l7.0569,30C9.911,54.6227,10.8147,55,12,55c6.7012,0,4.5464,0,46,0
		c1.1062,0,2-0.8968,2-2V17C60,15.8953,59.1045,15,58,15z"/>
</g>
</svg>
