<?xml version="1.0" encoding="utf-8"?>
<!-- Generator: Adobe Illustrator 17.1.0, SVG Export Plug-In . SVG Version: 6.00 Build 0)  -->
<svg version="1.2" baseProfile="tiny" xmlns="http://www.w3.org/2000/svg" xmlns:xlink="http://www.w3.org/1999/xlink" x="0px"
	 y="0px" width="64px" height="64px" viewBox="0 0 64 64" xml:space="preserve">

<g id="Production">
	<path d="M53.8564,14.1172c-0.3427-2.0615-1.9111-3.6299-3.9736-3.9736C43.9219,9.1499,33.9863,9.1499,32,9.1499
		c-1.9863,0-11.9219,0-17.8828,0.9937c-2.0625,0.3437-3.6309,1.9121-3.9736,3.9736C9.1504,20.0781,9.1504,30.0132,9.1504,32
		s0,11.9219,0.9932,17.8828c0.3427,2.0615,1.9111,3.6299,3.9736,3.9736C20.0781,54.8501,30.0137,54.8501,32,54.8501
		c1.9863,0,11.9219,0,17.8828-0.9937c2.0625-0.3437,3.6309-1.9121,3.9736-3.9736c0.9931-5.9609,0.9931-15.896,0.9931-17.8828
		C54.8495,26.0361,54.8495,20.0781,53.8564,14.1172z M47.3926,19.4331l-2.125,18.062c-0.1426,1.2105-1.1221,2.1504-2.3379,2.2412
		c-0.0645,0.0049-0.1279,0.0074-0.1924,0.0074c-1.1377,0-2.1494-0.7608-2.4541-1.8741l-1.1595-4.2384
		c0,0,2.5794-5.264,2.7904-5.6937c0.1935-0.3941-0.0741-0.4645-0.075-0.4647l-12.633,12.6327
		c-1.4434,1.4438-3.1211,0.6269-4.5284-0.7818c-1.4101-1.4087-2.2265-3.0874-0.7832-4.5307l9.1773-9.1774l-6.9419-1.8993
		c-1.1758-0.3213-1.958-1.4311-1.8672-2.646c0.0918-1.2153,1.0312-2.1958,2.2412-2.3379l18.0625-2.125
		c0.7764-0.0918,1.5479,0.1773,2.0977,0.728C47.2158,17.8862,47.4834,18.6592,47.3926,19.4331z"/>
</g>
</svg>
