<?xml version="1.0" encoding="utf-8"?>
<!-- Generator: Adobe Illustrator 17.1.0, SVG Export Plug-In . SVG Version: 6.00 Build 0)  -->
<svg version="1.2" baseProfile="tiny" xmlns="http://www.w3.org/2000/svg" xmlns:xlink="http://www.w3.org/1999/xlink" x="0px"
	 y="0px" width="64px" height="64px" viewBox="0 0 64 64" xml:space="preserve">

<g id="Production">
	<path d="M53.8564,14.1172c-0.3432-2.0615-1.9116-3.6299-3.9736-3.9736C43.9219,9.1499,33.9868,9.1499,32,9.1499
		c-1.9868,0-11.9219,0-17.8828,0.9937c-2.062,0.3437-3.6304,1.9121-3.9736,3.9736C9.1499,20.0781,9.1499,30.0132,9.1499,32
		s0,11.9219,0.9937,17.8828c0.3432,2.0615,1.9116,3.6299,3.9736,3.9736c5.9609,0.9937,15.896,0.9937,17.8828,0.9937
		c1.9868,0,11.9219,0,17.8828-0.9937c2.062-0.3437,3.6304-1.9121,3.9736-3.9736c0.9937-5.9609,0.9937-15.896,0.9937-17.8828
		C54.8501,26.0361,54.8501,20.0781,53.8564,14.1172z M32.0225,48C29.7803,48,28.5,46.7905,28.5,44.543
		c0-1.9873,1.1895-3.543,3.4775-3.543c2.2422,0,3.5225,1.2529,3.5225,3.543C35.5,46.4883,34.3105,48,32.0225,48z M37.0913,30.8569
		l-2.4184,1.3335c-1.4024,0.7617-2.0308,1.7139-2.0308,2.7617c0,0.6482,0.1891,1.3417,0.4863,2.0479h-5.0477
		c-0.4387-0.7711-0.6627-1.6586-0.6627-2.667c0-2.1904,1.0156-3.7617,3.6274-5.3335l2.563-1.5234
		c2.0317-1.1905,2.7085-2.1431,2.7085-3.667c0-1.6187-1.5474-2.8091-4.5947-2.8091c-2.2251,0-4.3531,0.4287-6.7222,1.333v-4.8096
		C27.6592,16.4761,30.126,16,33.1255,16c5.5127,0,9.0918,2.8569,9.0918,7.1426C42.2173,26.8569,40.8154,28.8096,37.0913,30.8569z"/>
</g>
</svg>
