<?xml version="1.0" encoding="utf-8"?>
<!-- Generator: Adobe Illustrator 19.1.0, SVG Export Plug-In . SVG Version: 6.00 Build 0)  -->
<svg version="1.1" id="Laag_1" xmlns="http://www.w3.org/2000/svg" xmlns:xlink="http://www.w3.org/1999/xlink" x="0px" y="0px"
	 width="45px" height="45px" viewBox="-457 258 45 45" style="enable-background:new -457 258 45 45;" xml:space="preserve">
<style type="text/css">
	.st0{fill:#2B2B2B;}
</style>
<path id="XMLID_694_" class="st0" d="M-417.7264,267.4082c-0.2574-1.5461-1.4337-2.7224-2.9802-2.9802
	c-4.4707-0.7453-11.922-0.7453-13.4121-0.7453c-1.4901,0-8.9414,0-13.4121,0.7453c-1.5465,0.2578-2.7228,1.4341-2.9802,2.9802
	c-0.7453,4.4707-0.7453,11.922-0.7453,13.4121s0,8.9414,0.7453,13.4121c0.2574,1.5461,1.4337,2.7224,2.9802,2.9802
	c4.4707,0.7453,11.922,0.7453,13.4121,0.7453c1.4901,0,8.9414,0,13.4121-0.7453c1.5465-0.2578,2.7228-1.4341,2.9802-2.9802
	c0.7453-4.4707,0.7453-11.922,0.7453-13.4121C-416.9811,276.3474-416.9811,271.8789-417.7264,267.4082z M-424.2411,273.2932
	l-9.9306,16.3293c-0.2764,0.4556-0.7707,0.732-1.3028,0.732h-0.0056c-0.533-0.0009-1.0283-0.282-1.3018-0.7405l-6.5034-10.8532
	c-0.3839-0.6424-0.2462-1.4688,0.3283-1.9499c0.5726-0.483,1.4103-0.4755,1.9782,0.0151l5.3686,4.6507l8.9307-9.991
	c0.5255-0.5877,1.4103-0.6783,2.0452-0.2085C-424.0025,271.7451-423.8317,272.6205-424.2411,273.2932z"/>
</svg>
