<?xml version="1.0" encoding="utf-8"?>
<!-- Generator: Adobe Illustrator 19.1.0, SVG Export Plug-In . SVG Version: 6.00 Build 0)  -->
<svg version="1.2" baseProfile="tiny" xmlns="http://www.w3.org/2000/svg" xmlns:xlink="http://www.w3.org/1999/xlink" x="0px"
	 y="0px" width="64px" height="64px" viewBox="0 0 64 64" xml:space="preserve">

<g id="Icon">
	<g>
		<path d="M19.1488,30.439l8.0275-4.5786v14.7375c0,2.621,2.2663,3.4031,4.8252,3.4021c2.5569,0.001,4.8223-0.7801,4.8223-3.4021
			V19.5856c0,0,0.2487-0.1489,0.3727,0.3102c0.1553,0.5752,1.9395,7.2833,1.9395,7.2833l5.7152,3.2598
			c1.3596,0.7754,3.0779,0.4786,4.0983-0.7075c1.0211-1.1855,1.0571-2.9319,0.0876-4.1577L34.5659,7.2437
			C33.946,6.4579,33.0005,6,32,6s-1.946,0.4579-2.5659,1.2437L14.9629,25.5738c-0.9703,1.2267-0.934,2.9715,0.0877,4.1577
			C16.0709,30.9176,17.7893,31.2144,19.1488,30.439z"/>
		<path d="M47,45v5H17v-5H9v10c0,1.6569,1.3431,3,3,3h40c1.6569,0,3-1.3431,3-3V45H47z"/>
	</g>
</g>
</svg>
