<?xml version="1.0" encoding="utf-8"?>
<!-- Generator: Adobe Illustrator 17.1.0, SVG Export Plug-In . SVG Version: 6.00 Build 0)  -->
<svg version="1.2" baseProfile="tiny" xmlns="http://www.w3.org/2000/svg" xmlns:xlink="http://www.w3.org/1999/xlink" x="0px"
	 y="0px" width="24px" height="24px" viewBox="0 0 24 24" xml:space="preserve">

<g id="Production">
	<path d="M8.1154,3.5126C7.7874,4.0144,7.753,4.7869,7.7561,5.5155c0.003,0.6993-0.0142,1.3582,0.0479,1.6983
		c-0.48-0.0232-0.6809,0.3619-0.6069,1.6663C7.2628,10.0364,7.7245,10.286,8,10.4449c0.2432,1.1693,0.7116,2.2767,1.5413,3.1141
		l0.0018-0.0122c-0.0512,0.3041-0.1158,0.6273-0.1992,0.9484c-1.1422,0.401-3.9444,1.4452-4.7648,2.3104C3.5449,17.8954,3,22,3,22
		h18c0,0-0.5449-4.1046-1.5791-5.1944c-0.8188-0.8636-3.6121-1.9054-4.7583-2.3081c-0.0946-0.3184-0.165-0.638-0.2185-0.9385
		c0.8297-0.8374,1.3127-1.9448,1.5559-3.1141c0.2755-0.1589,0.7226-0.4085,0.7883-1.5648c0.074-1.3044-0.1269-1.6895-0.6069-1.6663
		c0.0617-0.3376,0.0667-0.9789,0.0619-1.6669c-0.0052-0.7273-0.0395-1.5067-0.3333-2.0343
		c-0.3649-0.6554-0.8777-1.0398-1.8777-0.8029c-0.8754-0.4209-1.7975-0.8731-3.3404-0.5318
		C8.9531,2.5625,8.3389,3.1708,8.1154,3.5126z"/>
</g>
</svg>
