<?xml version="1.0" encoding="utf-8"?>
<!-- Generator: Adobe Illustrator 19.1.0, SVG Export Plug-In . SVG Version: 6.00 Build 0)  -->
<svg version="1.1" id="Laag_1" xmlns="http://www.w3.org/2000/svg" xmlns:xlink="http://www.w3.org/1999/xlink" x="0px" y="0px"
	 width="64px" height="64px" viewBox="-447 249 64 64" style="enable-background:new -447 249 64 64;" xml:space="preserve">
<style type="text/css">
	.st0{fill:#2B2B2B;}
</style>
<path id="XMLID_2898_" class="st0" d="M-388.1173706,295.6206055l-24.2060242-40.9985809
	c-0.5387878-0.9143829-1.5215759-1.4747772-2.5835571-1.4747772h-0.0120239
	c-1.0655823,0.0036011-2.0483704,0.5735931-2.5823364,1.493988l-23.7944336,40.9985657
	c-0.5375977,0.9275818-0.5387878,2.0747681-0.0048218,3.00354c0.5364075,0.928772,1.5263977,1.5035706,2.6003723,1.5035706
	h47.9992676c1.0763855,0,2.0723572-0.577179,2.6063538-1.5143738
	C-387.5605774,297.6965637-387.5690002,296.5469666-388.1173706,295.6206055z M-413.7540588,295.8750916
	c-2.3352661,0.4364319-4.5507507-1.7468567-4.0901184-4.0774841c0.2931824-1.48349,1.3940125-2.5513306,3.2492065-2.5513306
	c2.1455688,0,3.3707581,1.1999817,3.3707581,3.3911743C-411.2242126,294.2564087-412.0870056,295.5635376-413.7540588,295.8750916z
	 M-411.7018127,277.761261v7.3918457c0,0.145813-0.1182251,0.2640381-0.2640381,0.2640381h-5.2150269
	c-0.145813,0-0.2640381-0.1182251-0.2640381-0.2640381v-20.5279846c0-0.145813,0.1182251-0.2640381,0.2640381-0.2640381h5.742981
	c0.1499939,0,0.2698669,0.1247864,0.2638245,0.2746582L-411.7018127,277.761261z"/>
</svg>
