<svg xmlns="http://www.w3.org/2000/svg" viewBox="0 0 221.79 58.6"><g data-name="Layer 2"><g data-name="Layer 1"><g data-name="&lt;Group&gt;"><path d="M.85 12.93v-.34a1.68 1.68 0 0 0 .76-.45 1.32 1.32 0 0 0 .28-.92V2.39L.76 2v-.4c.59-.1 1.16-.16 1.72-.2s1.2 0 1.93 0A7 7 0 0 1 9 2.77a4.86 4.86 0 0 1 1.73 4 5.85 5.85 0 0 1-2 4.66 6.82 6.82 0 0 1-4.6 1.7H2.38a13.28 13.28 0 0 1-1.53-.2zM3.44 12h.44a3.15 3.15 0 0 0 .44 0 4.55 4.55 0 0 0 3.26-1.3A4.8 4.8 0 0 0 9 7.06a4.42 4.42 0 0 0-1.37-3.44 4.67 4.67 0 0 0-3.25-1.21h-.94zm8.84.93v-.3a2 2 0 0 0 .65-.39.76.76 0 0 0 .3-.59V5.56l-1.15-.48V4.7a8.29 8.29 0 0 1 2.14-.34h.58l-.09 1v6.85l1 .27v.34a4.86 4.86 0 0 1-.93.23 7.76 7.76 0 0 1-1.16.07h-.68a4.19 4.19 0 0 1-.66-.19zM14 2.7a.92.92 0 0 1-.68-.29 1 1 0 0 1-.32-.73 1.12 1.12 0 0 1 .28-.74.94.94 0 0 1 .75-.33 1 1 0 0 1 .66.26 1 1 0 0 1 .28.71 1.17 1.17 0 0 1-.29.8.93.93 0 0 1-.68.32zm2.83 6.38A5.06 5.06 0 0 1 18 5.49a3.51 3.51 0 0 1 2.6-1.26 3 3 0 0 1 2.29.91 3.53 3.53 0 0 1 .82 2.46v1.15h-5.33a3.3 3.3 0 0 0 .78 2.35 2.45 2.45 0 0 0 1.89.84 4.33 4.33 0 0 0 1.35-.22 4.84 4.84 0 0 0 1.19-.55v.2a1.22 1.22 0 0 1 0 .26c0 .41-.28.78-.84 1.1a4.66 4.66 0 0 1-2.26.47 3.54 3.54 0 0 1-2.63-1.12 4.12 4.12 0 0 1-1.03-3zm1.59-1.26h3.85a3.18 3.18 0 0 0-.51-2 1.61 1.61 0 0 0-1.31-.65 1.81 1.81 0 0 0-1.38.83 2.74 2.74 0 0 0-.65 1.82zm6.65 5.11v-.3a2.44 2.44 0 0 0 .65-.39.76.76 0 0 0 .3-.59V5.56l-1.17-.48v-.4A7.91 7.91 0 0 1 26 4.43a7.71 7.71 0 0 1 1-.07h.44v1a3.39 3.39 0 0 1 1.17-.73 4.23 4.23 0 0 1 1.49-.28 2.46 2.46 0 0 1 1.83.65 2.88 2.88 0 0 1 .7 2.1v5.05l.94.27v.34a4.26 4.26 0 0 1-.84.22 5.74 5.74 0 0 1-1 .08h-.6a3.39 3.39 0 0 1-.57-.13v-.3a1 1 0 0 0 .44-.43 1.59 1.59 0 0 0 .16-.76V8a2.78 2.78 0 0 0-.51-1.88 1.67 1.67 0 0 0-1.29-.56 3.43 3.43 0 0 0-1.07.17 2.64 2.64 0 0 0-.79.39v6.06l1 .27v.34a4.78 4.78 0 0 1-.94.23 7.7 7.7 0 0 1-1.15.07h-.68a4 4 0 0 1-.66-.16zm9.74-1.21a1.89 1.89 0 0 1 0-.38A1.31 1.31 0 0 1 35 11a5.14 5.14 0 0 0 1.22.84 3 3 0 0 0 1.32.29 1.79 1.79 0 0 0 1.15-.32A1 1 0 0 0 39 11a1.13 1.13 0 0 0-.33-.81 4 4 0 0 0-1.22-.72l-.9-.37a2.93 2.93 0 0 1-1.19-.91A2.14 2.14 0 0 1 35 6.86 2.43 2.43 0 0 1 35.84 5a3.21 3.21 0 0 1 2.27-.8 3 3 0 0 1 1.55.31.93.93 0 0 1 .46.81 2.55 2.55 0 0 1 0 .39c0 .12 0 .25-.07.37a4 4 0 0 0-1-.49A3.19 3.19 0 0 0 38 5.4a2 2 0 0 0-1.28.34 1 1 0 0 0-.41.78 1.12 1.12 0 0 0 .3.8 2.89 2.89 0 0 0 1.1.62l1 .38a3.12 3.12 0 0 1 1.29.91 2.12 2.12 0 0 1 .41 1.32 2.41 2.41 0 0 1-.92 1.84 3.53 3.53 0 0 1-2.43.81 3.08 3.08 0 0 1-1.74-.38 1.23 1.23 0 0 1-.51-1.1zm7.64-1.06V5.62h-1V5l2.06-1.9.59-.1-.1 1.65h2.38l-.13 1H44V10a2.84 2.84 0 0 0 .3 1.52.92.92 0 0 0 .7.48 1.9 1.9 0 0 0 .73-.13 2.22 2.22 0 0 0 .6-.34l.18.07a1.58 1.58 0 0 1-.54 1.2 2.13 2.13 0 0 1-1.4.41 2 2 0 0 1-1.57-.65 2.78 2.78 0 0 1-.55-1.9zm9.2-1.03V2.34l-1.15-.29v-.39a8.78 8.78 0 0 1 1-.21 7.26 7.26 0 0 1 1-.08h.85c.27 0 .56.07.86.13v.36a1.52 1.52 0 0 0-.82.45 1.59 1.59 0 0 0-.24 1v6a2.68 2.68 0 0 0 .72 2 2.57 2.57 0 0 0 1.93.73 2.54 2.54 0 0 0 1.91-.77 3.35 3.35 0 0 0 .75-2.4V2.34l-1.15-.29v-.39a9.22 9.22 0 0 1 1-.23 5.87 5.87 0 0 1 1.73 0l.75.15v.34a1.62 1.62 0 0 0-.82.5 1.37 1.37 0 0 0-.23.85v5.4a4.55 4.55 0 0 1-1.17 3.41 4.08 4.08 0 0 1-3 1.13 4.26 4.26 0 0 1-3-.93 3.36 3.36 0 0 1-.92-2.65zm10.25 3.3v-.3a2 2 0 0 0 .65-.39.76.76 0 0 0 .3-.59V5.56l-1.15-.48V4.7a8.29 8.29 0 0 1 2.14-.34h.58l-.09 1v6.85l1 .27v.34a5.06 5.06 0 0 1-.93.23 7.76 7.76 0 0 1-1.16.07h-.68a4.19 4.19 0 0 1-.66-.19zM63.61 2.7a.92.92 0 0 1-.68-.29 1 1 0 0 1-.28-.73 1.12 1.12 0 0 1 .28-.74.94.94 0 0 1 .75-.33 1 1 0 0 1 .66.26 1 1 0 0 1 .28.71 1.17 1.17 0 0 1-.29.8 1 1 0 0 1-.72.32zm3.62 7.96V8.02l.06-2.4h-1V5l2-1.9.6-.07-.08 1.62h2.38l-.12 1h-2.31V10a3 3 0 0 0 .24 1.52.94.94 0 0 0 .8.44 2 2 0 0 0 .74-.13 2.22 2.22 0 0 0 .6-.34l.18.07a1.66 1.66 0 0 1-.54 1.2 2.15 2.15 0 0 1-1.41.41 2.05 2.05 0 0 1-1.61-.61 2.84 2.84 0 0 1-.53-1.9zm8.31 2.52l-3.06-7.87-.74-.52v-.43h3.44v.43l-1 .43 1.95 5.71 2-5.65-1-.49v-.43h2.77v.43l-.5.41-3.2 8zm4.55-4.12a4.85 4.85 0 0 1 1.28-3.52 4 4 0 0 1 2.95-1.33 3.77 3.77 0 0 1 2.79 1.15 4.07 4.07 0 0 1 1.14 3 4.77 4.77 0 0 1-1.31 3.52A4 4 0 0 1 84 13.22a3.91 3.91 0 0 1-2.78-1.1 4 4 0 0 1-1.13-3.06zm1.64-.18a3.68 3.68 0 0 0 .72 2.46 2.06 2.06 0 0 0 3.37-.07 4 4 0 0 0 .79-2.73 3.67 3.67 0 0 0-.73-2.43 2.17 2.17 0 0 0-1.69-.85 2.2 2.2 0 0 0-1.69.92 4.06 4.06 0 0 0-.77 2.7zm7.97.2a5 5 0 0 1 1.18-3.59 3.49 3.49 0 0 1 2.58-1.26 3 3 0 0 1 2.29.91 3.54 3.54 0 0 1 .83 2.46v1.15h-5.33A3.3 3.3 0 0 0 92 11.1a2.48 2.48 0 0 0 1.89.84 4.24 4.24 0 0 0 1.35-.22 4.67 4.67 0 0 0 1.19-.55v.2a2.46 2.46 0 0 1 0 .26c0 .41-.28.78-.84 1.1a4.62 4.62 0 0 1-2.25.47 3.58 3.58 0 0 1-2.64-1.12 4.11 4.11 0 0 1-1-3zm1.58-1.26h3.86a3.17 3.17 0 0 0-.52-2 1.59 1.59 0 0 0-1.3-.65 1.81 1.81 0 0 0-1.39.83 2.8 2.8 0 0 0-.65 1.82zm6.65 5.11v-.3a2.29 2.29 0 0 0 .65-.39.74.74 0 0 0 .31-.59V5.56l-1.17-.48v-.4a7.66 7.66 0 0 1 1.19-.25 7.47 7.47 0 0 1 1-.07h.43v1.26l.5-.56a2.66 2.66 0 0 1 .75-.59 1.74 1.74 0 0 1 .84-.2 1 1 0 0 1 .7.2.69.69 0 0 1 .23.57 1.77 1.77 0 0 1-.08.54 2.33 2.33 0 0 1-.21.54 1.86 1.86 0 0 0-.53-.3 1.75 1.75 0 0 0-.58-.11 1.78 1.78 0 0 0-.81.19 3.11 3.11 0 0 0-.78.55v5.73l1.25.27v.34a4.81 4.81 0 0 1-1 .23 9 9 0 0 1-1.28.07h-.76a4.32 4.32 0 0 1-.65-.16zm6.55 0v-.3a2.21 2.21 0 0 0 .66-.39.78.78 0 0 0 .29-.59V5.56l-1.15-.48V4.7a8.29 8.29 0 0 1 2.14-.34h.58l-.09 1v6.85l1 .27v.34a4.86 4.86 0 0 1-.91.18 7.67 7.67 0 0 1-1.16.07h-.68a4.19 4.19 0 0 1-.68-.14zm1.71-10.23a.92.92 0 0 1-.68-.29 1 1 0 0 1-.28-.73 1.12 1.12 0 0 1 .28-.74.94.94 0 0 1 .75-.33 1 1 0 0 1 .66.26 1 1 0 0 1 .28.71 1.17 1.17 0 0 1-.29.8.93.93 0 0 1-.72.32zm3.16 10.23v-.3a2.44 2.44 0 0 0 .65-.39.76.76 0 0 0 .3-.59V5.56l-1.17-.48v-.4a7.91 7.91 0 0 1 1.19-.25 7.71 7.71 0 0 1 1-.07h.44v1a3.3 3.3 0 0 1 1.17-.73 4.19 4.19 0 0 1 1.49-.28 2.46 2.46 0 0 1 1.82.71 2.88 2.88 0 0 1 .7 2.1v5.05l.94.27v.34a4.26 4.26 0 0 1-.88.18 5.74 5.74 0 0 1-1.05.08h-.6a3.39 3.39 0 0 1-.57-.13v-.3a1 1 0 0 0 .49-.43 1.6 1.6 0 0 0 .15-.76V8a2.84 2.84 0 0 0-.5-1.88 1.69 1.69 0 0 0-1.3-.56 3.41 3.41 0 0 0-1.06.17 2.52 2.52 0 0 0-.79.39v6.06l1 .27v.34a4.78 4.78 0 0 1-.94.23 7.7 7.7 0 0 1-1.15.07h-.69a4.06 4.06 0 0 1-.64-.16zm10.03-1.01a1.55 1.55 0 0 1 .38-1 2.05 2.05 0 0 1 .89-.65 2.55 2.55 0 0 1-1.12-.91 2.56 2.56 0 0 1-.53-1.58 3.4 3.4 0 0 1 1.07-2.54 3.53 3.53 0 0 1 2.52-1 3.77 3.77 0 0 1 1.13.19 2.14 2.14 0 0 1 .81.41 2 2 0 0 1 .7-.41 2.6 2.6 0 0 1 .89-.17 2.12 2.12 0 0 1 .44 0l.33.07-.12 1.19a8.45 8.45 0 0 0-.92-.14 8.19 8.19 0 0 0-1-.06 2.72 2.72 0 0 1 .74.87 2.31 2.31 0 0 1 .29 1.09 3.24 3.24 0 0 1-1.1 2.54 3.74 3.74 0 0 1-2.56 1 2.86 2.86 0 0 1-.58-.06 3.49 3.49 0 0 1-.54-.15 1.37 1.37 0 0 0-.38.38.78.78 0 0 0-.19.48.71.71 0 0 0 .31.62 1.49 1.49 0 0 0 .84.21h2.52a2.56 2.56 0 0 1 1.75.51 1.87 1.87 0 0 1 .61 1.51 2.74 2.74 0 0 1-1.26 2.22 5.14 5.14 0 0 1-3.13.93 4.45 4.45 0 0 1-2.57-.61 1.8 1.8 0 0 1-.87-1.5 1.82 1.82 0 0 1 .49-1.26 2.51 2.51 0 0 1 1.22-.73 1.69 1.69 0 0 1-.79-.54 1.41 1.41 0 0 1-.27-.91zm.73 3.12a1.15 1.15 0 0 0 .58 1 3 3 0 0 0 1.72.41 3.64 3.64 0 0 0 2.06-.53 1.47 1.47 0 0 0 .79-1.18 1 1 0 0 0-.35-.81 1.43 1.43 0 0 0-1-.29H121a1.5 1.5 0 0 0-.65.58 1.52 1.52 0 0 0-.24.78zm2.23-5.11a1.78 1.78 0 0 0 1.39-.63 2.78 2.78 0 0 0 .57-1.93 2.33 2.33 0 0 0-.54-1.69 1.74 1.74 0 0 0-1.26-.55 1.65 1.65 0 0 0-1.33.69 2.84 2.84 0 0 0-.56 1.85 2.42 2.42 0 0 0 .53 1.7 1.63 1.63 0 0 0 1.2.56zm8.77-2.42A6.22 6.22 0 0 1 132.79 3a5.11 5.11 0 0 1 3.76-1.72 4.51 4.51 0 0 1 3.38 1.47 5.49 5.49 0 0 1 1.39 4 6.7 6.7 0 0 1-1.64 4.83 5.07 5.07 0 0 1-3.78 1.73 4.45 4.45 0 0 1-3.39-1.53 6 6 0 0 1-1.4-4.27zm5 4.58a3.18 3.18 0 0 0 2.39-1.24A5.67 5.67 0 0 0 139.56 7a5.12 5.12 0 0 0-1-3.47 2.91 2.91 0 0 0-2.22-1.12A3.13 3.13 0 0 0 134 3.67a5.43 5.43 0 0 0-1.08 3.62 5.62 5.62 0 0 0 1 3.58 2.85 2.85 0 0 0 2.16 1.22zm6.81.84v-.3a2.44 2.44 0 0 0 .65-.39.76.76 0 0 0 .3-.59V5.56l-1.17-.48v-.4a7.91 7.91 0 0 1 1.19-.25 7.58 7.58 0 0 1 1-.07h.44v1a3.25 3.25 0 0 1 1.16-.73 4.25 4.25 0 0 1 1.5-.28 2.47 2.47 0 0 1 1.82.71 2.88 2.88 0 0 1 .7 2.1v5.05l.94.27v.34a4.26 4.26 0 0 1-.84.22 5.74 5.74 0 0 1-1.05.08h-.6a3.39 3.39 0 0 1-.57-.13v-.3a1 1 0 0 0 .49-.43 1.59 1.59 0 0 0 .16-.76V8a2.78 2.78 0 0 0-.51-1.88 1.69 1.69 0 0 0-1.3-.56 3.41 3.41 0 0 0-1.06.17 2.52 2.52 0 0 0-.79.39v6.06l1 .27v.34a5 5 0 0 1-.94.23 7.7 7.7 0 0 1-1.15.07h-.69a4.06 4.06 0 0 1-.68-.16zm9.6-3.67a5.06 5.06 0 0 1 1.28-3.71 4.08 4.08 0 0 1 3-1.3 5.38 5.38 0 0 1 .68 0 3.42 3.42 0 0 1 .57.09V1.21l-1.21-.49v-.4a7.67 7.67 0 0 1 1.23-.25 8.26 8.26 0 0 1 1-.07h.58l-.11 1v10.33a2.66 2.66 0 0 0 .26.54 2.53 2.53 0 0 0 .43.5 4.92 4.92 0 0 1-.58.44 6.11 6.11 0 0 1-.68.41 3.07 3.07 0 0 1-.51-.51 3 3 0 0 1-.36-.57 3.49 3.49 0 0 1-1.09.74 3.08 3.08 0 0 1-1.21.29 3 3 0 0 1-2.32-1.07 4.07 4.07 0 0 1-.96-2.84zm3.73 2.74a3.29 3.29 0 0 0 1-.17 2.33 2.33 0 0 0 .82-.41v-6a4 4 0 0 0-.59-.14 4.37 4.37 0 0 0-.72-.06 2.38 2.38 0 0 0-1.91.92 4.22 4.22 0 0 0-.76 2.86 3.38 3.38 0 0 0 .65 2.24 2 2 0 0 0 1.51.76zm5.33-2.92a5 5 0 0 1 1.19-3.59 3.48 3.48 0 0 1 2.58-1.26 3 3 0 0 1 2.29.91 3.53 3.53 0 0 1 .82 2.46v1.15h-5.32a3.3 3.3 0 0 0 .78 2.35 2.45 2.45 0 0 0 1.89.84 4.33 4.33 0 0 0 1.35-.22 4.67 4.67 0 0 0 1.19-.55 1.73 1.73 0 0 1 0 .2 1.22 1.22 0 0 1 0 .26c0 .41-.28.78-.84 1.1a4.64 4.64 0 0 1-2.26.47 3.56 3.56 0 0 1-2.63-1.12 4.12 4.12 0 0 1-1.04-3zm1.59-1.26H167a3.18 3.18 0 0 0-.51-2 1.61 1.61 0 0 0-1.31-.65 1.81 1.81 0 0 0-1.38.78 2.74 2.74 0 0 0-.63 1.87zm6.65 5.11v-.3a2.44 2.44 0 0 0 .65-.39.77.77 0 0 0 .31-.59V5.56l-1.18-.48v-.4a7.91 7.91 0 0 1 1.19-.25 7.73 7.73 0 0 1 1-.07h.43v1.26l.5-.56a2.66 2.66 0 0 1 .75-.59 1.71 1.71 0 0 1 .84-.2 1 1 0 0 1 .7.2.72.72 0 0 1 .23.57 1.77 1.77 0 0 1-.08.54 2.33 2.33 0 0 1-.21.54 1.91 1.91 0 0 0-.54-.3 1.65 1.65 0 0 0-.57-.11 1.78 1.78 0 0 0-.81.19 2.79 2.79 0 0 0-.78.55v5.73l1.25.27v.34a4.81 4.81 0 0 1-1 .23 9.08 9.08 0 0 1-1.28.07h-.76a4.32 4.32 0 0 1-.64-.16zm9.31.25l-2.7-7.85-.77-.54v-.43h3.49v.43l-1 .43 1.6 5.78 1.78-5.74-1-.47v-.43h3.06v.43l-.52.4 1.62 5.8 1.85-5.71-1-.49v-.43h2.77v.43l-.49.4-3 8h-.76l-2-6.63-2.08 6.6zm10.27-.25v-.3a2 2 0 0 0 .65-.39.76.76 0 0 0 .3-.59V5.56l-1.15-.48V4.7a8.29 8.29 0 0 1 2.14-.34h.58l-.09 1v6.85l1 .27v.34a4.86 4.86 0 0 1-.93.23 7.67 7.67 0 0 1-1.16.07h-.68a4.19 4.19 0 0 1-.66-.19zm1.71-10.23a.92.92 0 0 1-.68-.29 1 1 0 0 1-.28-.73 1.12 1.12 0 0 1 .28-.74.94.94 0 0 1 .75-.33 1 1 0 0 1 .66.26 1 1 0 0 1 .28.71 1.17 1.17 0 0 1-.29.8.93.93 0 0 1-.72.32zm3.75 11.17V5.56l-1.15-.48V4.7a8.26 8.26 0 0 1 2.16-.34h.58l-.11 1v8.08a5.63 5.63 0 0 1-.59 3 1.72 1.72 0 0 1-1.45.84 1.65 1.65 0 0 1-.57-.11 1 1 0 0 1-.44-.33v-.28a1.34 1.34 0 0 0 1.08-.69 3.48 3.48 0 0 0 .49-2zm.76-11.17a.92.92 0 0 1-.68-.29 1 1 0 0 1-.28-.73 1.07 1.07 0 0 1 .28-.74.94.94 0 0 1 .75-.33 1 1 0 0 1 .66.26 1 1 0 0 1 .28.71 1.17 1.17 0 0 1-.29.8 1 1 0 0 1-.72.32zm2.69 9.02a1.82 1.82 0 0 1 0-.38 1.3 1.3 0 0 1 .12-.35 5.1 5.1 0 0 0 1.21.84 3.12 3.12 0 0 0 1.33.29 1.78 1.78 0 0 0 1.14-.32 1 1 0 0 0 .39-.8 1.13 1.13 0 0 0-.33-.81 4.16 4.16 0 0 0-1.17-.72l-.9-.37a2.9 2.9 0 0 1-1.2-.91 2.13 2.13 0 0 1-.42-1.33 2.45 2.45 0 0 1 .85-1.86 3.24 3.24 0 0 1 2.27-.8 3 3 0 0 1 1.55.31.94.94 0 0 1 .47.81 2.56 2.56 0 0 1 0 .39l-.06.37a4.16 4.16 0 0 0-1-.49 3.24 3.24 0 0 0-1.06-.2 2 2 0 0 0-1.28.34 1 1 0 0 0-.42.78 1.12 1.12 0 0 0 .3.8 3 3 0 0 0 1.11.62l1 .38a3.12 3.12 0 0 1 1.38.91 2.11 2.11 0 0 1 .4 1.32 2.38 2.38 0 0 1-.92 1.84 3.53 3.53 0 0 1-2.43.81 3 3 0 0 1-1.73-.38 1.23 1.23 0 0 1-.6-1.09zM0 33.53v-.31A1.28 1.28 0 0 0 .4 33a1 1 0 0 0 .23-.42l2.25-9.68-1-.22v-.43a6.42 6.42 0 0 1 .9-.15 9.41 9.41 0 0 1 1-.07h.59l1.58 8.6H6l3-8.6h1.29c.33 0 .63.06.89.11v.43l-.84.22.41 10 1 .27v.35a4.84 4.84 0 0 1-.74.2 3.36 3.36 0 0 1-.74.08 7.39 7.39 0 0 1-.91-.05 4.19 4.19 0 0 1-.67-.13v-.31a1.11 1.11 0 0 0 .31-.31 1 1 0 0 0 .15-.61l-.11-8H9l-3.24 9.48h-.53L3.46 24.3l-1.75 8.49 1 .29v.35a3.69 3.69 0 0 1-.73.21 4.49 4.49 0 0 1-.77.07 3.66 3.66 0 0 1-.65-.06c-.18-.03-.38-.08-.56-.12zm12.92-.64a9.65 9.65 0 0 1 .09-1.1c.06-.49.12-.91.17-1.27l.57-3.66.09-1.06-1.08-.34v-.34a4.7 4.7 0 0 1 .87-.24 5.65 5.65 0 0 1 .93-.07H15a1.25 1.25 0 0 1 .37.09l-.81 5.29c0 .26-.07.6-.1 1s0 .71 0 .94a1.05 1.05 0 0 0 .17.67 1.15 1.15 0 0 0 .55.36v.3a3 3 0 0 1-.62.19 4.23 4.23 0 0 1-.73.06.89.89 0 0 1-.65-.21.83.83 0 0 1-.26-.61zm1.95-9.83a.85.85 0 0 1-.6-.23.89.89 0 0 1-.27-.63 1.13 1.13 0 0 1 .31-.79.91.91 0 0 1 .7-.33.78.78 0 0 1 .58.24.82.82 0 0 1 .25.63 1.1 1.1 0 0 1-.31.78.93.93 0 0 1-.66.33zm1.96 10.5l.9-7.76-1.1-.34v-.34a4.83 4.83 0 0 1 .86-.24 5.33 5.33 0 0 1 .93-.07h.37a1.66 1.66 0 0 1 .37.09l-.58 2.76a6.16 6.16 0 0 1 1.46-2.14 2.64 2.64 0 0 1 1.78-.78 1.37 1.37 0 0 1 1 .42 1.7 1.7 0 0 1 .41 1.24 6.52 6.52 0 0 1-.1 1.06c-.06.42-.12.83-.17 1.21l-.32 1.94c0 .21-.06.46-.09.76a5.86 5.86 0 0 0-.06.74.9.9 0 0 0 .22.66 1.23 1.23 0 0 0 .63.28v.3a2.66 2.66 0 0 1-.67.25 3.19 3.19 0 0 1-.77.09.94.94 0 0 1-.65-.21.8.8 0 0 1-.24-.62 7.34 7.34 0 0 1 .08-.9c.05-.38.09-.71.14-1l.34-2.08c0-.27.09-.58.13-.93a7.62 7.62 0 0 0 .05-.88 1.17 1.17 0 0 0-.23-.85A.75.75 0 0 0 21 26c-.5 0-1 .43-1.61 1.29a6.07 6.07 0 0 0-.91 3.21l-.11 3zm8.06-.67a9.65 9.65 0 0 1 .09-1.1c.06-.49.11-.91.16-1.27l.58-3.66.09-1.06-1.08-.34v-.34a4.7 4.7 0 0 1 .87-.24 5.57 5.57 0 0 1 .93-.07h.43a1.24 1.24 0 0 1 .38.09l-.81 5.29c0 .26-.07.6-.1 1s0 .71 0 .94a1.05 1.05 0 0 0 .17.67 1.1 1.1 0 0 0 .55.36v.3a3.08 3.08 0 0 1-.63.19 4.07 4.07 0 0 1-.73.06.92.92 0 0 1-.65-.21.86.86 0 0 1-.25-.61zm1.95-9.83a.83.83 0 0 1-.6-.23.85.85 0 0 1-.24-.63 1.16 1.16 0 0 1 .3-.79 1 1 0 0 1 .7-.33.81.81 0 0 1 .59.24.85.85 0 0 1 .24.63 1.14 1.14 0 0 1-.3.78 1 1 0 0 1-.69.33zm1.3 9.71a1 1 0 0 1 .07-.41 1.22 1.22 0 0 1 .2-.35 2.78 2.78 0 0 0 .82.56 2.3 2.3 0 0 0 .94.2 1.78 1.78 0 0 0 1.08-.34 1.07 1.07 0 0 0 .46-.9 1.53 1.53 0 0 0-.23-.82 5 5 0 0 0-.89-1l-.59-.54a4 4 0 0 1-.84-1 2.28 2.28 0 0 1-.23-1 2.23 2.23 0 0 1 .78-1.63 2.83 2.83 0 0 1 2-.75 3 3 0 0 1 1.46.28.79.79 0 0 1 .5.7 1.5 1.5 0 0 1-.09.49 1.52 1.52 0 0 1-.23.44 3.58 3.58 0 0 0-.95-.7 2.53 2.53 0 0 0-1-.24 1.3 1.3 0 0 0-.9.29 1 1 0 0 0-.3.72 1.19 1.19 0 0 0 .22.71 7.45 7.45 0 0 0 .89.93L32 29a4.33 4.33 0 0 1 .9 1 2.09 2.09 0 0 1 .25 1.05 2.36 2.36 0 0 1-1 1.86 3.59 3.59 0 0 1-2.37.81 2.21 2.21 0 0 1-1.24-.27.84.84 0 0 1-.4-.68zm6.79-1.21a16.84 16.84 0 0 1 .17-2.09c.11-.84.24-1.6.39-2.29l.23-1.18h-1.01v-.24a7.72 7.72 0 0 1 1.07-1.18 9.18 9.18 0 0 1 1.36-1h.27l-.3 1.48h1.22a4.42 4.42 0 0 0 .69-.1 1 1 0 0 1-.36.85 2.06 2.06 0 0 1-1.21.27H37l-.31 1.87c-.07.44-.15 1-.23 1.6a10.94 10.94 0 0 0-.18 1.45 1.79 1.79 0 0 0 .4 1.3 1.29 1.29 0 0 0 1 .42 2 2 0 0 0 .73-.13v.32a1.24 1.24 0 0 1-.57.6 2.06 2.06 0 0 1-1.08.27 1.62 1.62 0 0 1-1.35-.58 2.49 2.49 0 0 1-.48-1.64zm4.4-.86a6.85 6.85 0 0 1 1.24-4.5 3.43 3.43 0 0 1 2.54-1.46 2 2 0 0 1 1.43.46 1.85 1.85 0 0 1 .5 1.39 2.89 2.89 0 0 1-1.35 2.51 5.16 5.16 0 0 1-2.95.91 3.85 3.85 0 0 0 .42 2.17 1.46 1.46 0 0 0 1.2.54 2.82 2.82 0 0 0 1.08-.26 2 2 0 0 0 .88-.64 1.12 1.12 0 0 1 .12.17.53.53 0 0 1 .06.26 1.33 1.33 0 0 1-.77 1.11 3.38 3.38 0 0 1-1.84.47 2.41 2.41 0 0 1-1.89-.76 3.41 3.41 0 0 1-.67-2.37zm1.48-1.51a3.09 3.09 0 0 0 2-.63 2 2 0 0 0 .79-1.64 1.33 1.33 0 0 0-.24-.9.75.75 0 0 0-.63-.28c-.39 0-.81.32-1.26 1a4.28 4.28 0 0 0-.66 2.45zm5.37 4.37l.89-7.76-1.07-.34v-.34a4.51 4.51 0 0 1 .85-.24 5.1 5.1 0 0 1 .89-.07h.38a1.62 1.62 0 0 1 .38.09l-.54 2.62.94-1.52a3.06 3.06 0 0 1 .72-.86 1.37 1.37 0 0 1 .8-.27.56.56 0 0 1 .44.18.73.73 0 0 1 .15.48A2 2 0 0 1 51 26a2.33 2.33 0 0 1-.14.47 1.08 1.08 0 0 0-.27-.05 1.42 1.42 0 0 0-.29 0 2 2 0 0 0-1.57 1 7.05 7.05 0 0 0-.86 3.53l-.14 2.63zm5.68-.67a8.12 8.12 0 0 1 .1-1.1c0-.49.11-.91.16-1.27l.57-3.66.09-1.06-1.08-.34v-.34a4.59 4.59 0 0 1 .88-.24 5.45 5.45 0 0 1 .92-.07h.44a1.18 1.18 0 0 1 .37.09l-.81 5.29c0 .26-.07.6-.1 1s0 .71 0 .94a1.12 1.12 0 0 0 .17.67 1.15 1.15 0 0 0 .55.36v.3a3 3 0 0 1-.62.19 4.15 4.15 0 0 1-.73.06.91.91 0 0 1-.65-.21.87.87 0 0 1-.26-.61zm2-9.83a.81.81 0 0 1-.59-.23.85.85 0 0 1-.27-.63 1.13 1.13 0 0 1 .31-.79.93.93 0 0 1 .7-.33.82.82 0 0 1 .59.24.85.85 0 0 1 .24.63 1.1 1.1 0 0 1-.31.78.93.93 0 0 1-.72.33zm1.63 7.64a6.85 6.85 0 0 1 1.24-4.5 3.41 3.41 0 0 1 2.54-1.46 2 2 0 0 1 1.42.46 1.81 1.81 0 0 1 .5 1.39 2.89 2.89 0 0 1-1.35 2.51 5.14 5.14 0 0 1-3 .91 3.85 3.85 0 0 0 .42 2.17 1.49 1.49 0 0 0 1.2.54 2.78 2.78 0 0 0 1.08-.26 2 2 0 0 0 .88-.64.5.5 0 0 1 .12.17.53.53 0 0 1 .06.26 1.31 1.31 0 0 1-.76 1.11 3.42 3.42 0 0 1-1.85.47 2.39 2.39 0 0 1-1.84-.76 3.36 3.36 0 0 1-.66-2.37zM57 29.19a3.1 3.1 0 0 0 2-.63 2 2 0 0 0 .78-1.64 1.33 1.33 0 0 0-.23-.9.78.78 0 0 0-.63-.28c-.4 0-.82.32-1.26 1a4.2 4.2 0 0 0-.66 2.45zm9 4.68l-.74-8.11-.78-.3v-.38a4.65 4.65 0 0 1 .76-.21 4.2 4.2 0 0 1 .72-.06h.37a1.63 1.63 0 0 1 .37.08l.39 7.36a10.49 10.49 0 0 0 1.62-2.88 8.42 8.42 0 0 0 .65-3.06 1 1 0 0 0-.17-.6 1.36 1.36 0 0 0-.5-.39v-.29a2.85 2.85 0 0 1 .51-.2 2.77 2.77 0 0 1 .61-.07 1 1 0 0 1 .7.25 1.1 1.1 0 0 1 .27.83 9.43 9.43 0 0 1-1.1 3.74 12 12 0 0 1-2.38 3.62 3.21 3.21 0 0 1-.49.39c-.15.1-.31.19-.47.28zm7-.06a1.41 1.41 0 0 1-1.12-.81 4.46 4.46 0 0 1-.5-2.36 6.28 6.28 0 0 1 1.37-4.31A4.18 4.18 0 0 1 76 24.79a7.56 7.56 0 0 1 1 .08 8.12 8.12 0 0 1 1 .21l-.63 3.15A16 16 0 0 0 77 30c-.08.7-.12 1.24-.13 1.63a2.11 2.11 0 0 0 .19 1.12 1 1 0 0 0 .67.34v.37a4 4 0 0 1-.76.2 4.92 4.92 0 0 1-.84.07 2.41 2.41 0 0 1-.4 0l-.36-.09.41-2.69A6.13 6.13 0 0 1 74.51 33a2.19 2.19 0 0 1-1.51.81zm.64-1.24c.39 0 .8-.31 1.26-.92a6.57 6.57 0 0 0 1-2.75l.5-3a1.74 1.74 0 0 0-.46-.08h-.47a2.3 2.3 0 0 0-1.9 1.18 6 6 0 0 0-.81 3.44 3.62 3.62 0 0 0 .29 1.66c.19.3.4.47.61.47zm5.7.99l.9-7.76-1.1-.34v-.34a4.73 4.73 0 0 1 .85-.24 5.49 5.49 0 0 1 .93-.07 2.31 2.31 0 0 1 .37 0 1.54 1.54 0 0 1 .37.09l-.58 2.76a6.31 6.31 0 0 1 1.47-2.14 2.62 2.62 0 0 1 1.77-.78 1.35 1.35 0 0 1 1 .42 1.66 1.66 0 0 1 .42 1.24 7.89 7.89 0 0 1-.1 1.06c-.07.42-.13.83-.17 1.21l-.33 1.94c0 .21 0 .46-.09.76s0 .55 0 .74a.9.9 0 0 0 .21.66 1.31 1.31 0 0 0 .63.28v.3a2.74 2.74 0 0 1-.66.25 3.21 3.21 0 0 1-.78.09.91.91 0 0 1-.64-.21.8.8 0 0 1-.24-.62c0-.22 0-.53.07-.9s.1-.71.15-1l.34-2.08c0-.27.09-.58.13-.93s.05-.64.05-.88a1.22 1.22 0 0 0-.23-.85.76.76 0 0 0-.58-.22c-.51 0-1 .43-1.61 1.29a5.89 5.89 0 0 0-.89 3.23l-.11 3zm10.95-3.85A9.33 9.33 0 0 1 91.85 24a4.47 4.47 0 0 1 3.53-2 3.31 3.31 0 0 1 2.54 1 4.21 4.21 0 0 1 1 3q0 4.07-1.71 6a4.87 4.87 0 0 1-3.66 2 3 3 0 0 1-2.29-1.06 4.61 4.61 0 0 1-.97-3.23zm3.6 3.13a3.16 3.16 0 0 0 2.28-1.53c.78-1 1.18-2.7 1.18-5a4 4 0 0 0-.63-2.48 1.94 1.94 0 0 0-1.57-.8c-.83 0-1.58.55-2.27 1.66a9 9 0 0 0-1 4.73 4.5 4.5 0 0 0 .61 2.6 1.74 1.74 0 0 0 1.4.82zm6.4.72l.9-7.76-1.1-.34v-.34a4.83 4.83 0 0 1 .86-.24 5.33 5.33 0 0 1 .93-.07h.37a1.81 1.81 0 0 1 .37.09l-.62 2.79a6.17 6.17 0 0 1 1.47-2.14 2.62 2.62 0 0 1 1.77-.78 1.37 1.37 0 0 1 1 .42 1.7 1.7 0 0 1 .41 1.24 6.52 6.52 0 0 1-.1 1.06c-.06.42-.12.83-.17 1.21l-.32 1.94c0 .21-.06.46-.09.76a5.86 5.86 0 0 0-.06.74.86.86 0 0 0 .22.66 1.23 1.23 0 0 0 .63.28v.3a2.81 2.81 0 0 1-.67.25 3.19 3.19 0 0 1-.77.09.94.94 0 0 1-.65-.21.83.83 0 0 1-.23-.62 7 7 0 0 1 .07-.9c0-.38.09-.71.14-1l.35-2.08c0-.27.09-.58.12-.93a7.93 7.93 0 0 0 .06-.88 1.17 1.17 0 0 0-.24-.85.75.75 0 0 0-.56-.23c-.5 0-1 .43-1.61 1.29a6.07 6.07 0 0 0-.91 3.21l-.11 3zm9.44.25a1.38 1.38 0 0 1-1.12-.8 4.34 4.34 0 0 1-.52-2.37 6.39 6.39 0 0 1 1.34-4.27 4.05 4.05 0 0 1 3.15-1.58h.68l.52-3.25-1.18-.34v-.3a4.61 4.61 0 0 1 .87-.22 7.82 7.82 0 0 1 1-.07 3.19 3.19 0 0 1 .45 0 2.33 2.33 0 0 1 .38.08l-1.3 7.49c-.06.37-.14.95-.25 1.74a15.73 15.73 0 0 0-.15 1.7 2 2 0 0 0 .21 1.13 1 1 0 0 0 .66.33v.37a7 7 0 0 1-.79.2 4.11 4.11 0 0 1-.82.07 2.54 2.54 0 0 1-.41 0l-.34-.09.45-2.72a7 7 0 0 1-1.28 2.09 2.17 2.17 0 0 1-1.55.81zm.65-1.24c.36 0 .77-.3 1.24-.91a6 6 0 0 0 1-2.78l.51-3a2.35 2.35 0 0 0-.42-.06 3.4 3.4 0 0 0-.45 0 2.39 2.39 0 0 0-1.94 1.11 5.87 5.87 0 0 0-.83 3.48 3.65 3.65 0 0 0 .28 1.65c.17.33.38.51.61.51zm5.37-1.87a6.85 6.85 0 0 1 1.25-4.5 3.41 3.41 0 0 1 2.54-1.46 2 2 0 0 1 1.42.46 1.81 1.81 0 0 1 .51 1.39 2.89 2.89 0 0 1-1.35 2.51 5.19 5.19 0 0 1-3 .91 3.85 3.85 0 0 0 .42 2.17 1.49 1.49 0 0 0 1.2.54 2.74 2.74 0 0 0 1.08-.26 2.05 2.05 0 0 0 .89-.64.71.71 0 0 1 .11.17.53.53 0 0 1 .06.26 1.31 1.31 0 0 1-.76 1.11 3.42 3.42 0 0 1-1.85.47 2.39 2.39 0 0 1-1.84-.76 3.36 3.36 0 0 1-.68-2.37zm1.47-1.51a3.1 3.1 0 0 0 2-.63 2 2 0 0 0 .78-1.64 1.33 1.33 0 0 0-.23-.9.77.77 0 0 0-.63-.28c-.4 0-.82.32-1.26 1a4.2 4.2 0 0 0-.66 2.45zm5.38 4.37l.88-7.76-1.1-.34v-.34a4.83 4.83 0 0 1 .86-.24 5.1 5.1 0 0 1 .89-.07h.38a1.62 1.62 0 0 1 .38.09l-.54 2.62 1-1.59a3.06 3.06 0 0 1 .72-.86 1.32 1.32 0 0 1 .79-.27.54.54 0 0 1 .44.18.73.73 0 0 1 .15.48 2 2 0 0 1 0 .47 2.33 2.33 0 0 1-.14.47 1.28 1.28 0 0 0-.27-.05 1.42 1.42 0 0 0-.29 0 2 2 0 0 0-1.58 1 7.07 7.07 0 0 0-.85 3.53l-.15 2.63zm6.73.31l-.63-8.11-.79-.3v-.38a4.47 4.47 0 0 1 .74-.21 4.15 4.15 0 0 1 .73-.06 2.31 2.31 0 0 1 .37 0 1.53 1.53 0 0 1 .37.08l.27 7.26a10.28 10.28 0 0 0 1.61-3.02 11.73 11.73 0 0 0 .79-4.12 3.26 3.26 0 0 1 .44-.15 2.18 2.18 0 0 1 .42-.05 1 1 0 0 1 .68.19.75.75 0 0 1 .24.58l.34 6.54a11.06 11.06 0 0 0 1.54-2.78 7.74 7.74 0 0 0 .62-2.78 1.6 1.6 0 0 0-.14-.71 1.39 1.39 0 0 0-.54-.5V25a3.25 3.25 0 0 1 .5-.18 2.86 2.86 0 0 1 .62-.07.94.94 0 0 1 .67.27 1.1 1.1 0 0 1 .28.83 8.85 8.85 0 0 1-1.13 3.89 13.09 13.09 0 0 1-2.58 3.57l-.37.32a2 2 0 0 1-.32.2h-.3l-.25-8.75a13.29 13.29 0 0 1-1 4.72 9.56 9.56 0 0 1-2.1 3.45l-.39.33a3.9 3.9 0 0 1-.36.25zm10.28-.98a9.65 9.65 0 0 1 .09-1.1c.06-.49.12-.91.16-1.27l.58-3.66.09-1.06-1.08-.34v-.34a4.7 4.7 0 0 1 .87-.24 5.65 5.65 0 0 1 .93-.07h.43a1.24 1.24 0 0 1 .38.09l-.81 5.29c0 .26-.07.6-.1 1s0 .71 0 .94a1.05 1.05 0 0 0 .17.67 1.1 1.1 0 0 0 .55.36v.3a3.08 3.08 0 0 1-.63.19 4 4 0 0 1-.72.06.89.89 0 0 1-.65-.21.83.83 0 0 1-.26-.61zm1.95-9.83a.85.85 0 0 1-.6-.23.89.89 0 0 1-.23-.63 1.16 1.16 0 0 1 .3-.79 1 1 0 0 1 .71-.33.8.8 0 0 1 .58.24.86.86 0 0 1 .25.63 1.15 1.15 0 0 1-.31.78 1 1 0 0 1-.7.33z" data-name="&lt;Compound Path&gt;"/><path d="M143.33 34.71l1-7.83.05-1.08-1.09-.34v-.34a4.4 4.4 0 0 1 .88-.24 5.46 5.46 0 0 1 .9-.07 3 3 0 0 1 .42 0 1.59 1.59 0 0 1 .39.08l-1.15 9.72a4.93 4.93 0 0 1-.93 2.6 2.09 2.09 0 0 1-1.58.77 2 2 0 0 1-.7-.13 1.22 1.22 0 0 1-.54-.36v-.29a2.28 2.28 0 0 0 1.54-.57 2.91 2.91 0 0 0 .81-1.92zm2-11.65a.79.79 0 0 1-.83-.86 1.16 1.16 0 0 1 .3-.79 1 1 0 0 1 .71-.33.8.8 0 0 1 .58.24.86.86 0 0 1 .25.63 1.15 1.15 0 0 1-.31.78 1 1 0 0 1-.66.33zm1.07 9.71a1 1 0 0 1 .07-.41 1.22 1.22 0 0 1 .2-.35 2.78 2.78 0 0 0 .82.56 2.3 2.3 0 0 0 .94.2 1.78 1.78 0 0 0 1.08-.34 1.08 1.08 0 0 0 .45-.9 1.53 1.53 0 0 0-.22-.82 5 5 0 0 0-.89-1l-.63-.57a4 4 0 0 1-.84-1 2.28 2.28 0 0 1-.22-1 2.22 2.22 0 0 1 .77-1.63 2.81 2.81 0 0 1 2-.75 3 3 0 0 1 1.46.28.77.77 0 0 1 .5.7 1.5 1.5 0 0 1-.09.49 1.52 1.52 0 0 1-.23.44 3.58 3.58 0 0 0-.93-.64 2.53 2.53 0 0 0-1-.24 1.3 1.3 0 0 0-.9.29 1 1 0 0 0-.3.72 1.19 1.19 0 0 0 .22.71 7.45 7.45 0 0 0 .89.93l.69.61a4.33 4.33 0 0 1 .9 1 2.2 2.2 0 0 1 .25 1.05 2.36 2.36 0 0 1-1 1.86 3.59 3.59 0 0 1-2.37.81 2.27 2.27 0 0 1-1.25-.27.86.86 0 0 1-.37-.73zm6.47-.4a2 2 0 0 1 .57-.55 1.13 1.13 0 0 1 .62-.2.87.87 0 0 1 .64.28 1.18 1.18 0 0 1 .28.82 3.19 3.19 0 0 1-.79 2 3 3 0 0 1-1.5 1.17l-.51-.1a4.82 4.82 0 0 0 1-1.34 3.05 3.05 0 0 0 .37-1.33zm7.28-2.79q0-3.85 1.68-5.76a4.84 4.84 0 0 1 3.61-1.91 7.81 7.81 0 0 1 1.17.07 5.13 5.13 0 0 1 1 .25l-.34 2.31h-.47l-.09-.43a1.44 1.44 0 0 0-.49-.95 1.57 1.57 0 0 0-1-.28 3.15 3.15 0 0 0-2.34 1.58 8.31 8.31 0 0 0-1.16 4.89 4.42 4.42 0 0 0 .64 2.63 1.88 1.88 0 0 0 1.52.86 2.51 2.51 0 0 0 1.32-.3 2.34 2.34 0 0 0 .83-1l.18-.45h.5l-.29 2.2a6.11 6.11 0 0 1-1.29.43 7.89 7.89 0 0 1-1.55.14 3.24 3.24 0 0 1-2.47-1 4.62 4.62 0 0 1-.96-3.28zm8.17 2.52a3.56 3.56 0 0 1 .08-.68c0-.25.09-.47.12-.67l.42-2.12c.05-.3.12-.67.18-1.11a8.32 8.32 0 0 0 .09-1.07 1 1 0 0 0-.22-.69 1.19 1.19 0 0 0-.61-.32v-.31a4.14 4.14 0 0 1 .65-.23 3.13 3.13 0 0 1 .77-.09.89.89 0 0 1 .66.22.79.79 0 0 1 .22.61 8.58 8.58 0 0 1-.12 1.23c-.09.52-.17 1-.26 1.56l-.39 2a5 5 0 0 0-.12.68 6 6 0 0 0 0 .67.85.85 0 0 0 .17.58.58.58 0 0 0 .46.19c.42 0 .92-.37 1.51-1.11a5.57 5.57 0 0 0 1-3.14l.2-3.11a4.77 4.77 0 0 1 .78-.25 4.09 4.09 0 0 1 .84-.1l-.5 2.82c-.12.61-.23 1.28-.32 2a16.09 16.09 0 0 0-.13 1.92 2.15 2.15 0 0 0 .19 1.14.91.91 0 0 0 .64.34v.37a5.85 5.85 0 0 1-.8.2 4.54 4.54 0 0 1-.82.07h-.4a1.91 1.91 0 0 1-.34-.1l.48-2.47a8.89 8.89 0 0 1-1.39 1.78 2.43 2.43 0 0 1-1.64.85 1.25 1.25 0 0 1-1-.45 1.78 1.78 0 0 1-.4-1.21zm7.79.78c0-.25 0-.63.07-1.12s.1-.91.15-1.24l1.26-8.94-1.14-.34v-.34a5.55 5.55 0 0 1 .87-.22 6.76 6.76 0 0 1 .93-.07 3.19 3.19 0 0 1 .45 0 1.68 1.68 0 0 1 .38.08l-1.35 9.44c0 .29-.08.62-.11 1s0 .7 0 1a.94.94 0 0 0 .21.67 1.33 1.33 0 0 0 .6.36v.3a3 3 0 0 1-.64.19 4.47 4.47 0 0 1-.75.06.9.9 0 0 1-.67-.22.85.85 0 0 1-.26-.61zm3.96-1.32a16.84 16.84 0 0 1 .17-2.09c.12-.84.25-1.6.39-2.29l.23-1.15h-1v-.24a6.8 6.8 0 0 1 1.07-1.18 8.69 8.69 0 0 1 1.36-1h.27l-.31 1.48h1.23a4.47 4.47 0 0 0 .68-.1 1 1 0 0 1-.36.85 2.06 2.06 0 0 1-1.21.27h-.5l-.31 1.87c-.07.44-.15 1-.23 1.6a10.94 10.94 0 0 0-.13 1.48 1.79 1.79 0 0 0 .4 1.3 1.29 1.29 0 0 0 1 .42 2.17 2.17 0 0 0 .38 0 2.22 2.22 0 0 0 .36-.1V33a1.32 1.32 0 0 1-.58.6 2.06 2.06 0 0 1-1.08.27 1.62 1.62 0 0 1-1.35-.58 2.54 2.54 0 0 1-.48-1.73zm4.93.54a3.49 3.49 0 0 1 .07-.68l.13-.67.41-2.12q.09-.45.18-1.11a8.32 8.32 0 0 0 .09-1.07 1 1 0 0 0-.21-.69 1.22 1.22 0 0 0-.62-.32v-.31a4.67 4.67 0 0 1 .66-.23 3.07 3.07 0 0 1 .77-.09.88.88 0 0 1 .65.22.79.79 0 0 1 .23.61 7.55 7.55 0 0 1-.13 1.23c-.08.52-.17 1-.25 1.56l-.4 2a5.09 5.09 0 0 0-.11.68 6.42 6.42 0 0 0-.05.67.91.91 0 0 0 .17.58.59.59 0 0 0 .46.19c.42 0 .92-.37 1.51-1.11a5.65 5.65 0 0 0 1-3.14l.2-3.11a4.64 4.64 0 0 1 .77-.25 4.19 4.19 0 0 1 .85-.1l-.51 2.82c-.12.61-.22 1.28-.31 2a16.33 16.33 0 0 0-.14 1.92 2.26 2.26 0 0 0 .19 1.14.93.93 0 0 0 .64.34v.37a5.51 5.51 0 0 1-.8.2 4.47 4.47 0 0 1-.82.07h-.4a2.19 2.19 0 0 1-.34-.1l.49-2.47a8.54 8.54 0 0 1-1.38 1.78 2.41 2.41 0 0 1-1.64.85 1.28 1.28 0 0 1-1-.45 1.78 1.78 0 0 1-.36-1.21zm7.75 0a3.49 3.49 0 0 1 .07-.68l.13-.67.41-2.12q.09-.45.18-1.11a8.32 8.32 0 0 0 .09-1.07 1 1 0 0 0-.22-.69 1.15 1.15 0 0 0-.61-.32v-.31a4.67 4.67 0 0 1 .66-.23 3.13 3.13 0 0 1 .77-.09.88.88 0 0 1 .65.22.79.79 0 0 1 .23.61 7.55 7.55 0 0 1-.13 1.23c-.08.52-.17 1-.25 1.56l-.4 2c0 .19-.08.42-.11.68a6.42 6.42 0 0 0-.05.67.91.91 0 0 0 .17.58.59.59 0 0 0 .46.19c.42 0 .93-.37 1.52-1.11a5.73 5.73 0 0 0 1-3.14l.2-3.11a4.64 4.64 0 0 1 .77-.25 4.19 4.19 0 0 1 .85-.1l-.51 2.82c-.12.61-.22 1.28-.31 2a16.33 16.33 0 0 0-.14 1.92 2.26 2.26 0 0 0 .19 1.14.93.93 0 0 0 .64.34v.37a5.51 5.51 0 0 1-.8.2 4.47 4.47 0 0 1-.82.07h-.4a1.91 1.91 0 0 1-.34-.1l.49-2.47a8.54 8.54 0 0 1-1.39 1.78 2.41 2.41 0 0 1-1.63.85 1.25 1.25 0 0 1-1-.45 1.73 1.73 0 0 1-.37-1.21zm7.86 1.46l.88-7.76-1.1-.34v-.34a4.83 4.83 0 0 1 .86-.24 5.1 5.1 0 0 1 .89-.07h.38a1.62 1.62 0 0 1 .38.09l-.54 2.62 1-1.59a3.06 3.06 0 0 1 .72-.86 1.35 1.35 0 0 1 .79-.27.54.54 0 0 1 .44.18.73.73 0 0 1 .16.48 2 2 0 0 1-.06.47 2.33 2.33 0 0 1-.14.47 1.17 1.17 0 0 0-.27-.05 1.42 1.42 0 0 0-.29 0 2 2 0 0 0-1.58 1 7.07 7.07 0 0 0-.85 3.53l-.14 2.63zm7.8-2.86a6.85 6.85 0 0 1 1.24-4.5 3.41 3.41 0 0 1 2.54-1.46 2 2 0 0 1 1.42.46 1.81 1.81 0 0 1 .51 1.39 2.89 2.89 0 0 1-1.35 2.51 5.17 5.17 0 0 1-3 .91 3.74 3.74 0 0 0 .43 2.17 1.45 1.45 0 0 0 1.19.54 2.82 2.82 0 0 0 1.09-.26 2 2 0 0 0 .88-.64.71.71 0 0 1 .11.17.44.44 0 0 1 .07.26 1.33 1.33 0 0 1-.77 1.11 3.38 3.38 0 0 1-1.84.47 2.4 2.4 0 0 1-1.85-.76 3.41 3.41 0 0 1-.67-2.37zm1.47-1.51a3.1 3.1 0 0 0 2-.63 2 2 0 0 0 .79-1.64 1.33 1.33 0 0 0-.24-.9.75.75 0 0 0-.63-.28c-.39 0-.82.32-1.26 1a4.28 4.28 0 0 0-.66 2.45zm5.37 4.37l.9-7.76-1.1-.34v-.34a4.83 4.83 0 0 1 .86-.24 5.33 5.33 0 0 1 .93-.07h.37a1.66 1.66 0 0 1 .37.09l-.58 2.79a6.17 6.17 0 0 1 1.47-2.14 2.62 2.62 0 0 1 1.77-.78 1.37 1.37 0 0 1 1 .42 1.7 1.7 0 0 1 .41 1.24 6.52 6.52 0 0 1-.1 1.06c-.06.42-.12.83-.17 1.21l-.32 1.94c0 .21-.06.46-.09.76a5.86 5.86 0 0 0-.06.74.9.9 0 0 0 .22.66 1.23 1.23 0 0 0 .63.28v.3a2.81 2.81 0 0 1-.67.25 3.19 3.19 0 0 1-.77.09.94.94 0 0 1-.65-.21.83.83 0 0 1-.23-.62 7 7 0 0 1 .07-.9c.05-.38.1-.71.14-1l.35-2.08c0-.27.09-.58.12-.93a7.62 7.62 0 0 0 0-.88 1.17 1.17 0 0 0-.23-.85.73.73 0 0 0-.56-.23c-.5 0-1 .43-1.61 1.29a6.07 6.07 0 0 0-.91 3.21l-.11 3zM2.76 54.37l-1.43-10.8-.92-.31v-.36a4.13 4.13 0 0 1 .78-.21 4.77 4.77 0 0 1 .81-.06 5.54 5.54 0 0 1 .73 0 3.38 3.38 0 0 1 .69.14v.31a.63.63 0 0 0-.35.22.4.4 0 0 0-.1.3l.8 8.4 2.93-9.25 1.66-.08.72 9.65 2.77-8.77-.95-.29v-.36a6.47 6.47 0 0 1 .84-.2 5.22 5.22 0 0 1 .88-.07 2.41 2.41 0 0 1 .54 0 2 2 0 0 1 .51.13v.31a1 1 0 0 0-.4.2.79.79 0 0 0-.23.32l-3.8 10.73-1.24.05-.87-10.14L4 54.32zM13 51.33a6.8 6.8 0 0 1 1.24-4.49 3.43 3.43 0 0 1 2.54-1.47 2 2 0 0 1 1.42.46 1.81 1.81 0 0 1 .51 1.39 2.88 2.88 0 0 1-1.36 2.51 5.14 5.14 0 0 1-2.95.91 3.85 3.85 0 0 0 .42 2.17 1.49 1.49 0 0 0 1.2.54 2.74 2.74 0 0 0 1.08-.26 2.05 2.05 0 0 0 .89-.64.71.71 0 0 1 .11.17.44.44 0 0 1 .07.26 1.33 1.33 0 0 1-.76 1.12 3.39 3.39 0 0 1-1.85.47 2.39 2.39 0 0 1-1.84-.76 3.36 3.36 0 0 1-.72-2.38zm1.48-1.51a3.09 3.09 0 0 0 2-.63 2 2 0 0 0 .78-1.64 1.33 1.33 0 0 0-.23-.9.78.78 0 0 0-.63-.28c-.4 0-.82.32-1.26 1a4.28 4.28 0 0 0-.65 2.45zM20 52.19a15.1 15.1 0 0 1 .17-2.09c.11-.84.24-1.6.39-2.29l.23-1.15h-1.01v-.24a7.67 7.67 0 0 1 1.07-1.17 8.57 8.57 0 0 1 1.36-1h.27l-.3 1.48h1.22a4.42 4.42 0 0 0 .69-.1 1 1 0 0 1-.36.85 2.08 2.08 0 0 1-1.21.27H22l-.3 1.87c-.07.44-.15 1-.24 1.6a12.45 12.45 0 0 0-.12 1.48 1.84 1.84 0 0 0 .39 1.3 1.32 1.32 0 0 0 1 .42 2.09 2.09 0 0 0 .38 0 2 2 0 0 0 .36-.1v.32a1.24 1.24 0 0 1-.57.6 2.07 2.07 0 0 1-1.09.27 1.64 1.64 0 0 1-1.35-.58 2.54 2.54 0 0 1-.46-1.74zm4.37-.86a6.8 6.8 0 0 1 1.24-4.49 3.45 3.45 0 0 1 2.54-1.47 2 2 0 0 1 1.42.46 1.81 1.81 0 0 1 .51 1.39 2.89 2.89 0 0 1-1.35 2.51 5.17 5.17 0 0 1-3 .91 3.74 3.74 0 0 0 .43 2.17 1.45 1.45 0 0 0 1.19.54 2.82 2.82 0 0 0 1.09-.26 2 2 0 0 0 .88-.64 1.12 1.12 0 0 1 .12.17.53.53 0 0 1 .06.26 1.33 1.33 0 0 1-.73 1.12 3.38 3.38 0 0 1-1.84.47 2.4 2.4 0 0 1-1.85-.76 3.41 3.41 0 0 1-.71-2.38zm1.48-1.51a3.09 3.09 0 0 0 2-.63 2 2 0 0 0 .79-1.64 1.33 1.33 0 0 0-.24-.9.75.75 0 0 0-.63-.28c-.39 0-.81.32-1.26 1a4.28 4.28 0 0 0-.66 2.45zm5.36 4.37l.9-7.76-1.11-.34v-.34a4.83 4.83 0 0 1 .86-.24 5.33 5.33 0 0 1 .93-.07h.37a1.66 1.66 0 0 1 .37.09L33 48.32a6.31 6.31 0 0 1 1.47-2.14 2.62 2.62 0 0 1 1.77-.78 1.37 1.37 0 0 1 1 .42 1.7 1.7 0 0 1 .41 1.24 6.52 6.52 0 0 1-.1 1.06c-.06.42-.12.83-.17 1.21l-.32 1.94c0 .21-.06.46-.09.76a5.86 5.86 0 0 0-.06.74.9.9 0 0 0 .22.66 1.23 1.23 0 0 0 .63.28V54a2.81 2.81 0 0 1-.67.25 3.13 3.13 0 0 1-.77.09.94.94 0 0 1-.65-.21.82.82 0 0 1-.23-.61 7 7 0 0 1 .07-.91c0-.38.1-.71.14-1l.35-2.07c0-.27.09-.58.12-.93a7.93 7.93 0 0 0 .06-.88 1.17 1.17 0 0 0-.24-.85.73.73 0 0 0-.56-.23c-.5 0-1 .43-1.61 1.29a6.09 6.09 0 0 0-.91 3.21l-.11 3zm7.52-.79a1.25 1.25 0 0 1 .07-.4 1.75 1.75 0 0 1 .2-.35 2.92 2.92 0 0 0 .82.56 2.34 2.34 0 0 0 1 .2 1.78 1.78 0 0 0 1.08-.34 1.08 1.08 0 0 0 .45-.9 1.53 1.53 0 0 0-.23-.82 4.7 4.7 0 0 0-.89-1l-.63-.57a4 4 0 0 1-.84-1 2.25 2.25 0 0 1 .55-2.67 2.83 2.83 0 0 1 2-.75 3 3 0 0 1 1.47.28.78.78 0 0 1 .49.7 1.5 1.5 0 0 1-.09.49 1.52 1.52 0 0 1-.23.44 3.42 3.42 0 0 0-.93-.64 2.5 2.5 0 0 0-1-.24 1.3 1.3 0 0 0-.9.29 1 1 0 0 0-.3.72 1.19 1.19 0 0 0 .22.71 7 7 0 0 0 .9.93l.68.61a4.33 4.33 0 0 1 .9 1 2.09 2.09 0 0 1 .25 1 2.36 2.36 0 0 1-1 1.86 3.55 3.55 0 0 1-2.37.81 2.24 2.24 0 0 1-1.24-.27.84.84 0 0 1-.43-.65zm8.5 1.1a2 2 0 0 1-1.62-.8 3.83 3.83 0 0 1-.61-2.43 7 7 0 0 1 1.18-4.43 3.34 3.34 0 0 1 2.59-1.47 2.2 2.2 0 0 1 1.19.25.72.72 0 0 1 .37.61 2.07 2.07 0 0 1-.1.66 2.85 2.85 0 0 1-.31.6 2.24 2.24 0 0 0-.68-.77 1.54 1.54 0 0 0-.87-.27c-.42 0-.85.36-1.31 1.1a6.91 6.91 0 0 0-.71 3.45 3.13 3.13 0 0 0 .41 1.8 1.16 1.16 0 0 0 .91.57 1.82 1.82 0 0 0 1-.31 3.47 3.47 0 0 0 .85-.77.48.48 0 0 1 .12.2.85.85 0 0 1 0 .29A1.52 1.52 0 0 1 49 54a2.77 2.77 0 0 1-1.77.5zm3.65-.31l.76-5.85.59-6.13-1.12-.34v-.34a5.49 5.49 0 0 1 .91-.22 7.56 7.56 0 0 1 .93-.07 2.94 2.94 0 0 1 .44 0 2.24 2.24 0 0 1 .39.08l-1 6.59a5.9 5.9 0 0 1 1.35-1.84 2.54 2.54 0 0 1 1.68-.7 1.29 1.29 0 0 1 1 .46 1.8 1.8 0 0 1 .38 1.2 7.81 7.81 0 0 1-.09 1.08c-.06.42-.12.82-.18 1.19l-.32 1.89c0 .22-.07.48-.1.79s-.05.57-.05.76a.9.9 0 0 0 .21.66 1.23 1.23 0 0 0 .64.28V54a3 3 0 0 1-.67.25 3.13 3.13 0 0 1-.77.09.94.94 0 0 1-.65-.21.78.78 0 0 1-.23-.61 6.42 6.42 0 0 1 .08-.94q.08-.6.15-1.05l.33-2c0-.26.09-.58.12-.95a8 8 0 0 0 .05-.86 1.17 1.17 0 0 0-.23-.84.78.78 0 0 0-.58-.24c-.44 0-.93.36-1.46 1.09a5.54 5.54 0 0 0-.93 3l-.22 3.44zm9.41.25a1.38 1.38 0 0 1-1.13-.81 4.45 4.45 0 0 1-.51-2.36A6.23 6.23 0 0 1 60 47a4.17 4.17 0 0 1 3.2-1.54 7.56 7.56 0 0 1 1 .08c.37.06.7.13 1 .21l-.63 3.15a16 16 0 0 0-.28 1.76c-.08.7-.13 1.24-.14 1.63a2.09 2.09 0 0 0 .2 1.12 1 1 0 0 0 .67.34v.37a4.12 4.12 0 0 1-.77.2 4.76 4.76 0 0 1-.84.07 2.38 2.38 0 0 1-.39 0l-.36-.09.41-2.69a6.12 6.12 0 0 1-1.29 2.12 2.2 2.2 0 0 1-1.49.71zm.65-1.24c.38 0 .8-.31 1.25-.92a6.44 6.44 0 0 0 1-2.75l.51-3a1.82 1.82 0 0 0-.46-.08h-.48a2.3 2.3 0 0 0-1.89 1.15A6 6 0 0 0 60 51a3.62 3.62 0 0 0 .29 1.66c.23.34.43.54.65.54zm6.81.8l-.26 2.58a2.25 2.25 0 0 0 .09 1.06.85.85 0 0 0 .54.41v.31a3.47 3.47 0 0 1-.67.17 5.54 5.54 0 0 1-.73 0 3.85 3.85 0 0 1-.48 0 3.51 3.51 0 0 1-.42-.08l.32-1.45 1.41-10.57-1.1-.34v-.34a5.39 5.39 0 0 1 .88-.22 5.46 5.46 0 0 1 .9-.07 2.31 2.31 0 0 1 .37 0 1.2 1.2 0 0 1 .35.08l-.47 2.77a5.78 5.78 0 0 1 1.24-2.14 2.22 2.22 0 0 1 1.48-.83 1.42 1.42 0 0 1 1.16.74 4.07 4.07 0 0 1 .5 2.25 6.74 6.74 0 0 1-1.29 4.49A3.6 3.6 0 0 1 69 54.34a2.88 2.88 0 0 1-.63-.07 1.94 1.94 0 0 1-.62-.27zm.16-.7a3.26 3.26 0 0 0 .53.09h.5a2.23 2.23 0 0 0 1.74-1.13 5.79 5.79 0 0 0 .81-3.38 4.18 4.18 0 0 0-.28-1.83c-.18-.34-.39-.51-.62-.51s-.8.35-1.29 1a6.72 6.72 0 0 0-1 3z" data-name="&lt;Compound Path&gt;"/></g></g></g></svg>