<svg xmlns="http://www.w3.org/2000/svg" viewBox="0 0 160 40">
  <g fill="#000" fill-rule="nonzero">
    <path d="M1 11.556c.557-.17.843-.446.888-.906l.662-7.837-.873-.26v-.445C2.355 2.015 3.182 2 3.724 2h.542l2.362 7.438h.015L8.931 2h.647c.541 0 1.218.015 1.82.108v.444l-.933.23.662 8.435.873.17v.337c-.361.169-.873.26-1.46.26-.692 0-1.128-.03-1.655-.153v-.29c.632-.154.918-.538.888-1.167l-.376-6.963h-.03l-2.679 8.513-.587.076-2.708-8.574-.015.016-.467 7.684.978.26v.338c-.647.2-1.008.26-1.73.26-.346 0-.783-.06-1.159-.153v-.275zM14.163 11.587c.401-.158.787-.476.787-.857V5.365L14 4.936v-.333c.668-.206 1.352-.301 1.767-.301h.475l-.074.856v6.033l.832.238v.301c-.505.191-.965.27-1.723.27-.342 0-.772-.032-1.114-.143v-.27zm.624-9.65c0-.493.327-.937.846-.937.417 0 .773.333.773.857 0 .556-.356.984-.832.984-.446 0-.787-.38-.787-.905zM18.198 11.573c.43-.164.876-.493.876-.887V5.134L18 4.69V4.33a7.814 7.814 0 0 1 1.984-.296h.396v.887c.562-.558 1.487-.92 2.446-.92 1.373 0 2.315.87 2.315 2.563v4.6l.859.246v.312c-.446.18-1.025.279-1.736.279-.347 0-.743-.033-1.074-.148v-.28c.413-.18.595-.492.595-1.083V7.351c0-1.61-.678-2.217-1.653-2.217-.678 0-1.338.23-1.703.51v5.519l.926.246v.312c-.561.197-1.09.279-1.917.279-.397 0-.86-.033-1.24-.148v-.28zM26.163 11.587c.401-.158.788-.476.788-.857V5.365L26 4.936v-.333c.668-.206 1.351-.301 1.768-.301h.475l-.075.856v6.033l.832.238v.301c-.505.191-.966.27-1.723.27-.341 0-.773-.032-1.114-.143v-.27zm.624-9.65c0-.493.327-.937.847-.937.415 0 .772.333.772.857 0 .556-.357.984-.832.984-.445 0-.787-.38-.787-.905zM30.144 10.029c.718.673 1.406 1.01 2.252 1.01.894 0 1.358-.434 1.358-.994 0-.562-.32-.915-1.374-1.364l-.798-.336c-.927-.401-1.438-1.074-1.438-1.988C30.144 5.09 31.262 4 32.924 4c1.277 0 1.788.385 1.788.994 0 .24-.032.45-.08.673-.51-.352-1.214-.609-1.82-.609-1.023 0-1.502.449-1.502.994 0 .577.288.898 1.246 1.267l.862.336C34.568 8.105 35 8.698 35 9.643 35 10.878 33.818 12 32.029 12 30.623 12 30 11.552 30 10.686c0-.225.048-.482.144-.657zM36.754 7.428l.043-2.126H36v-.527l1.565-1.71.479-.065-.059 1.439H39.9l-.103.863h-1.854l-.029 2.014c-.014.671-.014 1.279-.014 1.87 0 1.296.347 1.743.883 1.743.421 0 .783-.16 1.073-.416l.145.064c-.058.943-.565 1.423-1.565 1.423-1.16 0-1.725-.672-1.725-2.223 0-.767.03-1.614.044-2.35zM43.283 4C44.98 4 46 5.157 46 7.004c0 .305 0 .626-.015 1.028h-4.633c0 1.8 1.02 2.844 2.324 2.844.77 0 1.618-.274 2.214-.69.032.08.063.257.063.416 0 .724-1.036 1.398-2.702 1.398C41.461 12 40 10.571 40 8.321 40 5.526 41.65 4 43.283 4zm1.46 3.197c0-1.575-.659-2.33-1.586-2.33-.863 0-1.775 1.06-1.775 2.33h3.361zM47.191 11.575c.416-.162.848-.49.848-.881V5.175L47 4.735v-.36a7.36 7.36 0 0 1 1.917-.293h.384v1.142h.016l.447-.506c.431-.473.862-.718 1.406-.718.56 0 .83.245.83.702 0 .31-.096.67-.256.98a1.594 1.594 0 0 0-.99-.376c-.495 0-.958.229-1.406.67v5.192l1.103.245v.31c-.543.196-1.07.277-1.982.277-.463 0-.91-.033-1.278-.147v-.278zM53.163 11.587c.401-.158.788-.476.788-.857V5.365L53 4.936v-.333c.668-.206 1.351-.301 1.768-.301h.475l-.075.856v6.033l.832.238v.301c-.505.191-.966.27-1.723.27-.341 0-.773-.032-1.114-.143v-.27zm.624-9.65c0-.493.327-.937.847-.937.415 0 .772.333.772.857 0 .556-.357.984-.832.984-.445 0-.787-.38-.787-.905zM60.282 4C61.98 4 63 5.157 63 7.004c0 .305 0 .626-.016 1.028H58.35c0 1.8 1.021 2.844 2.325 2.844.77 0 1.618-.274 2.214-.69.032.08.064.257.064.416 0 .724-1.037 1.398-2.702 1.398C58.46 12 57 10.571 57 8.321 57 5.526 58.65 4 60.282 4zm1.462 3.197c0-1.575-.66-2.33-1.587-2.33-.864 0-1.775 1.06-1.775 2.33h3.362zM65.636 4.865L65 4.392V4h2.965v.392l-.885.392 1.676 5.175h.016l1.722-5.127-.884-.44V4H72v.392l-.434.375-2.763 7.2-.528.033zM77.148 7.591v-.433c0-1.731-.414-2.1-1.42-2.1-.877 0-1.723.369-2.393 1.042a2.393 2.393 0 0 1-.048-.481c0-1.026.75-1.619 2.617-1.619 1.611 0 2.57.818 2.57 2.148 0 .353-.049 1.154-.064 1.62l-.048 2.597c.111.289.35.593.638.818-.24.288-.67.609-1.086.817a2.172 2.172 0 0 1-.733-.786c-.447.434-1.31.77-2.155.77-1.197 0-2.026-.754-2.026-1.78 0-1.41 1.532-2.613 4.148-2.613zm-1.531 3.431c.495 0 1.132-.192 1.531-.433V8.345c-1.802 0-2.776.753-2.776 1.619 0 .641.431 1.058 1.245 1.058zM79.198 11.573c.43-.164.877-.493.877-.887V5.134L79 4.69V4.33a7.814 7.814 0 0 1 1.984-.296h.396v.887c.562-.558 1.487-.92 2.446-.92 1.373 0 2.315.87 2.315 2.563v4.6l.859.246v.312c-.447.18-1.025.279-1.736.279-.347 0-.743-.033-1.074-.148v-.28c.413-.18.595-.492.595-1.083V7.351c0-1.61-.678-2.217-1.653-2.217-.677 0-1.34.23-1.703.51v5.519l.926.246v.312c-.562.197-1.091.279-1.917.279-.397 0-.86-.033-1.24-.148v-.28zM95.793 2C98.126 2 100 3.744 100 6.526 100 9.985 97.761 12 95.222 12 92.889 12 91 10.196 91 7.218 91 4.075 93.317 2 95.793 2zm2.651 4.797c0-2.632-1.349-3.835-2.826-3.835-1.523 0-3.047 1.444-3.047 4.075 0 2.647 1.366 4 2.81 4 1.523 0 3.063-1.323 3.063-4.24zM101.198 11.573c.43-.164.877-.493.877-.887V5.134L101 4.69V4.33a7.814 7.814 0 0 1 1.984-.296h.396v.887c.562-.558 1.487-.92 2.446-.92 1.373 0 2.315.87 2.315 2.563v4.6l.859.246v.312c-.447.18-1.025.279-1.736.279-.347 0-.743-.033-1.074-.148v-.28c.413-.18.595-.492.595-1.083V7.351c0-1.61-.678-2.217-1.653-2.217-.677 0-1.34.23-1.703.51v5.519l.926.246v.312c-.562.197-1.091.279-1.917.279-.397 0-.86-.033-1.24-.148v-.28zM112.908 4.537c.393 0 .868.045 1.13.105V2.004l-1.113-.405V1.27a8.831 8.831 0 0 1 2.028-.27h.524l-.098.84v8.586c.114.3.31.615.621.87-.328.27-.687.48-1.145.704a2.77 2.77 0 0 1-.785-.899c-.523.495-1.423.855-2.093.855-1.652 0-2.977-1.26-2.977-3.253 0-2.697 1.783-4.166 3.908-4.166zm1.146 5.965v-4.96a4.325 4.325 0 0 0-1.194-.166c-1.39 0-2.437 1.004-2.437 3.087 0 1.634.932 2.518 1.962 2.518.622 0 1.292-.195 1.669-.48zM120.283 4C121.98 4 123 5.157 123 7.004c0 .305 0 .626-.015 1.028h-4.633c0 1.8 1.02 2.844 2.324 2.844.77 0 1.618-.274 2.214-.69.032.08.063.257.063.416 0 .724-1.036 1.398-2.702 1.398-1.79 0-3.251-1.429-3.251-3.679C117 5.526 118.65 4 120.283 4zm1.46 3.197c0-1.575-.659-2.33-1.586-2.33-.863 0-1.775 1.06-1.775 2.33h3.361zM124.191 11.575c.416-.162.848-.49.848-.881V5.175L124 4.735v-.36a7.36 7.36 0 0 1 1.917-.293h.384v1.142h.016l.447-.506c.431-.473.862-.718 1.406-.718.56 0 .83.245.83.702 0 .31-.096.67-.256.98a1.594 1.594 0 0 0-.99-.376c-.495 0-.958.229-1.406.67v5.192l1.103.245v.31c-.543.196-1.07.277-1.982.277-.463 0-.91-.033-1.278-.147v-.278zM129.674 4.881L129 4.392V4h3.04v.392l-.908.392 1.394 5.241h.015l1.552-5.208-.862-.425V4h2.664v.392l-.455.359 1.411 5.257h.015l1.614-5.176-.893-.44V4H140v.392l-.423.359-2.633 7.216-.658.033-1.739-6.008h-.016l-1.801 5.975-.706.033zM140.163 11.587c.401-.158.788-.476.788-.857V5.365L140 4.936v-.333c.668-.206 1.351-.301 1.768-.301h.475l-.075.856v6.033l.832.238v.301c-.505.191-.966.27-1.723.27-.341 0-.773-.032-1.114-.143v-.27zm.624-9.65c0-.493.327-.937.847-.937.415 0 .772.333.772.857 0 .556-.357.984-.832.984-.445 0-.787-.38-.787-.905zM144.41 5.148l-1.037-.407v-.317c.745-.196 1.476-.286 1.946-.286h.519l-.097.845v6.774c0 2.473-.795 3.243-1.833 3.243-.356 0-.714-.12-.908-.362v-.241c.713 0 1.41-.755 1.41-2.293V5.148zm-.178-3.258c0-.468.357-.89.924-.89.455 0 .844.317.844.814 0 .529-.39.936-.908.936a.838.838 0 0 1-.86-.86zM148.144 10.029c.718.673 1.406 1.01 2.252 1.01.894 0 1.358-.434 1.358-.994 0-.562-.32-.915-1.374-1.364l-.798-.336c-.927-.401-1.438-1.074-1.438-1.988 0-1.267 1.118-2.357 2.78-2.357 1.277 0 1.788.385 1.788.994 0 .24-.032.45-.08.673-.51-.352-1.214-.609-1.82-.609-1.023 0-1.502.449-1.502.994 0 .577.287.898 1.246 1.267l.862.336c1.15.45 1.582 1.043 1.582 1.988 0 1.235-1.182 2.357-2.971 2.357-1.406 0-2.029-.448-2.029-1.314 0-.225.048-.482.144-.657zM154.255 10c.428 0 .745.365.745.946 0 1.543-1.049 2.854-1.627 3.054l-.373-.116c.566-.714.855-1.46.855-2.423l-.482-.731c.22-.414.578-.73.882-.73zM6.027 21.729c1.055 0 1.752.139 2.295.418l-.125 2.155H7.78l-.062-.28c-.248-.96-.697-1.348-1.814-1.348-1.535 0-3.023 1.55-3.023 4.248 0 2.868 1.442 4.14 2.884 4.14 1.147 0 1.72-.373 2.047-1.194l.154-.372h.419l-.155 2.046c-.574.295-1.52.48-2.698.48-2.248 0-4.17-1.673-4.17-4.898 0-3.256 2.217-5.395 4.666-5.395zM10.305 25.418l-.884-.434v-.325c.697-.202 1.302-.295 1.736-.295h.512l-.093.868v3.504c0 1.628.51 2.155 1.503 2.155a2.98 2.98 0 0 0 1.52-.45v-5.023l-.9-.434v-.325c.714-.202 1.319-.295 1.752-.295h.512l-.093.868v5.24c.109.264.34.543.589.806-.232.248-.666.543-1.054.729a2.064 2.064 0 0 1-.73-.899c-.386.357-1.27.822-2.232.822-1.317 0-2.138-.76-2.138-2.543v-3.969zM17.713 31.495c.403-.154.822-.465.822-.837v-8.991l-1.008-.42v-.34a7.286 7.286 0 0 1 1.86-.28h.497l-.078.869v9.612l.868.233v.294c-.528.186-1.024.263-1.798.263-.372 0-.807-.03-1.163-.14v-.263zM22.379 27.526l.046-2.062h-.853v-.51l1.675-1.66.512-.062-.063 1.395h2.047l-.108.837H23.65l-.03 1.954c-.016.65-.016 1.24-.016 1.814 0 1.256.372 1.69.945 1.69.45 0 .838-.155 1.147-.403l.156.062c-.063.914-.605 1.38-1.675 1.38-1.24 0-1.845-.651-1.845-2.156 0-.744.031-1.565.047-2.279zM27.028 25.418l-.883-.434v-.325c.697-.202 1.301-.295 1.736-.295h.512l-.094.868v3.504c0 1.628.512 2.155 1.504 2.155a2.98 2.98 0 0 0 1.52-.45v-5.023l-.9-.434v-.325c.714-.202 1.318-.295 1.752-.295h.512l-.093.868v5.24c.108.264.34.543.589.806-.233.248-.667.543-1.054.729a2.055 2.055 0 0 1-.729-.899c-.387.357-1.271.822-2.232.822-1.318 0-2.14-.76-2.14-2.543v-3.969zM35.104 25.418l-.884-.434v-.325c.697-.202 1.301-.295 1.736-.295h.512l-.093.868v3.504c0 1.628.51 2.155 1.503 2.155a2.98 2.98 0 0 0 1.52-.45v-5.023l-.9-.434v-.325c.714-.202 1.318-.295 1.752-.295h.512l-.093.868v5.24c.108.264.34.543.589.806-.233.248-.666.543-1.054.729a2.064 2.064 0 0 1-.73-.899c-.386.357-1.27.822-2.232.822-1.317 0-2.138-.76-2.138-2.543v-3.969zM42.512 31.495c.403-.154.822-.465.822-.837v-5.24L42.326 25v-.341a7.286 7.286 0 0 1 1.86-.28h.373v1.085h.015l.434-.48c.419-.45.837-.682 1.364-.682.543 0 .806.233.806.666 0 .295-.093.636-.248.93a1.567 1.567 0 0 0-.961-.356c-.48 0-.93.217-1.365.636v4.93l1.07.233v.294c-.527.186-1.038.263-1.922.263-.45 0-.884-.03-1.24-.14v-.263zM53.549 24.271c1.675 0 2.681 1.116 2.681 2.899 0 .294 0 .604-.014.992h-4.573c0 1.736 1.006 2.744 2.294 2.744.76 0 1.596-.263 2.185-.666.031.077.063.248.063.403 0 .698-1.024 1.348-2.667 1.348-1.767 0-3.21-1.379-3.21-3.55 0-2.697 1.629-4.17 3.24-4.17zm1.441 3.085c0-1.52-.65-2.248-1.565-2.248-.853 0-1.752 1.023-1.752 2.248h3.317zM57.314 31.495c.404-.154.823-.465.823-.837v-5.24L57.129 25v-.341a7.286 7.286 0 0 1 1.86-.28h.372v.837c.527-.527 1.395-.868 2.294-.868 1.287 0 2.171.822 2.171 2.42v4.34l.806.233v.294c-.42.17-.961.263-1.628.263-.325 0-.697-.03-1.008-.14v-.263c.388-.17.559-.465.559-1.022V27.51c0-1.52-.636-2.093-1.551-2.093-.635 0-1.256.217-1.597.48v5.21l.868.233v.294c-.527.186-1.023.263-1.797.263-.373 0-.807-.03-1.164-.14v-.263z"/>
    <g>
      <path d="M68.706 23.243l-.853-.263v-.326a5.221 5.221 0 0 1 1.581-.263c.496 0 .899.015 1.38.14v.294c-.481.109-.62.388-.481.884l1.69 6.247h.016l1.643-6.713-.822-.248v-.34c.574-.17 1.1-.249 1.69-.249.45 0 .946.047 1.256.156v.294c-.31.109-.403.357-.295.806l1.504 6.278h.015l1.706-6.681-.946-.294v-.326c.574-.17 1.1-.248 1.628-.248.418 0 .698.047 1.008.155v.28c-.404.263-.62.542-.776 1.084l-2.542 8.527-.605.062-2.154-8.186h-.016l-2.14 8.124-.589.062-2.898-9.256zM83.71 24.871c1.675 0 2.683 1.116 2.683 2.9 0 .294 0 .604-.016.992h-4.574c0 1.736 1.008 2.744 2.295 2.744.76 0 1.596-.264 2.185-.667.031.078.063.248.063.403 0 .697-1.024 1.349-2.667 1.349-1.767 0-3.21-1.38-3.21-3.55 0-2.697 1.629-4.17 3.241-4.17zm1.442 3.085c0-1.519-.651-2.247-1.566-2.247-.853 0-1.752 1.022-1.752 2.247h3.318zM88.143 28.127l.045-2.062h-.852v-.511l1.675-1.66.511-.061-.062 1.395h2.047l-.109.837h-1.984l-.031 1.954c-.016.65-.016 1.24-.016 1.813 0 1.256.372 1.69.946 1.69.45 0 .837-.155 1.147-.403l.155.062c-.062.915-.604 1.38-1.675 1.38-1.24 0-1.844-.65-1.844-2.155 0-.744.031-1.566.047-2.279zM95.226 24.871c1.674 0 2.682 1.116 2.682 2.9 0 .294 0 .604-.015.992h-4.575c0 1.736 1.008 2.744 2.295 2.744.76 0 1.597-.264 2.186-.667.031.078.062.248.062.403 0 .697-1.023 1.349-2.667 1.349-1.766 0-3.209-1.38-3.209-3.55 0-2.697 1.628-4.17 3.24-4.17zm1.442 3.085c0-1.519-.651-2.247-1.566-2.247-.853 0-1.752 1.022-1.752 2.247h3.318zM98.992 32.096c.404-.156.822-.465.822-.837v-5.24l-1.007-.418v-.342a7.308 7.308 0 0 1 1.86-.28h.372v.838c.526-.527 1.395-.868 2.294-.868 1.287 0 2.17.822 2.17 2.418v4.341l.807.232v.295c-.42.171-.961.264-1.628.264-.326 0-.698-.031-1.008-.14v-.263c.388-.171.558-.465.558-1.024v-2.96c0-1.52-.635-2.093-1.55-2.093-.635 0-1.256.216-1.597.48v5.209l.868.232v.295c-.527.186-1.023.264-1.798.264-.372 0-.806-.031-1.163-.14v-.263zM107.269 30.685c.697.65 1.364.977 2.185.977.868 0 1.318-.419 1.318-.962 0-.542-.31-.883-1.334-1.317l-.774-.325c-.9-.388-1.395-1.04-1.395-1.923 0-1.225 1.085-2.279 2.697-2.279 1.24 0 1.736.372 1.736.961 0 .233-.031.434-.077.65-.496-.34-1.179-.588-1.768-.588-.992 0-1.457.434-1.457.962 0 .557.28.867 1.21 1.224l.836.326c1.117.434 1.535 1.007 1.535 1.922 0 1.194-1.147 2.279-2.883 2.279-1.365 0-1.97-.434-1.97-1.272 0-.216.048-.465.14-.635zM116.445 24.887c1.256 0 1.674.403 1.674.915 0 .295-.077.557-.185.805-.59-.464-1.148-.712-1.8-.712-1.069 0-1.984 1.054-1.984 2.852 0 1.845.977 2.775 2.187 2.775.604 0 1.286-.263 1.767-.62a.95.95 0 0 1 .078.388c0 .729-.791 1.302-2.264 1.302-1.69 0-3.116-1.411-3.116-3.566 0-2.543 1.596-4.14 3.643-4.14zM119.033 32.096c.42-.156.822-.465.822-.837v-8.992l-1.007-.418v-.342a6.776 6.776 0 0 1 1.86-.278h.496l-.078.868v3.705c.559-.543 1.271-.853 2.248-.853 1.317 0 2.17.822 2.17 2.418v4.341l.807.232v.295c-.434.171-.977.264-1.644.264-.31 0-.697-.031-.992-.14v-.263c.372-.171.558-.465.558-1.024v-2.96c0-1.52-.62-2.093-1.58-2.093-.605 0-1.21.216-1.567.48v5.209l.868.232v.295c-.527.186-1.008.264-1.798.264-.356 0-.806-.031-1.163-.14v-.263zM131.216 28.344v-.418c0-1.675-.403-2.031-1.38-2.031-.853 0-1.674.356-2.325 1.007a2.31 2.31 0 0 1-.046-.465c0-.992.728-1.566 2.542-1.566 1.565 0 2.496.791 2.496 2.078 0 .341-.047 1.116-.062 1.566l-.046 2.511c.108.28.34.574.62.79-.233.28-.652.59-1.055.791a2.12 2.12 0 0 1-.713-.76c-.434.42-1.271.745-2.093.745-1.163 0-1.968-.729-1.968-1.72 0-1.365 1.488-2.528 4.03-2.528zm-1.488 3.318c.481 0 1.1-.186 1.488-.419v-2.17c-1.751 0-2.697.729-2.697 1.566 0 .62.419 1.023 1.209 1.023zM136.207 35.383l1.023.217v.31c-.527.17-1.147.247-1.954.247-.372 0-.805-.03-1.162-.138v-.264c.404-.14.822-.45.822-.838v-8.898l-1.008-.418v-.342a7.314 7.314 0 0 1 1.86-.28h.372v.714a3.102 3.102 0 0 1 2-.79c1.567 0 2.821 1.147 2.821 3.255 0 2.884-1.797 4.372-3.782 4.372-.34 0-.744-.078-.992-.186v3.039zm.977-3.72c1.38 0 2.464-.947 2.464-3.148 0-1.705-.976-2.574-2.03-2.574-.558 0-1.039.124-1.427.357v5.256c.264.077.62.108.993.108z"/>
    </g>
  </g>
</svg>
