<svg xmlns="http://www.w3.org/2000/svg" viewBox="0 0 224 34">
  <g fill="#000" fill-rule="nonzero">
    <path d="M1.426 11.48c.574-.17.868-.45.915-.915l.682-7.922-.899-.264V1.93c.698-.093 1.55-.109 2.108-.109h.559l2.434 7.52h.015l2.357-7.52h.666c.558 0 1.256.016 1.876.11v.448l-.961.233.682 8.527.899.17v.341c-.372.171-.9.264-1.504.264-.713 0-1.162-.031-1.705-.155v-.294c.651-.155.946-.543.915-1.179l-.388-7.038h-.031l-2.76 8.605-.604.077-2.79-8.667-.016.016-.48 7.767 1.007.264v.34c-.667.203-1.039.264-1.783.264-.356 0-.806-.061-1.194-.155v-.279zM13.764 11.495c.419-.154.822-.465.822-.837v-5.24L13.594 5v-.326c.697-.202 1.41-.295 1.844-.295h.497l-.078.837v5.892l.869.233v.294c-.528.186-1.008.263-1.8.263-.356 0-.805-.03-1.162-.14v-.263zm.651-9.426c0-.48.342-.914.884-.914.434 0 .806.325.806.837 0 .543-.372.961-.868.961-.466 0-.822-.372-.822-.884zM17.825 11.495c.404-.154.821-.465.821-.837v-5.24L17.64 5v-.341a7.286 7.286 0 0 1 1.86-.28h.372v.837c.526-.527 1.395-.868 2.294-.868 1.287 0 2.17.822 2.17 2.42v4.34l.807.233v.294c-.418.17-.961.263-1.628.263-.326 0-.698-.03-1.008-.14v-.263c.388-.17.558-.465.558-1.022V7.51c0-1.52-.635-2.093-1.55-2.093-.636 0-1.255.217-1.597.48v5.21l.868.233v.294c-.526.186-1.022.263-1.798.263-.372 0-.806-.03-1.163-.14v-.263zM26.195 11.495c.42-.154.823-.465.823-.837v-5.24L26.025 5v-.326c.698-.202 1.41-.295 1.845-.295h.496l-.078.837v5.892l.868.233v.294c-.527.186-1.008.263-1.798.263-.356 0-.806-.03-1.163-.14v-.263zm.652-9.426c0-.48.34-.914.883-.914.434 0 .806.325.806.837 0 .543-.372.961-.868.961-.465 0-.821-.372-.821-.884zM30.163 10.085c.697.651 1.364.977 2.186.977.868 0 1.318-.42 1.318-.961 0-.544-.31-.885-1.334-1.319l-.774-.325c-.9-.388-1.396-1.039-1.396-1.923 0-1.224 1.085-2.279 2.697-2.279 1.24 0 1.737.372 1.737.961 0 .233-.032.435-.077.652-.497-.341-1.18-.59-1.768-.59-.992 0-1.457.434-1.457.962 0 .558.28.868 1.209 1.224l.837.326c1.116.434 1.535 1.008 1.535 1.922 0 1.194-1.147 2.28-2.884 2.28-1.364 0-1.969-.434-1.969-1.271 0-.218.047-.466.14-.636zM36.503 7.526l.046-2.062h-.853v-.51l1.675-1.66.512-.062-.063 1.395h2.047l-.11.837h-1.984l-.03 1.954c-.015.65-.015 1.24-.015 1.814 0 1.256.372 1.69.945 1.69.45 0 .837-.155 1.147-.403l.156.062c-.063.914-.605 1.38-1.675 1.38-1.24 0-1.845-.651-1.845-2.156 0-.744.031-1.565.047-2.279zM43.586 4.271c1.675 0 2.682 1.116 2.682 2.899 0 .294 0 .604-.015.992H41.68c0 1.736 1.007 2.744 2.294 2.744.76 0 1.596-.263 2.185-.666.031.077.063.248.063.403 0 .698-1.024 1.348-2.667 1.348-1.767 0-3.21-1.379-3.21-3.55 0-2.697 1.629-4.17 3.24-4.17zm1.441 3.085c0-1.52-.65-2.248-1.565-2.248-.853 0-1.752 1.023-1.752 2.248h3.317zM47.352 11.495c.403-.154.822-.465.822-.837v-5.24L47.166 5v-.341a7.286 7.286 0 0 1 1.86-.28h.372v1.085h.016l.434-.48c.419-.45.837-.682 1.364-.682.543 0 .806.233.806.666 0 .295-.093.636-.248.93a1.567 1.567 0 0 0-.961-.356c-.48 0-.93.217-1.365.636v4.93l1.07.233v.294c-.527.186-1.038.263-1.922.263-.45 0-.884-.03-1.24-.14v-.263zM52.715 11.495c.419-.154.822-.465.822-.837v-5.24L52.545 5v-.326c.697-.202 1.41-.295 1.845-.295h.496l-.078.837v5.892l.868.233v.294c-.528.186-1.008.263-1.798.263-.357 0-.807-.03-1.163-.14v-.263zm.651-9.426c0-.48.341-.914.884-.914.434 0 .806.325.806.837 0 .543-.372.961-.868.961-.465 0-.822-.372-.822-.884zM59.876 4.271c1.675 0 2.683 1.116 2.683 2.899 0 .294 0 .604-.016.992h-4.574c0 1.736 1.008 2.744 2.295 2.744.76 0 1.596-.263 2.185-.666.031.077.063.248.063.403 0 .698-1.024 1.348-2.667 1.348-1.767 0-3.21-1.379-3.21-3.55 0-2.697 1.629-4.17 3.241-4.17zm1.442 3.085c0-1.52-.651-2.248-1.566-2.248C58.899 5.108 58 6.13 58 7.356h3.318zM66.122 5.201l-.636-.45v-.372h2.962v.372l-.884.373 1.674 4.914h.016l1.721-4.868-.884-.419v-.372h2.388v.372l-.434.357-2.76 6.837-.527.032zM76.6 7.744v-.42c0-1.673-.402-2.03-1.38-2.03-.852 0-1.673.357-2.324 1.008a2.303 2.303 0 0 1-.046-.466c0-.992.728-1.565 2.542-1.565 1.565 0 2.496.79 2.496 2.077 0 .341-.047 1.116-.062 1.566l-.047 2.512c.109.28.341.573.62.79-.232.28-.651.59-1.054.79a2.105 2.105 0 0 1-.713-.759c-.434.419-1.272.744-2.093.744-1.163 0-1.969-.728-1.969-1.72 0-1.365 1.489-2.527 4.03-2.527zm-1.488 3.318c.482 0 1.1-.187 1.489-.42v-2.17c-1.751 0-2.698.729-2.698 1.566 0 .62.42 1.024 1.21 1.024zM79.576 11.495c.403-.154.822-.465.822-.837v-5.24L79.391 5v-.341a7.286 7.286 0 0 1 1.86-.28h.372v.837c.526-.527 1.395-.868 2.294-.868 1.287 0 2.17.822 2.17 2.42v4.34l.807.233v.294c-.42.17-.961.263-1.628.263-.326 0-.698-.03-1.008-.14v-.263c.388-.17.558-.465.558-1.022V7.51c0-1.52-.635-2.093-1.55-2.093-.635 0-1.256.217-1.597.48v5.21l.868.233v.294c-.527.186-1.023.263-1.798.263-.372 0-.806-.03-1.163-.14v-.263zM95.448 1.713c2.279 0 4.109 1.798 4.109 4.666 0 3.566-2.187 5.643-4.667 5.643-2.279 0-4.123-1.86-4.123-4.93 0-3.24 2.262-5.38 4.681-5.38zm2.59 4.945c0-2.713-1.318-3.953-2.76-3.953-1.489 0-2.977 1.488-2.977 4.201 0 2.729 1.334 4.124 2.744 4.124 1.488 0 2.992-1.364 2.992-4.372zM100.795 11.495c.403-.154.822-.465.822-.837v-5.24L100.61 5v-.341a7.286 7.286 0 0 1 1.86-.28h.373v.837c.526-.527 1.394-.868 2.294-.868 1.287 0 2.17.822 2.17 2.42v4.34l.806.233v.294c-.419.17-.96.263-1.628.263-.325 0-.697-.03-1.007-.14v-.263c.387-.17.558-.465.558-1.022V7.51c0-1.52-.636-2.093-1.55-2.093-.635 0-1.256.217-1.597.48v5.21l.868.233v.294c-.527.186-1.024.263-1.798.263-.372 0-.807-.03-1.163-.14v-.263zM112.73 4.287c.373 0 .823.046 1.07.108V1.667l-1.054-.42v-.34a7.712 7.712 0 0 1 1.923-.28h.496l-.093.869v8.883c.109.31.294.636.59.9-.311.279-.652.495-1.086.728a2.808 2.808 0 0 1-.744-.93c-.496.512-1.35.884-1.984.884-1.567 0-2.823-1.303-2.823-3.365 0-2.79 1.69-4.31 3.705-4.31zm1.086 6.17V5.325a3.782 3.782 0 0 0-1.131-.17c-1.319 0-2.311 1.038-2.311 3.193 0 1.69.884 2.605 1.86 2.605.59 0 1.225-.202 1.582-.496zM120.016 4.271c1.674 0 2.681 1.116 2.681 2.899 0 .294 0 .604-.014.992h-4.574c0 1.736 1.007 2.744 2.294 2.744.76 0 1.597-.263 2.186-.666.031.077.062.248.062.403 0 .698-1.023 1.348-2.667 1.348-1.766 0-3.209-1.379-3.209-3.55 0-2.697 1.628-4.17 3.24-4.17zm1.441 3.085c0-1.52-.65-2.248-1.565-2.248-.853 0-1.752 1.023-1.752 2.248h3.317zM123.781 11.495c.404-.154.823-.465.823-.837v-5.24L123.596 5v-.341a7.286 7.286 0 0 1 1.86-.28h.372v1.085h.016l.433-.48c.42-.45.837-.682 1.365-.682.543 0 .805.233.805.666 0 .295-.093.636-.248.93a1.567 1.567 0 0 0-.96-.356c-.481 0-.93.217-1.365.636v4.93l1.07.233v.294c-.527.186-1.039.263-1.923.263-.449 0-.883-.03-1.24-.14v-.263zM129.392 5.216l-.667-.465v-.372h3.007v.372l-.898.373 1.379 4.977h.016l1.535-4.946-.853-.404v-.372h2.636v.372l-.45.341 1.395 4.993h.016l1.596-4.915-.883-.419v-.372h2.387v.372l-.419.341-2.604 6.853-.651.032-1.721-5.706h-.016l-1.782 5.674-.698.032zM139.947 11.495c.42-.154.823-.465.823-.837v-5.24L139.777 5v-.326c.698-.202 1.41-.295 1.845-.295h.496l-.078.837v5.892l.868.233v.294c-.527.186-1.008.263-1.798.263-.356 0-.806-.03-1.163-.14v-.263zm.652-9.426c0-.48.34-.914.883-.914.434 0 .806.325.806.837 0 .543-.372.961-.868.961-.465 0-.821-.372-.821-.884zM144.768 5.418L143.775 5v-.326c.713-.202 1.412-.295 1.86-.295h.497l-.093.869v6.961c0 2.542-.76 3.333-1.752 3.333-.34 0-.683-.124-.868-.372v-.248c.682 0 1.349-.776 1.349-2.357V5.418zm-.171-3.349c0-.48.341-.914.883-.914.435 0 .807.325.807.837 0 .543-.372.961-.868.961-.466 0-.822-.372-.822-.884zM147.76 10.085c.697.651 1.364.977 2.185.977.868 0 1.319-.42 1.319-.961 0-.544-.31-.885-1.334-1.319l-.775-.325c-.9-.388-1.395-1.039-1.395-1.923 0-1.224 1.085-2.279 2.697-2.279 1.24 0 1.736.372 1.736.961 0 .233-.03.435-.077.652-.496-.341-1.179-.59-1.767-.59-.993 0-1.457.434-1.457.962 0 .558.278.868 1.209 1.224l.837.326c1.116.434 1.535 1.008 1.535 1.922 0 1.194-1.148 2.28-2.884 2.28-1.364 0-1.969-.434-1.969-1.271 0-.218.047-.466.14-.636zM154.858 10.07c.48 0 .837.34.837.883 0 1.442-1.178 2.666-1.829 2.853l-.419-.109c.636-.667.961-1.364.961-2.263l-.542-.683c.248-.387.65-.682.992-.682zM165.027 1.729c1.055 0 1.752.139 2.295.418l-.125 2.155h-.418l-.062-.28c-.248-.96-.697-1.348-1.814-1.348-1.535 0-3.023 1.55-3.023 4.248 0 2.868 1.442 4.14 2.884 4.14 1.147 0 1.72-.373 2.047-1.194l.154-.372h.419l-.155 2.046c-.574.295-1.52.48-2.698.48-2.248 0-4.17-1.673-4.17-4.898 0-3.256 2.217-5.395 4.666-5.395zM169.305 5.418l-.884-.434v-.325c.697-.202 1.302-.295 1.736-.295h.512l-.093.868v3.504c0 1.628.51 2.155 1.503 2.155a2.98 2.98 0 0 0 1.52-.45V5.418l-.9-.434v-.325c.714-.202 1.319-.295 1.752-.295h.512l-.093.868v5.24c.109.264.34.543.589.806-.232.248-.666.543-1.054.729a2.064 2.064 0 0 1-.73-.899c-.386.357-1.27.822-2.232.822-1.317 0-2.138-.76-2.138-2.543V5.418zM176.713 11.495c.403-.154.822-.465.822-.837V1.667l-1.008-.42v-.34a7.286 7.286 0 0 1 1.86-.28h.497l-.078.869v9.612l.868.233v.294c-.528.186-1.024.263-1.798.263-.372 0-.807-.03-1.163-.14v-.263zM181.379 7.526l.046-2.062h-.853v-.51l1.675-1.66.512-.062-.063 1.395h2.047l-.108.837h-1.985l-.03 1.954c-.016.65-.016 1.24-.016 1.814 0 1.256.372 1.69.945 1.69.45 0 .838-.155 1.147-.403l.156.062c-.063.914-.605 1.38-1.675 1.38-1.24 0-1.845-.651-1.845-2.156 0-.744.031-1.565.047-2.279zM186.028 5.418l-.883-.434v-.325c.697-.202 1.301-.295 1.736-.295h.512l-.094.868v3.504c0 1.628.512 2.155 1.504 2.155a2.98 2.98 0 0 0 1.52-.45V5.418l-.9-.434v-.325c.714-.202 1.318-.295 1.752-.295h.512l-.093.868v5.24c.108.264.34.543.589.806-.233.248-.667.543-1.054.729a2.055 2.055 0 0 1-.729-.899c-.387.357-1.271.822-2.232.822-1.318 0-2.14-.76-2.14-2.543V5.418zM194.104 5.418l-.884-.434v-.325c.697-.202 1.301-.295 1.736-.295h.512l-.093.868v3.504c0 1.628.51 2.155 1.503 2.155a2.98 2.98 0 0 0 1.52-.45V5.418l-.9-.434v-.325c.714-.202 1.318-.295 1.752-.295h.512l-.093.868v5.24c.108.264.34.543.589.806-.233.248-.666.543-1.054.729a2.064 2.064 0 0 1-.73-.899c-.386.357-1.27.822-2.232.822-1.317 0-2.138-.76-2.138-2.543V5.418zM201.512 11.495c.403-.154.822-.465.822-.837v-5.24L201.326 5v-.341a7.286 7.286 0 0 1 1.86-.28h.373v1.085h.015l.434-.48c.419-.45.837-.682 1.364-.682.543 0 .806.233.806.666 0 .295-.093.636-.248.93a1.567 1.567 0 0 0-.961-.356c-.48 0-.93.217-1.365.636v4.93l1.07.233v.294c-.527.186-1.038.263-1.922.263-.45 0-.884-.03-1.24-.14v-.263zM212.549 4.271c1.675 0 2.681 1.116 2.681 2.899 0 .294 0 .604-.014.992h-4.573c0 1.736 1.006 2.744 2.294 2.744.76 0 1.596-.263 2.185-.666.031.077.063.248.063.403 0 .698-1.024 1.348-2.667 1.348-1.767 0-3.21-1.379-3.21-3.55 0-2.697 1.629-4.17 3.24-4.17zm1.441 3.085c0-1.52-.65-2.248-1.565-2.248-.853 0-1.752 1.023-1.752 2.248h3.317zM216.314 11.495c.404-.154.823-.465.823-.837v-5.24L216.129 5v-.341a7.286 7.286 0 0 1 1.86-.28h.372v.837c.527-.527 1.395-.868 2.294-.868 1.287 0 2.171.822 2.171 2.42v4.34l.806.233v.294c-.42.17-.961.263-1.628.263-.325 0-.697-.03-1.008-.14v-.263c.388-.17.559-.465.559-1.022V7.51c0-1.52-.636-2.093-1.551-2.093-.635 0-1.256.217-1.597.48v5.21l.868.233v.294c-.527.186-1.023.263-1.797.263-.373 0-.807-.03-1.164-.14v-.263zM1.706 20.243l-.853-.263v-.326a5.221 5.221 0 0 1 1.581-.263c.496 0 .899.015 1.38.14v.294c-.481.109-.62.388-.481.884l1.69 6.247h.016l1.643-6.713-.822-.248v-.34c.574-.17 1.1-.249 1.69-.249.45 0 .946.047 1.256.156v.294c-.31.109-.403.357-.295.806l1.504 6.278h.015l1.706-6.681-.946-.294v-.326c.574-.17 1.1-.248 1.628-.248.418 0 .698.047 1.008.155v.28c-.404.263-.62.542-.776 1.084l-2.542 8.527-.605.062-2.154-8.186h-.016l-2.14 8.124-.589.062-2.898-9.256zM16.71 21.871c1.675 0 2.683 1.116 2.683 2.9 0 .294 0 .604-.016.992h-4.574c0 1.736 1.008 2.744 2.295 2.744.76 0 1.596-.264 2.185-.667.031.078.063.248.063.403 0 .697-1.024 1.349-2.667 1.349-1.767 0-3.21-1.38-3.21-3.55 0-2.697 1.629-4.17 3.241-4.17zm1.442 3.085c0-1.518-.651-2.247-1.566-2.247-.853 0-1.752 1.022-1.752 2.247h3.318zM21.143 25.127l.045-2.062h-.852v-.511l1.675-1.66.511-.061-.062 1.395h2.047l-.109.837h-1.984l-.031 1.954c-.016.65-.016 1.24-.016 1.813 0 1.256.372 1.69.945 1.69.45 0 .838-.155 1.148-.403l.155.062c-.062.915-.604 1.38-1.675 1.38-1.24 0-1.844-.65-1.844-2.155 0-.744.031-1.566.047-2.279zM28.226 21.871c1.674 0 2.682 1.116 2.682 2.9 0 .294 0 .604-.015.992h-4.575c0 1.736 1.008 2.744 2.295 2.744.76 0 1.597-.264 2.186-.667.031.078.062.248.062.403 0 .697-1.023 1.349-2.667 1.349-1.766 0-3.209-1.38-3.209-3.55 0-2.697 1.628-4.17 3.24-4.17zm1.442 3.085c0-1.518-.651-2.247-1.566-2.247-.853 0-1.752 1.022-1.752 2.247h3.318zM31.992 29.096c.404-.156.822-.465.822-.837v-5.24l-1.007-.418v-.342a7.308 7.308 0 0 1 1.86-.28h.372v.838c.526-.527 1.395-.868 2.294-.868 1.287 0 2.17.822 2.17 2.418v4.341l.807.232v.295c-.42.171-.961.264-1.628.264-.326 0-.698-.031-1.008-.14v-.263c.388-.171.558-.465.558-1.024v-2.96c0-1.52-.635-2.093-1.55-2.093-.635 0-1.256.216-1.597.48v5.209l.868.232v.295c-.527.186-1.023.264-1.798.264-.372 0-.806-.031-1.163-.14v-.263zM40.269 27.685c.697.65 1.364.977 2.185.977.868 0 1.318-.419 1.318-.962 0-.542-.31-.883-1.334-1.317l-.774-.325c-.9-.388-1.395-1.04-1.395-1.923 0-1.225 1.085-2.279 2.697-2.279 1.24 0 1.736.372 1.736.961 0 .233-.031.434-.077.65-.496-.34-1.179-.588-1.768-.588-.992 0-1.457.434-1.457.962 0 .557.28.867 1.21 1.224l.836.326c1.117.434 1.535 1.007 1.535 1.922 0 1.194-1.147 2.279-2.883 2.279-1.365 0-1.97-.434-1.97-1.272 0-.216.048-.465.14-.635zM49.445 21.887c1.256 0 1.674.403 1.674.915 0 .295-.077.557-.185.805-.59-.464-1.148-.712-1.8-.712-1.069 0-1.984 1.054-1.984 2.852 0 1.845.977 2.775 2.187 2.775.604 0 1.286-.263 1.767-.62a.95.95 0 0 1 .078.388c0 .729-.791 1.302-2.264 1.302-1.69 0-3.116-1.411-3.116-3.566 0-2.543 1.596-4.14 3.643-4.14zM52.033 29.096c.42-.156.822-.465.822-.837v-8.992l-1.007-.418v-.342a6.776 6.776 0 0 1 1.86-.278h.496l-.078.868v3.705c.559-.543 1.271-.853 2.248-.853 1.317 0 2.17.822 2.17 2.418v4.341l.807.232v.295c-.434.171-.977.264-1.644.264-.31 0-.697-.031-.992-.14v-.263c.372-.171.558-.465.558-1.024v-2.96c0-1.52-.62-2.093-1.58-2.093-.605 0-1.21.216-1.567.48v5.209l.868.232v.295c-.527.186-1.008.264-1.798.264-.356 0-.806-.031-1.163-.14v-.263zM64.216 25.344v-.418c0-1.675-.403-2.031-1.38-2.031-.853 0-1.674.356-2.325 1.007a2.31 2.31 0 0 1-.046-.465c0-.992.728-1.566 2.542-1.566 1.565 0 2.496.791 2.496 2.078 0 .341-.047 1.116-.062 1.566l-.046 2.511c.108.28.34.574.62.79-.233.28-.652.59-1.055.791a2.12 2.12 0 0 1-.713-.76c-.434.42-1.271.745-2.093.745-1.163 0-1.968-.729-1.968-1.72 0-1.365 1.488-2.528 4.03-2.528zm-1.488 3.318c.481 0 1.1-.186 1.488-.419v-2.17c-1.751 0-2.697.729-2.697 1.566 0 .62.419 1.023 1.209 1.023zM69.207 32.383l1.023.217v.31c-.527.17-1.147.247-1.954.247-.372 0-.805-.03-1.162-.138v-.264c.404-.14.822-.45.822-.838v-8.898l-1.008-.418v-.342a7.314 7.314 0 0 1 1.86-.28h.372v.714a3.102 3.102 0 0 1 2-.79c1.567 0 2.821 1.147 2.821 3.255 0 2.884-1.797 4.372-3.782 4.372-.34 0-.744-.078-.992-.186v3.039zm.977-3.72c1.38 0 2.464-.947 2.464-3.148 0-1.705-.976-2.574-2.03-2.574-.558 0-1.039.124-1.427.357v5.256c.264.077.62.108.993.108z"/>
  </g>
</svg>
