<svg xmlns="http://www.w3.org/2000/svg" viewBox="0 0 200 16">
  <g fill="#000" fill-rule="nonzero">
    <path d="M5.465 1.729c1.054 0 1.752.139 2.294.418l-.124 2.155h-.418l-.062-.28c-.248-.96-.698-1.348-1.814-1.348-1.535 0-3.023 1.55-3.023 4.248 0 2.868 1.442 4.14 2.883 4.14 1.148 0 1.72-.373 2.047-1.194l.155-.372h.418l-.155 2.046c-.573.295-1.519.48-2.697.48-2.248 0-4.17-1.673-4.17-4.898 0-3.256 2.217-5.395 4.666-5.395zM12.542 4.255c1.906 0 3.379 1.427 3.379 3.581 0 2.559-1.782 4.17-3.628 4.17-1.875 0-3.395-1.317-3.395-3.58 0-2.543 1.737-4.17 3.644-4.17zm-.155 6.853c1.039 0 2.124-1.007 2.124-3.132 0-1.814-.977-2.821-2.078-2.821-1.07 0-2.124 1.07-2.124 3.116 0 1.875.977 2.837 2.078 2.837zM16.846 11.495c.403-.154.822-.465.822-.837V1.667l-1.008-.42v-.34a7.286 7.286 0 0 1 1.86-.28h.497l-.079.869v9.612l.869.233v.294c-.528.186-1.024.263-1.798.263-.372 0-.807-.03-1.163-.14v-.263zM20.836 11.495c.403-.154.822-.465.822-.837V1.667l-1.008-.42v-.34a7.286 7.286 0 0 1 1.86-.28h.497l-.078.869v9.612l.868.233v.294c-.527.186-1.024.263-1.798.263-.372 0-.807-.03-1.163-.14v-.263zM27.798 4.271c1.675 0 2.682 1.116 2.682 2.899 0 .294 0 .604-.015.992H25.89c0 1.736 1.007 2.744 2.295 2.744.76 0 1.596-.263 2.185-.666.031.077.063.248.063.403 0 .698-1.024 1.348-2.667 1.348-1.767 0-3.21-1.379-3.21-3.55 0-2.697 1.629-4.17 3.24-4.17zm1.442 3.085c0-1.52-.651-2.248-1.566-2.248-.853 0-1.752 1.023-1.752 2.248h3.318zM32.945 9.496V9.48c-.698-.28-1.395-1.085-1.395-2.155 0-1.737 1.395-3.07 3.085-3.07.636 0 1.41.264 1.674.512.279-.264.868-.496 1.364-.496.264 0 .512.046.667.093l-.109 1.023a7.805 7.805 0 0 0-1.659-.17v.015c.512.388.884 1.054.884 1.69 0 1.798-1.473 3.023-3.147 3.023-.341 0-.698-.077-.961-.186-.233.14-.496.466-.496.744 0 .466.387.714.992.714l2.17-.016c1.302-.015 2.03.589 2.03 1.736 0 1.473-1.626 2.713-3.781 2.713-1.953 0-2.961-.79-2.961-1.813 0-.822.635-1.488 1.472-1.722v-.014c-.573-.203-.915-.62-.915-1.21s.496-1.194 1.086-1.395zm1.519 5.255c1.473 0 2.45-.729 2.45-1.473 0-.604-.403-.945-1.147-.945H33.27c-.45.201-.792.713-.792 1.24 0 .636.683 1.178 1.985 1.178zm1.628-7.783c0-1.302-.729-1.922-1.55-1.922-.884 0-1.628.837-1.628 2.186 0 1.302.729 1.938 1.488 1.938.946 0 1.69-.682 1.69-2.202zM41.84 4.271c1.676 0 2.683 1.116 2.683 2.899 0 .294 0 .604-.015.992h-4.574c0 1.736 1.007 2.744 2.295 2.744.76 0 1.596-.263 2.185-.666.031.077.063.248.063.403 0 .698-1.024 1.348-2.667 1.348-1.767 0-3.21-1.379-3.21-3.55 0-2.697 1.629-4.17 3.24-4.17zm1.443 3.085c0-1.52-.651-2.248-1.566-2.248-.853 0-1.752 1.023-1.752 2.248h3.318zM48.086 5.201l-.635-.45v-.372h2.961v.372l-.884.373 1.674 4.914h.016l1.72-4.868-.883-.419v-.372h2.387v.372l-.433.357-2.76 6.837-.527.032zM58.115 4.255c1.906 0 3.38 1.427 3.38 3.581 0 2.559-1.783 4.17-3.628 4.17-1.876 0-3.395-1.317-3.395-3.58 0-2.543 1.736-4.17 3.643-4.17zm-.155 6.853c1.038 0 2.124-1.007 2.124-3.132 0-1.814-.977-2.821-2.078-2.821-1.07 0-2.123 1.07-2.123 3.116 0 1.875.976 2.837 2.077 2.837zM66.205 4.255c1.906 0 3.379 1.427 3.379 3.581 0 2.559-1.782 4.17-3.627 4.17-1.876 0-3.395-1.317-3.395-3.58 0-2.543 1.736-4.17 3.643-4.17zm-.155 6.853c1.038 0 2.124-1.007 2.124-3.132 0-1.814-.977-2.821-2.078-2.821-1.07 0-2.123 1.07-2.123 3.116 0 1.875.976 2.837 2.077 2.837zM70.555 11.495c.403-.154.822-.465.822-.837v-5.24L70.369 5v-.341a7.286 7.286 0 0 1 1.86-.28h.373v1.085h.015l.434-.48c.419-.45.837-.682 1.364-.682.543 0 .806.233.806.666 0 .295-.093.636-.248.93a1.567 1.567 0 0 0-.961-.356c-.48 0-.93.217-1.365.636v4.93l1.07.233v.294c-.527.186-1.038.263-1.922.263-.45 0-.884-.03-1.24-.14v-.263zM79.777 11.465c.574-.171.914-.512.914-1.132V2.721H79.53c-.698 0-1.054.372-1.209 1.038l-.093.357h-.48V1.853c1.07.03 2.79.046 3.72.046 1.38 0 2.356-.031 3.504-.124v2.34h-.48l-.063-.356c-.093-.682-.372-1.038-.992-1.038h-1.41v8.34l1.146.249v.34c-.558.171-1.131.264-1.86.264-.666 0-1.085-.031-1.535-.155v-.294zM88.204 4.255c1.906 0 3.379 1.427 3.379 3.581 0 2.559-1.782 4.17-3.627 4.17-1.876 0-3.395-1.317-3.395-3.58 0-2.543 1.736-4.17 3.643-4.17zm-.155 6.853c1.039 0 2.124-1.007 2.124-3.132 0-1.814-.977-2.821-2.077-2.821-1.07 0-2.124 1.07-2.124 3.116 0 1.875.976 2.837 2.077 2.837zM95.91 4.271c1.674 0 2.682 1.116 2.682 2.899 0 .294 0 .604-.016.992h-4.574c0 1.736 1.008 2.744 2.295 2.744.76 0 1.597-.263 2.185-.666.032.077.063.248.063.403 0 .698-1.024 1.348-2.667 1.348-1.767 0-3.21-1.379-3.21-3.55 0-2.697 1.629-4.17 3.241-4.17zm1.442 3.085c0-1.52-.652-2.248-1.567-2.248-.852 0-1.752 1.023-1.752 2.248h3.319zM100.274 7.526l.046-2.062h-.852v-.51l1.675-1.66.511-.062-.062 1.395h2.047l-.11.837h-1.984l-.03 1.954c-.016.65-.016 1.24-.016 1.814 0 1.256.372 1.69.945 1.69.45 0 .837-.155 1.148-.403l.155.062c-.062.914-.604 1.38-1.675 1.38-1.24 0-1.844-.651-1.844-2.156 0-.744.03-1.565.046-2.279zM104.546 10.085c.697.651 1.364.977 2.185.977.869 0 1.319-.42 1.319-.961 0-.544-.31-.885-1.334-1.319l-.775-.325c-.899-.388-1.395-1.039-1.395-1.923 0-1.224 1.085-2.279 2.697-2.279 1.24 0 1.736.372 1.736.961 0 .233-.03.435-.077.652-.496-.341-1.178-.59-1.767-.59-.992 0-1.457.434-1.457.962 0 .558.279.868 1.209 1.224l.837.326c1.116.434 1.535 1.008 1.535 1.922 0 1.194-1.148 2.28-2.884 2.28-1.364 0-1.969-.434-1.969-1.271 0-.218.047-.466.14-.636zM113.396 4.271c1.675 0 2.682 1.116 2.682 2.899 0 .294 0 .604-.015.992h-4.573c0 1.736 1.007 2.744 2.294 2.744.76 0 1.597-.263 2.186-.666.031.077.062.248.062.403 0 .698-1.023 1.348-2.667 1.348-1.766 0-3.209-1.379-3.209-3.55 0-2.697 1.628-4.17 3.24-4.17zm1.442 3.085c0-1.52-.65-2.248-1.566-2.248-.852 0-1.751 1.023-1.751 2.248h3.317zM117.075 11.495c.404-.154.821-.465.821-.837v-5.24L116.89 5v-.341a7.286 7.286 0 0 1 1.86-.28h.372v.837c.526-.527 1.395-.868 2.294-.868 1.287 0 2.17.822 2.17 2.42v4.34l.807.233v.294c-.418.17-.961.263-1.628.263-.326 0-.698-.03-1.008-.14v-.263c.388-.17.558-.465.558-1.022V7.51c0-1.52-.635-2.093-1.55-2.093-.636 0-1.255.217-1.597.48v5.21l.868.233v.294c-.526.186-1.022.263-1.798.263-.372 0-.806-.03-1.163-.14v-.263zM131.429 4.271c1.675 0 2.682 1.116 2.682 2.899 0 .294 0 .604-.015.992h-4.575c0 1.736 1.008 2.744 2.295 2.744.76 0 1.597-.263 2.186-.666.031.077.062.248.062.403 0 .698-1.023 1.348-2.667 1.348-1.766 0-3.209-1.379-3.209-3.55 0-2.697 1.628-4.17 3.24-4.17zm1.442 3.085c0-1.52-.651-2.248-1.566-2.248-.853 0-1.752 1.023-1.752 2.248h3.318zM135.107 11.495c.404-.154.823-.465.823-.837v-5.24L134.922 5v-.341a7.286 7.286 0 0 1 1.86-.28h.372v.837c.527-.527 1.395-.868 2.294-.868 1.287 0 2.171.822 2.171 2.42v4.34l.806.233v.294c-.42.17-.961.263-1.628.263-.325 0-.697-.03-1.008-.14v-.263c.388-.17.559-.465.559-1.022V7.51c0-1.52-.636-2.093-1.551-2.093-.635 0-1.256.217-1.597.48v5.21l.868.233v.294c-.527.186-1.023.263-1.797.263-.373 0-.807-.03-1.164-.14v-.263zM146.376 11.402c.636-.17.9-.464.9-1.147v-7.58l-.977-.42V1.9h5.844l-.123 2.279h-.45l-.047-.28c-.125-.774-.387-1.085-1.35-1.085h-1.549V6.38h1.581c.62 0 .945-.186 1.07-.573l.109-.372h.418v2.93h-.418l-.078-.357c-.109-.527-.388-.79-.79-.79h-1.892v3.628h1.845c.868 0 1.24-.31 1.52-.838l.154-.295h.434l-.325 2.047h-5.876v-.357zM153.007 11.495c.403-.124.76-.387.962-.697l1.86-2.682-1.892-2.977-.682-.388V4.38h2.79v.372l-.682.295 1.287 2.372L158 5.124l-.821-.373V4.38h2.37v.372l-.464.341-1.938 2.791 2.093 3.225.652.233v.294c-.435.17-.838.263-1.443.263-.449 0-.821-.045-1.132-.14v-.263c.42-.139.512-.372.388-.573l-1.394-2.217-1.474 2.418.838.218v.294c-.543.186-.946.263-1.612.263a3.91 3.91 0 0 1-1.055-.14v-.263zM164.44 7.744v-.42c0-1.673-.403-2.03-1.38-2.03-.853 0-1.674.357-2.326 1.008a2.235 2.235 0 0 1-.046-.466c0-.992.729-1.565 2.542-1.565 1.567 0 2.497.79 2.497 2.077 0 .341-.047 1.116-.063 1.566l-.046 2.512c.109.28.341.573.62.79-.232.28-.651.59-1.054.79a2.105 2.105 0 0 1-.713-.759c-.434.419-1.272.744-2.093.744-1.163 0-1.969-.728-1.969-1.72 0-1.365 1.488-2.527 4.03-2.527zm-1.489 3.318c.48 0 1.102-.187 1.488-.42v-2.17c-1.751 0-2.697.729-2.697 1.566 0 .62.42 1.024 1.21 1.024zM167.313 11.495c.404-.154.822-.465.822-.837v-5.24L167.128 5v-.341a7.286 7.286 0 0 1 1.86-.28h.372v.837c.542-.527 1.365-.868 2.279-.868.728 0 1.442.388 1.752.946.48-.48 1.52-.946 2.387-.946 1.302 0 2.156.791 2.156 2.465v4.295l.805.233v.294c-.434.17-.976.263-1.643.263-.31 0-.698-.03-.992-.14v-.263c.387-.17.558-.465.558-1.022V7.449c0-1.41-.62-2.031-1.582-2.031-.558 0-1.085.14-1.488.357.062.325.094.76.094 1.163v4.17l.805.233v.294c-.433.17-.96.263-1.628.263-.325 0-.697-.03-1.008-.14v-.263c.388-.17.56-.465.56-1.022V7.62c0-1.721-.513-2.202-1.474-2.202-.62 0-1.209.217-1.535.48v5.21l.868.233v.294c-.542.186-1.022.263-1.797.263-.373 0-.807-.03-1.164-.14v-.263zM182.776 4.271c1.675 0 2.683 1.116 2.683 2.899 0 .294 0 .604-.016.992h-4.574c0 1.736 1.008 2.744 2.295 2.744.76 0 1.597-.263 2.186-.666.03.077.062.248.062.403 0 .698-1.023 1.348-2.667 1.348-1.766 0-3.209-1.379-3.209-3.55 0-2.697 1.628-4.17 3.24-4.17zm1.443 3.085c0-1.52-.652-2.248-1.567-2.248-.852 0-1.752 1.023-1.752 2.248h3.319zM186.455 11.495c.403-.154.822-.465.822-.837v-5.24L186.27 5v-.341a7.286 7.286 0 0 1 1.86-.28h.372v.837c.526-.527 1.394-.868 2.294-.868 1.287 0 2.17.822 2.17 2.42v4.34l.806.233v.294c-.418.17-.96.263-1.627.263-.326 0-.698-.03-1.008-.14v-.263c.387-.17.558-.465.558-1.022V7.51c0-1.52-.635-2.093-1.55-2.093-.635 0-1.256.217-1.597.48v5.21l.868.233v.294c-.527.186-1.023.263-1.798.263-.372 0-.806-.03-1.163-.14v-.263zM194.817 10.085c.698.651 1.365.977 2.186.977.868 0 1.318-.42 1.318-.961 0-.544-.31-.885-1.334-1.319l-.774-.325c-.9-.388-1.396-1.039-1.396-1.923 0-1.224 1.085-2.279 2.698-2.279 1.24 0 1.736.372 1.736.961 0 .233-.031.435-.077.652-.496-.341-1.179-.59-1.768-.59-.992 0-1.457.434-1.457.962 0 .558.28.868 1.21 1.224l.836.326c1.116.434 1.535 1.008 1.535 1.922 0 1.194-1.147 2.28-2.884 2.28-1.364 0-1.968-.434-1.968-1.271 0-.218.047-.466.14-.636z"/>
  </g>
</svg>
