<svg xmlns="http://www.w3.org/2000/svg" viewBox="0 0 125 32">
  <g fill="#000" fill-rule="nonzero">
    <path d="M5.651 2c1.051 0 1.746.135 2.287.407L7.815 4.5h-.418l-.061-.271c-.248-.934-.696-1.31-1.808-1.31-1.53 0-3.013 1.505-3.013 4.126 0 2.786 1.437 4.022 2.873 4.022 1.144 0 1.716-.362 2.04-1.16l.155-.362H8l-.155 1.988c-.571.287-1.514.467-2.688.467C2.917 12 1 10.374 1 7.241 1 4.078 3.21 2 5.651 2zM12.631 4C14.532 4 16 5.472 16 7.696 16 10.336 14.223 12 12.384 12 10.514 12 9 10.64 9 8.304 9 5.68 10.73 4 12.631 4zm-.154 7.073c1.036 0 2.117-1.04 2.117-3.233 0-1.872-.973-2.912-2.07-2.912-1.067 0-2.118 1.104-2.118 3.216 0 1.936.974 2.929 2.071 2.929zM17.177 11.606c.384-.15.784-.453.784-.816V2.014L17 1.605v-.332A6.798 6.798 0 0 1 18.774 1h.473l-.075.847v9.382l.828.227v.287c-.503.182-.976.257-1.714.257-.355 0-.77-.03-1.11-.136v-.258zM21.177 11.606c.384-.15.784-.453.784-.816V2.014L21 1.605v-.332A6.798 6.798 0 0 1 22.774 1h.473l-.075.847v9.382l.828.227v.287c-.503.182-.976.257-1.714.257-.355 0-.77-.03-1.11-.136v-.258zM28.282 4C29.98 4 31 5.157 31 7.004c0 .305 0 .626-.016 1.028H26.35c0 1.8 1.021 2.844 2.325 2.844.77 0 1.618-.274 2.214-.69.032.08.064.257.064.416 0 .724-1.037 1.398-2.702 1.398C26.46 12 25 10.571 25 8.321 25 5.526 26.65 4 28.282 4zm1.462 3.197c0-1.575-.66-2.33-1.587-2.33-.864 0-1.775 1.06-1.775 2.33h3.362zM32.635 9.059v-.016c-.695-.27-1.388-1.047-1.388-2.08C31.247 5.287 32.635 4 34.315 4c.632 0 1.402.255 1.665.494.278-.255.863-.479 1.357-.479.262 0 .509.045.663.09l-.108.988a7.99 7.99 0 0 0-1.65-.165v.015c.509.374.879 1.017.879 1.631 0 1.736-1.465 2.918-3.13 2.918a2.7 2.7 0 0 1-.956-.18c-.231.135-.494.45-.494.719 0 .45.386.69.987.69l2.16-.016c1.294-.015 2.019.568 2.019 1.676 0 1.422-1.618 2.619-3.762 2.619C32.002 15 31 14.237 31 13.25c0-.794.632-1.437 1.465-1.663v-.014c-.57-.195-.91-.598-.91-1.168 0-.568.493-1.152 1.08-1.346zm1.51 5.073c1.465 0 2.437-.703 2.437-1.422 0-.583-.401-.912-1.141-.912h-2.483a1.353 1.353 0 0 0-.787 1.197c0 .614.68 1.137 1.974 1.137zm1.62-7.513c0-1.257-.725-1.856-1.542-1.856-.88 0-1.62.808-1.62 2.11 0 1.257.725 1.871 1.48 1.871.941 0 1.681-.658 1.681-2.125zM42.282 4C43.98 4 45 5.157 45 7.004c0 .305 0 .626-.016 1.028H40.35c0 1.8 1.021 2.844 2.325 2.844.77 0 1.618-.274 2.214-.69.032.08.064.257.064.416 0 .724-1.037 1.398-2.702 1.398C40.46 12 39 10.571 39 8.321 39 5.526 40.65 4 42.282 4zm1.462 3.197c0-1.575-.66-2.33-1.587-2.33-.864 0-1.775 1.06-1.775 2.33h3.362zM47.636 4.865L47 4.392V4h2.965v.392l-.885.392 1.676 5.175h.015l1.723-5.127-.885-.44V4H54v.392l-.434.375-2.763 7.2-.528.033zM57.632 4C59.532 4 61 5.472 61 7.696 61 10.336 59.223 12 57.385 12 55.515 12 54 10.64 54 8.304 54 5.68 55.73 4 57.632 4zm-.155 7.073c1.035 0 2.117-1.04 2.117-3.233 0-1.872-.973-2.912-2.071-2.912-1.066 0-2.116 1.104-2.116 3.216 0 1.936.973 2.929 2.07 2.929zM66.632 4C68.532 4 70 5.472 70 7.696 70 10.336 68.223 12 66.385 12 64.515 12 63 10.64 63 8.304 63 5.68 64.73 4 66.632 4zm-.155 7.073c1.035 0 2.117-1.04 2.117-3.233 0-1.872-.973-2.912-2.071-2.912-1.066 0-2.116 1.104-2.116 3.216 0 1.936.973 2.929 2.07 2.929zM70.191 11.575c.416-.162.848-.49.848-.881V5.175L70 4.735v-.36a7.36 7.36 0 0 1 1.917-.293h.384v1.142h.016l.447-.506c.431-.473.862-.718 1.406-.718.56 0 .83.245.83.702 0 .31-.096.67-.256.98a1.594 1.594 0 0 0-.99-.376c-.495 0-.958.229-1.406.67v5.192l1.103.245v.31c-.543.196-1.07.277-1.982.277-.463 0-.91-.033-1.278-.147v-.278zM79.968 11.557c.556-.169.886-.505.886-1.116V2.933h-1.126c-.677 0-1.022.367-1.172 1.024l-.09.352H78V2.077c1.037.03 2.704.045 3.605.045 1.337 0 2.283-.03 3.395-.122v2.309h-.466l-.06-.352c-.09-.673-.36-1.024-.961-1.024h-1.367v8.226l1.111.245v.336c-.54.168-1.096.26-1.802.26-.646 0-1.052-.03-1.487-.153v-.29zM88.632 4C90.532 4 92 5.472 92 7.696 92 10.336 90.223 12 88.385 12 86.515 12 85 10.64 85 8.304 85 5.68 86.73 4 88.632 4zm-.155 7.073c1.036 0 2.117-1.04 2.117-3.233 0-1.872-.973-2.912-2.07-2.912-1.067 0-2.117 1.104-2.117 3.216 0 1.936.973 2.929 2.07 2.929zM96.282 4C97.98 4 99 5.157 99 7.004c0 .305 0 .626-.016 1.028H94.35c0 1.8 1.021 2.844 2.325 2.844.77 0 1.618-.274 2.214-.69.032.08.064.257.064.416 0 .724-1.037 1.398-2.702 1.398C94.46 12 93 10.571 93 8.321 93 5.526 94.65 4 96.282 4zm1.462 3.197c0-1.575-.66-2.33-1.587-2.33-.864 0-1.775 1.06-1.775 2.33h3.362zM99.754 7.428l.043-2.126H99v-.527l1.565-1.71.479-.065-.059 1.439h1.914l-.103.863h-1.854l-.029 2.014c-.014.671-.014 1.279-.014 1.87 0 1.296.347 1.743.883 1.743.421 0 .783-.16 1.073-.416l.145.064c-.058.943-.565 1.423-1.565 1.423-1.16 0-1.725-.672-1.725-2.223 0-.767.03-1.614.044-2.35zM104.144 10.029c.718.673 1.406 1.01 2.252 1.01.894 0 1.358-.434 1.358-.994 0-.562-.32-.915-1.374-1.364l-.798-.336c-.927-.401-1.438-1.074-1.438-1.988 0-1.267 1.118-2.357 2.78-2.357 1.277 0 1.788.385 1.788.994 0 .24-.032.45-.08.673-.51-.352-1.214-.609-1.82-.609-1.023 0-1.502.449-1.502.994 0 .577.288.898 1.246 1.267l.862.336c1.15.45 1.582 1.043 1.582 1.988 0 1.235-1.182 2.357-2.971 2.357-1.406 0-2.029-.448-2.029-1.314 0-.225.048-.482.144-.657zM113.283 4C114.98 4 116 5.157 116 7.004c0 .305 0 .626-.015 1.028h-4.633c0 1.8 1.02 2.844 2.324 2.844.77 0 1.618-.274 2.214-.69.032.08.063.257.063.416 0 .724-1.036 1.398-2.702 1.398-1.79 0-3.251-1.429-3.251-3.679C110 5.526 111.65 4 113.283 4zm1.46 3.197c0-1.575-.659-2.33-1.586-2.33-.863 0-1.775 1.06-1.775 2.33h3.361zM117.198 11.573c.43-.164.876-.493.876-.887V5.134L117 4.69V4.33a7.814 7.814 0 0 1 1.984-.296h.396v.887c.562-.558 1.487-.92 2.446-.92 1.373 0 2.315.87 2.315 2.563v4.6l.859.246v.312c-.446.18-1.025.279-1.736.279-.347 0-.743-.033-1.074-.148v-.28c.413-.18.595-.492.595-1.083V7.351c0-1.61-.678-2.217-1.653-2.217-.678 0-1.338.23-1.703.51v5.519l.926.246v.312c-.561.197-1.09.279-1.917.279-.397 0-.86-.033-1.24-.148v-.28zM4.429 21.271c1.675 0 2.682 1.116 2.682 2.899 0 .294 0 .604-.015.992H2.52c0 1.736 1.008 2.744 2.295 2.744.76 0 1.597-.263 2.186-.666.031.077.062.248.062.403 0 .698-1.023 1.348-2.667 1.348-1.766 0-3.209-1.379-3.209-3.55 0-2.697 1.628-4.17 3.24-4.17zm1.442 3.085c0-1.52-.651-2.248-1.566-2.248-.853 0-1.752 1.023-1.752 2.248H5.87zM8.107 28.495c.404-.154.823-.465.823-.837v-5.24L7.922 22v-.341a7.286 7.286 0 0 1 1.86-.28h.372v.837c.527-.527 1.395-.868 2.294-.868 1.287 0 2.171.822 2.171 2.42v4.34l.806.233v.294c-.42.17-.961.263-1.628.263-.325 0-.697-.03-1.008-.14v-.263c.388-.17.559-.465.559-1.022V24.51c0-1.52-.636-2.093-1.551-2.093-.635 0-1.256.217-1.597.48v5.21l.868.233v.294c-.527.186-1.023.263-1.797.263-.373 0-.807-.03-1.164-.14v-.263zM19.376 28.402c.636-.17.9-.465.9-1.147v-7.58l-.977-.42V18.9h5.844l-.123 2.279h-.45l-.047-.28c-.125-.774-.387-1.085-1.35-1.085h-1.549v3.566h1.581c.62 0 .945-.186 1.07-.573l.109-.372h.418v2.93h-.418l-.078-.357c-.109-.527-.388-.79-.79-.79h-1.892v3.628h1.845c.868 0 1.24-.31 1.52-.838l.154-.295h.434l-.325 2.047h-5.876v-.357zM26.007 28.495c.403-.124.76-.387.962-.697l1.86-2.682-1.892-2.977-.682-.388v-.372h2.79v.372l-.682.295 1.287 2.372L31 22.124l-.821-.373v-.372h2.37v.372l-.464.341-1.938 2.791 2.093 3.225.652.233v.294c-.435.17-.838.263-1.443.263-.449 0-.821-.045-1.132-.14v-.263c.42-.139.512-.372.388-.573l-1.394-2.217-1.474 2.418.838.218v.294c-.543.186-.946.263-1.612.263a3.91 3.91 0 0 1-1.055-.14v-.263zM37.44 24.744v-.42c0-1.673-.403-2.03-1.38-2.03-.853 0-1.674.357-2.326 1.008a2.235 2.235 0 0 1-.046-.466c0-.992.729-1.565 2.542-1.565 1.567 0 2.497.79 2.497 2.077 0 .341-.047 1.116-.063 1.566l-.046 2.512c.109.28.341.573.62.79-.232.28-.651.59-1.054.79a2.105 2.105 0 0 1-.713-.759c-.434.419-1.272.744-2.093.744-1.163 0-1.969-.728-1.969-1.72 0-1.365 1.488-2.527 4.03-2.527zm-1.489 3.318c.48 0 1.102-.187 1.488-.42v-2.17c-1.752 0-2.697.729-2.697 1.566 0 .62.42 1.024 1.21 1.024zM40.313 28.495c.404-.154.822-.465.822-.837v-5.24L40.128 22v-.341a7.286 7.286 0 0 1 1.86-.28h.372v.837c.542-.527 1.365-.868 2.279-.868.728 0 1.442.388 1.752.946.48-.48 1.52-.946 2.387-.946 1.302 0 2.156.791 2.156 2.465v4.295l.805.233v.294c-.434.17-.976.263-1.643.263-.31 0-.698-.03-.992-.14v-.263c.387-.17.558-.465.558-1.022v-3.024c0-1.41-.62-2.031-1.582-2.031-.558 0-1.085.14-1.488.357.062.325.094.76.094 1.163v4.17l.805.233v.294c-.433.17-.96.263-1.628.263-.325 0-.697-.03-1.008-.14v-.263c.388-.17.56-.465.56-1.022V24.62c0-1.721-.513-2.202-1.474-2.202-.62 0-1.209.217-1.535.48v5.21l.868.233v.294c-.542.186-1.022.263-1.797.263-.373 0-.807-.03-1.164-.14v-.263zM55.776 21.271c1.675 0 2.683 1.116 2.683 2.899 0 .294 0 .604-.016.992H53.87c0 1.736 1.008 2.744 2.295 2.744.76 0 1.597-.263 2.186-.666.03.077.062.248.062.403 0 .698-1.023 1.348-2.667 1.348-1.766 0-3.209-1.379-3.209-3.55 0-2.697 1.628-4.17 3.24-4.17zm1.443 3.085c0-1.52-.652-2.248-1.567-2.248-.852 0-1.752 1.023-1.752 2.248h3.319zM59.455 28.495c.403-.154.822-.465.822-.837v-5.24L59.27 22v-.341a7.286 7.286 0 0 1 1.86-.28h.372v.837c.526-.527 1.394-.868 2.294-.868 1.287 0 2.17.822 2.17 2.42v4.34l.806.233v.294c-.418.17-.96.263-1.627.263-.326 0-.698-.03-1.008-.14v-.263c.387-.17.558-.465.558-1.022V24.51c0-1.52-.635-2.093-1.55-2.093-.635 0-1.256.217-1.597.48v5.21l.868.233v.294c-.527.186-1.023.263-1.798.263-.372 0-.806-.03-1.163-.14v-.263zM67.817 27.085c.698.651 1.365.977 2.186.977.868 0 1.318-.42 1.318-.961 0-.544-.31-.885-1.334-1.319l-.774-.325c-.9-.388-1.396-1.039-1.396-1.923 0-1.224 1.085-2.279 2.698-2.279 1.24 0 1.736.372 1.736.961 0 .233-.031.435-.077.652-.496-.341-1.179-.59-1.768-.59-.992 0-1.457.434-1.457.962 0 .558.28.868 1.21 1.224l.836.326c1.116.434 1.535 1.008 1.535 1.922 0 1.194-1.147 2.28-2.884 2.28-1.364 0-1.968-.434-1.968-1.271 0-.218.047-.466.14-.636z"/>
  </g>
</svg>
