<svg xmlns="http://www.w3.org/2000/svg" viewBox="0 0 40 40" enable-background="new 0 0 40 40"><style type="text/css">.st0{fill:#010101;} .st1{fill:#FFFFFF;} .st2{fill:#E07226;}</style><g id="XMLID_800_"><path id="XMLID_985_" class="st0" d="M40 34.4c0 3.1-2.5 5.6-5.6 5.6h-28.8c-3.1 0-5.6-2.5-5.6-5.6v-28.8c0-3.1 2.5-5.6 5.6-5.6h28.7c3.2 0 5.7 2.5 5.7 5.6v28.8z"/><g id="XMLID_835_"><path id="XMLID_853_" class="st1" d="M4.4 30.5v-9.5h2.7c3.2 0 5 1.6 5 4.5 0 3.4-1.9 5-5 5h-2.7zm1.8-1.4h1c1.9 0 3.1-1 3.1-3.5 0-2-1.2-3.1-3.3-3.1h-.8v6.6z"/><path id="XMLID_850_" class="st1" d="M14.5 20.5c.6 0 1 .4 1 .9s-.3.9-1 .9c-.6 0-1-.4-1-.9s.3-.9 1-.9zm.8 10h-1.6v-7.1l1.6-.1v7.2z"/><path id="XMLID_842_" class="st1" d="M19.2 29.2h1.7c1.5 0 2.2.6 2.2 1.8 0 1.4-1.1 2.4-3.7 2.4-2 0-3-.7-3-1.8 0-.7.4-1.2 1.1-1.5-.3-.2-.6-.5-.6-1 0-.4.3-.9.8-1.1-.6-.4-1-1-1-1.9 0-1.7 1.2-2.7 3-2.7.4 0 .7 0 1.1.1h2.3v1.1h-1.1c.3.2.6.7.6 1.3 0 1.6-1.1 2.4-3 2.4-.3 0-.6 0-.9-.1-.2.1-.3.3-.3.4-.1.4.2.6.8.6zm.3 3c1.6 0 2.1-.4 2.1-1 0-.4-.3-.6-1-.7l-2.4-.1c-.3.2-.4.4-.4.7.1.7.6 1.1 1.7 1.1zm1.5-6.4c0-.9-.5-1.3-1.4-1.3-.8 0-1.4.5-1.4 1.4 0 .9.5 1.3 1.4 1.3.9 0 1.4-.4 1.4-1.4z"/><path id="XMLID_839_" class="st2" d="M25 20.5c.6 0 1 .4 1 .9s-.3.9-1 .9c-.6 0-1-.4-1-.9s.4-.9 1-.9zm.8 10h-1.6v-7.1l1.6-.1v7.2z"/><path id="XMLID_836_" class="st2" d="M27.9 30.5v-9.5h2.7c3.2 0 5 1.6 5 4.5 0 3.4-1.9 5-5 5h-2.7zm1.7-1.4h1c1.9 0 3.1-1 3.1-3.5 0-2-1.2-3.1-3.3-3.1h-.9v6.6z"/></g></g></svg>