<svg xmlns="http://www.w3.org/2000/svg" viewBox="0 0 114.66 31.23"><g data-name="Layer 2"><g data-name="Layer 1"><g data-name="&lt;Group&gt;"><path d="M.72 11.14v-.31a1.57 1.57 0 0 0 .69-.41 1.19 1.19 0 0 0 .25-.83v-8l-1-.34V.91c.53-.08 1-.14 1.55-.18s1.09 0 1.75 0A6.37 6.37 0 0 1 8.06 2a4.39 4.39 0 0 1 1.56 3.6 5.3 5.3 0 0 1-1.77 4.16 6.14 6.14 0 0 1-4.16 1.54H2.11a12.63 12.63 0 0 1-1.39-.16zm2.34-.87h.4a2.5 2.5 0 0 0 .4 0 4.16 4.16 0 0 0 2.95-1.1A4.42 4.42 0 0 0 8 5.83a4 4 0 0 0-1.15-3.11 4.2 4.2 0 0 0-2.94-1.09h-.85zm7.99.87v-.28a1.88 1.88 0 0 0 .59-.35.71.71 0 0 0 .27-.53v-5.5l-1-.44V3.7a7.41 7.41 0 0 1 1.07-.24 6.25 6.25 0 0 1 .87-.07h.52l-.08.88v6.18l.91.25v.3a5 5 0 0 1-.84.22 7.83 7.83 0 0 1-1.05.06h-.61a3.33 3.33 0 0 1-.65-.14zm1.54-9.25a.85.85 0 0 1-.59-.26.93.93 0 0 1-.27-.63A1 1 0 0 1 12 .29a.88.88 0 0 1 .66-.29.82.82 0 0 1 .59.24.82.82 0 0 1 .26.64 1.08 1.08 0 0 1-.26.72.88.88 0 0 1-.66.29zm2.58 5.76a4.53 4.53 0 0 1 1.06-3.24 3.16 3.16 0 0 1 2.34-1.14 2.66 2.66 0 0 1 2.07.83 3.14 3.14 0 0 1 .74 2.22v1.04h-4.82a3 3 0 0 0 .71 2.12 2.21 2.21 0 0 0 1.71.76A4.1 4.1 0 0 0 20.2 10a3.92 3.92 0 0 0 1.07-.5v.19a1 1 0 0 1 0 .23c0 .37-.26.7-.76 1a4.14 4.14 0 0 1-2 .43 3.19 3.19 0 0 1-2.37-1 3.72 3.72 0 0 1-.97-2.7zm1.43-1.14h3.48a2.82 2.82 0 0 0-.46-1.77 1.46 1.46 0 0 0-1.18-.59 1.66 1.66 0 0 0-1.26.7 2.51 2.51 0 0 0-.58 1.66zm6.01 4.63v-.28a1.84 1.84 0 0 0 .58-.35.69.69 0 0 0 .28-.53v-5.5L22.41 4v-.32a7.46 7.46 0 0 1 1.08-.23 7.93 7.93 0 0 1 .88-.06h.39v.88a2.74 2.74 0 0 1 1.06-.66 3.64 3.64 0 0 1 1.35-.26 2.2 2.2 0 0 1 1.64.65 2.6 2.6 0 0 1 .64 1.89v4.56l.84.25v.3a3.52 3.52 0 0 1-.75.21 5.69 5.69 0 0 1-1 .07h-.53a2.65 2.65 0 0 1-.52-.11v-.28a.92.92 0 0 0 .44-.38 1.5 1.5 0 0 0 .14-.7V6.68A2.49 2.49 0 0 0 27.65 5a1.51 1.51 0 0 0-1.17-.5 3.43 3.43 0 0 0-1 .14 2.24 2.24 0 0 0-.71.36v5.47l.91.25V11a4.6 4.6 0 0 1-.85.22 7.78 7.78 0 0 1-1 .06h-.62a3.38 3.38 0 0 1-.6-.14zm8.8-1.14a1.47 1.47 0 0 1 .05-.34 1.1 1.1 0 0 1 .1-.32 4.74 4.74 0 0 0 1.1.76 2.64 2.64 0 0 0 1.2.26 1.54 1.54 0 0 0 1-.29.93.93 0 0 0 .35-.72 1 1 0 0 0-.3-.73A3.53 3.53 0 0 0 33.84 8L33 7.67a2.73 2.73 0 0 1-1.09-.82 1.93 1.93 0 0 1-.38-1.2A2.22 2.22 0 0 1 32.34 4a3 3 0 0 1 2-.71 2.69 2.69 0 0 1 1.4.27.84.84 0 0 1 .43.74 2.16 2.16 0 0 1 0 .35v.33a4.19 4.19 0 0 0-.9-.44 2.89 2.89 0 0 0-1-.18 1.85 1.85 0 0 0-1.16.3.89.89 0 0 0-.37.71 1 1 0 0 0 .27.73 3 3 0 0 0 1 .56l.89.34a2.82 2.82 0 0 1 1.24.82A1.89 1.89 0 0 1 36.51 9a2.19 2.19 0 0 1-.83 1.66 3.19 3.19 0 0 1-2.2.73 2.81 2.81 0 0 1-1.57-.39 1.14 1.14 0 0 1-.5-1zm6.91-.91V4.53h-.89V4l1.75-1.74.54-.07-.06 1.47h2.24l-.12.88H39.7v3.98a2.6 2.6 0 0 0 .27 1.38.85.85 0 0 0 .72.4 1.76 1.76 0 0 0 .66-.12 2 2 0 0 0 .55-.31l.1.03a1.45 1.45 0 0 1-.48 1.1 1.94 1.94 0 0 1-1.27.37 1.84 1.84 0 0 1-1.45-.55 2.53 2.53 0 0 1-.48-1.73zm8.31-.93v-6.6l-1-.26V1c.31-.08.62-.14.93-.19a5.84 5.84 0 0 1 .93-.08h.77c.24 0 .5.06.77.11v.33a1.34 1.34 0 0 0-.74.4 1.48 1.48 0 0 0-.22.88v5.43a2.43 2.43 0 0 0 .65 1.78 2.36 2.36 0 0 0 1.75.66 2.29 2.29 0 0 0 1.73-.7 3 3 0 0 0 .68-2.16v-5.9l-1.09-.26V1a8.12 8.12 0 0 1 .89-.21 5 5 0 0 1 .86-.07 3.78 3.78 0 0 1 .7 0 6.21 6.21 0 0 1 .68.13v.31a1.51 1.51 0 0 0-.74.44 1.25 1.25 0 0 0-.21.78v4.88a4.13 4.13 0 0 1-1 3.08 3.71 3.71 0 0 1-2.67 1 3.89 3.89 0 0 1-2.69-.84 3 3 0 0 1-.98-2.34zm9.27 2.98v-.28a1.88 1.88 0 0 0 .59-.35.71.71 0 0 0 .27-.53v-5.5l-1-.44V3.7a7.41 7.41 0 0 1 1.07-.24 6.24 6.24 0 0 1 .86-.07h.53l-.09.88v6.18l.92.25v.3a5.2 5.2 0 0 1-.84.22 7.83 7.83 0 0 1-1.05.06h-.61a3.33 3.33 0 0 1-.65-.14zm1.54-9.25a.83.83 0 0 1-.61-.26.93.93 0 0 1-.25-.63 1 1 0 0 1 .25-.67.88.88 0 0 1 .68-.33.82.82 0 0 1 .59.24.81.81 0 0 1 .25.64 1 1 0 0 1-.26.72.84.84 0 0 1-.65.29zm3.28 7.2V4.53h-.9V4l1.76-1.74.53-.07-.06 1.47h2.25l-.12.88H62.1v3.98a2.6 2.6 0 0 0 .27 1.38.85.85 0 0 0 .72.4 1.76 1.76 0 0 0 .66-.12 1.86 1.86 0 0 0 .55-.31l.16.07a1.42 1.42 0 0 1-.54 1.06 1.94 1.94 0 0 1-1.27.37 1.84 1.84 0 0 1-1.45-.55 2.53 2.53 0 0 1-.48-1.73zm7.51 2.27l-2.77-7.11-.67-.47v-.39h3.11v.39l-.9.39 1.76 5.16 1.81-5.11-.93-.44v-.39h2.51v.39l-.46.37-2.9 7.18zm4.11-3.72a4.4 4.4 0 0 1 1.16-3.19 3.64 3.64 0 0 1 2.66-1.19 3.43 3.43 0 0 1 2.53 1 3.72 3.72 0 0 1 1 2.73 4.32 4.32 0 0 1-1.18 3.19 3.63 3.63 0 0 1-2.61 1.22 3.55 3.55 0 0 1-2.51-1 3.61 3.61 0 0 1-1.05-2.76zm1.48-.17a3.32 3.32 0 0 0 .66 2.23 2 2 0 0 0 1.52.75 2 2 0 0 0 1.52-.81 3.73 3.73 0 0 0 .71-2.48A3.29 3.29 0 0 0 77.57 5a2 2 0 0 0-1.52-.77 2 2 0 0 0-1.53.77 3.68 3.68 0 0 0-.7 2.47zm7.18.18a4.54 4.54 0 0 1 1.07-3.24 3.16 3.16 0 0 1 2.34-1.14 2.67 2.67 0 0 1 2.07.83 3.18 3.18 0 0 1 .74 2.22v1.04h-4.8a3 3 0 0 0 .7 2.12 2.24 2.24 0 0 0 1.71.76 4 4 0 0 0 1.22-.2 4 4 0 0 0 1.08-.5v.19a.93.93 0 0 1 0 .23q0 .55-.75 1a4.14 4.14 0 0 1-2 .43 3.19 3.19 0 0 1-2.37-1A3.73 3.73 0 0 1 81 7.65zm1.44-1.14h3.48a2.82 2.82 0 0 0-.46-1.77 1.46 1.46 0 0 0-1.18-.59 1.64 1.64 0 0 0-1.26.7 2.51 2.51 0 0 0-.56 1.66zm6.03 4.63v-.28a2 2 0 0 0 .58-.35.69.69 0 0 0 .28-.53v-5.5L88.27 4v-.32a7.46 7.46 0 0 1 1.08-.23 7.77 7.77 0 0 1 .87-.06h.4v1.14l.47-.53a2.53 2.53 0 0 1 .67-.54 1.67 1.67 0 0 1 .76-.18 1 1 0 0 1 .64.18.68.68 0 0 1 .21.53 1.72 1.72 0 0 1-.08.48 3.12 3.12 0 0 1-.18.49 1.69 1.69 0 0 0-.49-.27 1.37 1.37 0 0 0-.52-.1 1.57 1.57 0 0 0-.73.17 2.62 2.62 0 0 0-.7.49v5.18l1.12.25V11a4.71 4.71 0 0 1-.86.22 9.24 9.24 0 0 1-1.16.06h-.69a3.5 3.5 0 0 1-.61-.14zm5.91 0v-.28a1.82 1.82 0 0 0 .6-.35.71.71 0 0 0 .27-.53v-5.5l-1-.44V3.7a7.12 7.12 0 0 1 1.07-.24 6.12 6.12 0 0 1 .86-.07h.52l-.08.88v6.18l.91.25v.3a4.71 4.71 0 0 1-.84.22 7.63 7.63 0 0 1-1.05.06h-.61a3.68 3.68 0 0 1-.65-.14zm1.55-9.25a.83.83 0 0 1-.61-.26.93.93 0 0 1-.25-.63 1 1 0 0 1 .25-.67A.86.86 0 0 1 96 0a.84.84 0 0 1 .59.24.81.81 0 0 1 .25.64 1 1 0 0 1-.26.72.84.84 0 0 1-.65.29zm2.86 9.25v-.28a2 2 0 0 0 .58-.35.69.69 0 0 0 .28-.53v-5.5L98.59 4v-.32a7.46 7.46 0 0 1 1.08-.23 7.77 7.77 0 0 1 .87-.06h.39v.88a2.9 2.9 0 0 1 1.07-.66 3.72 3.72 0 0 1 1.35-.26A2.21 2.21 0 0 1 105 4a2.6 2.6 0 0 1 .63 1.89v4.56l.85.25v.3a3.62 3.62 0 0 1-.76.21 5.49 5.49 0 0 1-.95.07h-.54a2.82 2.82 0 0 1-.52-.11v-.28a.9.9 0 0 0 .45-.38 1.5 1.5 0 0 0 .14-.7V6.68a2.54 2.54 0 0 0-.46-1.7 1.51 1.51 0 0 0-1.17-.5 3.32 3.32 0 0 0-1 .14A2.3 2.3 0 0 0 101 5v5.47l.91.25V11a4.71 4.71 0 0 1-.84.22 7.78 7.78 0 0 1-1 .06h-.62a3.38 3.38 0 0 1-.66-.14zm9.07-.92a1.35 1.35 0 0 1 .34-.87 1.75 1.75 0 0 1 .8-.59 2.26 2.26 0 0 1-1-.82 2.32 2.32 0 0 1-.46-1.44 3 3 0 0 1 1-2.29 3.17 3.17 0 0 1 2.28-.93 3.13 3.13 0 0 1 1 .17 2 2 0 0 1 .73.36 1.69 1.69 0 0 1 .63-.36 2.33 2.33 0 0 1 .8-.16 2.5 2.5 0 0 1 .4 0l.3.07-.11 1.07-.83-.13a9 9 0 0 0-.91 0 2.43 2.43 0 0 1 .66.79 2 2 0 0 1 .26 1 2.92 2.92 0 0 1-1 2.29 3.35 3.35 0 0 1-2.31.88 2.46 2.46 0 0 1-.53-.06 2.09 2.09 0 0 1-.48-.14 1.65 1.65 0 0 0-.35.35.74.74 0 0 0-.17.44.61.61 0 0 0 .29.55 1.28 1.28 0 0 0 .75.2h2.28a2.34 2.34 0 0 1 1.58.45 1.7 1.7 0 0 1 .55 1.37 2.48 2.48 0 0 1-1.14 2 4.63 4.63 0 0 1-2.83.84 4 4 0 0 1-2.32-.55 1.6 1.6 0 0 1-.34-2.49 2.24 2.24 0 0 1 1.1-.67 1.42 1.42 0 0 1-.71-.49 1.2 1.2 0 0 1-.26-.84zm.65 2.82a1 1 0 0 0 .53.87 2.67 2.67 0 0 0 1.55.37 3.3 3.3 0 0 0 1.87-.48 1.33 1.33 0 0 0 .7-1.07.89.89 0 0 0-.31-.73 1.35 1.35 0 0 0-.89-.26h-2.62a1.31 1.31 0 0 0-.59.53 1.37 1.37 0 0 0-.24.73zm2-4.62a1.65 1.65 0 0 0 1.26-.56 2.57 2.57 0 0 0 .51-1.76 2.07 2.07 0 0 0-.49-1.52 1.53 1.53 0 0 0-1.14-.49 1.48 1.48 0 0 0-1.2.62 2.54 2.54 0 0 0-.5 1.67 2.08 2.08 0 0 0 .48 1.53 1.45 1.45 0 0 0 1.1.51zM0 22.36a5.6 5.6 0 0 1 1.51-4.09 4.65 4.65 0 0 1 3.4-1.56A4.08 4.08 0 0 1 8 18a5 5 0 0 1 1.26 3.57A6.06 6.06 0 0 1 7.75 26a4.57 4.57 0 0 1-3.42 1.57 4 4 0 0 1-3.06-1.39A5.36 5.36 0 0 1 0 22.36zm4.49 4.14a2.89 2.89 0 0 0 2.16-1.12 5.13 5.13 0 0 0 1-3.48 4.71 4.71 0 0 0-.89-3.14 2.64 2.64 0 0 0-2-1 2.85 2.85 0 0 0-2.15 1.14 4.9 4.9 0 0 0-1 3.28 5.06 5.06 0 0 0 .89 3.22 2.56 2.56 0 0 0 1.99 1.1zm6.18.76V27a2 2 0 0 0 .59-.36.69.69 0 0 0 .28-.52V20.6l-1.06-.44v-.35a6.22 6.22 0 0 1 1.07-.23 6.27 6.27 0 0 1 .88-.07h.39v.88a3.09 3.09 0 0 1 1.06-.66 3.63 3.63 0 0 1 1.35-.25 2.19 2.19 0 0 1 1.64.64 2.57 2.57 0 0 1 .64 1.9v4.56l.85.24v.31a3.12 3.12 0 0 1-.76.2 5.61 5.61 0 0 1-1 .08 4.89 4.89 0 0 1-.54 0 2.82 2.82 0 0 1-.52-.12V27a1 1 0 0 0 .46-.4 1.49 1.49 0 0 0 .13-.69V22.8a2.52 2.52 0 0 0-.45-1.69 1.52 1.52 0 0 0-1.17-.51 3 3 0 0 0-1 .15 2.19 2.19 0 0 0-.72.36v5.47l.91.24v.31a4 4 0 0 1-.84.21 6.51 6.51 0 0 1-1 .07h-.62a3.75 3.75 0 0 1-.57-.15zm8.68-3.32a4.61 4.61 0 0 1 1.15-3.35 3.75 3.75 0 0 1 2.74-1.17h.61a4.46 4.46 0 0 1 .52.08v-2.83l-1.11-.45v-.35a6.26 6.26 0 0 1 1.11-.23 6.77 6.77 0 0 1 .91-.07h.52l-.1.91v9.33a2.16 2.16 0 0 0 .23.49 2.8 2.8 0 0 0 .39.46c-.16.14-.34.27-.52.4s-.39.24-.62.36a3.25 3.25 0 0 1-.46-.45 2.71 2.71 0 0 1-.32-.52 3 3 0 0 1-1 .66 2.62 2.62 0 0 1-1.1.26 2.73 2.73 0 0 1-2.09-1 3.69 3.69 0 0 1-.86-2.53zm3.37 2.48a3 3 0 0 0 .92-.15 2.05 2.05 0 0 0 .74-.38v-5.38a3.58 3.58 0 0 0-.54-.13 4.62 4.62 0 0 0-.65-.05 2.14 2.14 0 0 0-1.72.83 3.81 3.81 0 0 0-.7 2.52 3.11 3.11 0 0 0 .59 2 1.76 1.76 0 0 0 1.36.74zm4.82-2.64a4.58 4.58 0 0 1 1.07-3.25A3.19 3.19 0 0 1 31 19.4a2.62 2.62 0 0 1 2.06.82 3.17 3.17 0 0 1 .75 2.22v1.04H29a3 3 0 0 0 .7 2.13 2.24 2.24 0 0 0 1.71.76 4.1 4.1 0 0 0 1.22-.2 4.24 4.24 0 0 0 1.07-.5v.18a1.05 1.05 0 0 1 0 .24c0 .37-.26.7-.76 1a4.24 4.24 0 0 1-2 .43 3.19 3.19 0 0 1-2.38-1 3.73 3.73 0 0 1-1.02-2.74zM29 22.64h3.48a2.87 2.87 0 0 0-.48-1.78 1.44 1.44 0 0 0-1.18-.58 1.64 1.64 0 0 0-1.26.7 2.49 2.49 0 0 0-.56 1.66zm6 4.62V27a2 2 0 0 0 .59-.36.67.67 0 0 0 .27-.52V20.6l-1.06-.44v-.35a6.33 6.33 0 0 1 1.08-.23 6.27 6.27 0 0 1 .88-.07h.39v1.14l.46-.5a2.38 2.38 0 0 1 .68-.54 1.6 1.6 0 0 1 .75-.18 1 1 0 0 1 .64.18.64.64 0 0 1 .21.52 1.76 1.76 0 0 1-.07.49 3.56 3.56 0 0 1-.19.49 2 2 0 0 0-.49-.28 1.5 1.5 0 0 0-1.25.08 2.55 2.55 0 0 0-.7.49v5.18l1.12.24v.31a4 4 0 0 1-.86.21 7.49 7.49 0 0 1-1.16.07h-.69a3.47 3.47 0 0 1-.6-.15zm8.41.23L41 20.39l-.69-.49v-.39h3.15v.39l-.94.4 1.45 5.22 1.62-5.19-.9-.43v-.39h2.77v.39l-.48.36 1.47 5.24 1.67-5.16-.92-.44v-.39h2.5v.39l-.44.36-2.73 7.2h-.69l-1.8-6-1.87 6zm9.27-.23V27a1.85 1.85 0 0 0 .6-.36.67.67 0 0 0 .27-.52V20.6l-1-.44v-.34a8.41 8.41 0 0 1 1.94-.31H55l-.08.88v6.19l.91.24v.31a4 4 0 0 1-.84.21 6.19 6.19 0 0 1-1.05.07h-.61a3.66 3.66 0 0 1-.65-.15zM54.23 18a.8.8 0 0 1-.61-.27.89.89 0 0 1-.25-.66 1 1 0 0 1 .25-.67.82.82 0 0 1 .67-.29.82.82 0 0 1 .85.88 1 1 0 0 1-.26.71.82.82 0 0 1-.65.3zm3.39 10.11V20.6l-1-.44v-.34a8.17 8.17 0 0 1 2-.31h.52l-.09.91v7.31a5.14 5.14 0 0 1-.53 2.75 1.57 1.57 0 0 1-1.31.75 1.54 1.54 0 0 1-.52-.09.91.91 0 0 1-.39-.3v-.26a1.2 1.2 0 0 0 1-.62 3.14 3.14 0 0 0 .32-1.85zM58.31 18a.79.79 0 0 1-.61-.27.9.9 0 0 1-.26-.66 1 1 0 0 1 .26-.67.81.81 0 0 1 .67-.29.84.84 0 0 1 .6.23.87.87 0 0 1 .25.65 1 1 0 0 1-.26.71.83.83 0 0 1-.65.3zm2.43 8.17a1.5 1.5 0 0 1 0-.35 1.34 1.34 0 0 1 .1-.32 4.8 4.8 0 0 0 1.1.77 2.78 2.78 0 0 0 1.2.26 1.6 1.6 0 0 0 1-.29.9.9 0 0 0 .35-.72 1 1 0 0 0-.3-.73 3.35 3.35 0 0 0-1.1-.65l-.81-.34a2.73 2.73 0 0 1-1.02-.8 2 2 0 0 1-.38-1.2 2.21 2.21 0 0 1 .78-1.68 2.91 2.91 0 0 1 2.05-.72 2.58 2.58 0 0 1 1.4.28.83.83 0 0 1 .43.73 2 2 0 0 1 0 .35 2.88 2.88 0 0 1-.05.33 4.18 4.18 0 0 0-.9-.43 2.85 2.85 0 0 0-1-.18 1.82 1.82 0 0 0-1.15.3.88.88 0 0 0-.38.71 1 1 0 0 0 .27.72 2.68 2.68 0 0 0 1 .56l.88.34a2.86 2.86 0 0 1 1.25.83 1.93 1.93 0 0 1 .36 1.19 2.19 2.19 0 0 1-.82 1.64 3.2 3.2 0 0 1-2.2.74 2.81 2.81 0 0 1-1.57-.35 1.11 1.11 0 0 1-.49-.99z" data-name="&lt;Compound Path&gt;"/></g></g></g></svg>